<?xml version="1.0" encoding="utf-8"?>
<!-- Generator: Adobe Illustrator 20.1.0, SVG Export Plug-In . SVG Version: 6.00 Build 0)  -->
<svg version="1.1" id="Layer_1" xmlns="http://www.w3.org/2000/svg" xmlns:xlink="http://www.w3.org/1999/xlink" x="0px" y="0px"
	 viewBox="0 0 142.2 74.2" style="enable-background:new 0 0 142.2 74.2;" xml:space="preserve">
<style type="text/css">
	.st0{opacity:0.9;fill:#D1D2D3;stroke:#231F20;stroke-width:0.4456;stroke-miterlimit:10;enable-background:new    ;}
</style>
<path class="st0" d="M37.2,47.8c-6,6-6.5,12-6.5,12c0,4.9,1.1,5.4,1.1,5.4c43.6,19.6,79,0,79,0c1.1-8.7-4.9-15.3-4.9-15.3
	c-7.1-6-11.4-7.6-11.4-7.6c15.8,6,16.9,10.9,16.9,10.9c3.3,6,2.7,10.9,2.7,10.9c19.6-1.6,27.2-6,27.2-6c3.3-9.8-7.1-15.3-7.1-15.3
	l-14.7-7.1v-3.3c3.8-2.7,4.9-7.6,4.9-7.6l1.1-2.2c0-9.3-2.2-13.1-2.2-13.1c-14.2-7.1-21.8,1.6-21.8,1.6c-1.6,7.1-0.5,12-0.5,12
	l0.5,1.6c2.2,7.6,4.9,8.7,4.9,8.7v2.7l-13.6,5.4c-8.7-4.9-14.2-4.9-14.2-4.9l-0.5-3.8c5.4-3.8,7.1-11.4,7.1-11.4
	c2.2-2.7,0-5.4,0-5.4c0.5-9.3-1.1-10.9-1.1-10.9C69.4-5.1,57.9,3.7,57.9,3.7c-2.2,2.2-2.7,6-2.7,6l-0.5,6c-1.6,1.6,0,5.4,0,5.4
	c2.7,9.8,6.5,10.9,6.5,10.9v3.8l-13.1,6l-12.5-4.9L35,34.2c4.4-3.3,5.4-9.3,5.4-9.3c1.1-1.6,0.5-3.3,0.5-3.3
	c1.1-6.5-0.5-9.8-0.5-9.8c-10.9-7.6-21.3-1.6-21.3-1.6c-2.2,2.2-2.7,10.4-2.7,10.4c-0.5,1.6,0,3.3,0,3.3c1.6,7.1,5.4,9.8,5.4,9.8
	v3.8L6.2,44.5c-3.8,2.2-5.4,7.1-5.4,7.1c-1.1,4.9,0,7.6,0,7.6c9.8,5.4,27.2,6.5,27.2,6.5C28,50,37.2,47.8,37.2,47.8z"/>
</svg>
