<?xml version="1.0" encoding="utf-8"?>
<!-- Generator: Adobe Illustrator 20.1.0, SVG Export Plug-In . SVG Version: 6.00 Build 0)  -->
<svg version="1.1" id="Layer_1" xmlns="http://www.w3.org/2000/svg" xmlns:xlink="http://www.w3.org/1999/xlink" x="0px" y="0px"
	 viewBox="0 0 141.7 132.2" style="enable-background:new 0 0 141.7 132.2;" xml:space="preserve">
<style type="text/css">
	.st0{fill:#8B8B8B;}
</style>
<g>
	<path class="st0" d="M70.5,132.2c-18.6,0-37.2,0-55.8,0c-6.5,0-12.1,0-14-8.4c-1.9-14,0-21.4,9.3-24.2c13-3.7,27-6.5,40-10.2
		c4.7-0.9,7.4,0,11.2,2.8c6.5,4.7,13,4.7,19.5,0c3.7-3.7,7.4-3.7,12.1-1.9c13,3.7,26.1,6.5,38.2,9.3c9.3,2.8,12.1,8.4,10.2,23.3
		c-0.9,9.3-7.4,9.3-14,9.3C108.6,132.2,89.1,132.2,70.5,132.2z"/>
	<path class="st0" d="M70.5,0c16.8,0,25.1,8.4,30.7,24.2c7.4,20.5-3.7,35.4-14,49.3c-9.3,11.2-22.3,11.2-31.6,0
		c-13-14.9-23.3-30.7-14-53.1C46.3,7.4,55.6,0,70.5,0z"/>
</g>
</svg>
