<?xml version="1.0" encoding="utf-8"?>
<!-- Generator: Adobe Illustrator 19.1.1, SVG Export Plug-In . SVG Version: 6.00 Build 0)  -->
<svg version="1.1" id="Layer_1" xmlns="http://www.w3.org/2000/svg" xmlns:xlink="http://www.w3.org/1999/xlink" x="0px" y="0px"
	 viewBox="0 0 15.3 14.6" style="enable-background:new 0 0 15.3 14.6;" xml:space="preserve">
<style type="text/css">
	.st0{fill:#8B8B8B;}
</style>
<path class="st0" d="M6.3,0C7.2,0,8.1,0,9,0c0.1,0.3,0.1,0.6,0.2,0.9c0,0.2,0,0.4,0.1,0.5c0.4,0.2,0.9,0.5,1.4,0.5
	c0.2,0,0.5-0.2,0.7-0.4c0.3-0.3,0.6-0.4,0.9-0.1c0.5,0.4,0.9,0.9,1.4,1.3C14,3,14,3.3,13.8,3.5C13,4,13.1,4.6,13.5,5.2
	c0,0,0,0.1,0,0.1c0.1,0.4,0.3,0.5,0.6,0.5c0.4,0,0.7,0.2,1.1,0.2c0,0.8,0,1.7,0,2.5c-0.2,0-0.4,0.2-0.6,0.1c-0.7-0.1-1,0.2-1.3,0.9
	c-0.2,0.6-0.2,0.9,0.2,1.3c0.5,0.4,0.4,0.6,0,1.1c-0.4,0.4-0.8,0.8-1.2,1.1c-0.3,0.3-0.6,0.3-0.8,0c-0.5-0.6-1-0.6-1.7-0.3
	c-0.5,0.2-0.7,0.4-0.7,1c0,0.6-0.2,0.8-0.7,0.8c-0.5,0-1.1,0-1.6,0c-0.6,0-0.7-0.2-0.8-0.8c0-0.2,0-0.6-0.1-0.7
	c-0.4-0.2-0.9-0.5-1.4-0.5c-0.2,0-0.5,0.3-0.7,0.5c-0.3,0.3-0.6,0.4-0.9,0.1c-0.5-0.4-0.9-0.9-1.4-1.3c-0.3-0.3-0.3-0.6,0-0.8
	c0.6-0.4,0.7-0.9,0.3-1.6c0-0.1-0.1-0.2-0.1-0.3C1.6,8.8,1.4,8.7,1.1,8.7C0.7,8.7,0.4,8.6,0,8.5c0-0.9,0-1.8,0-2.6
	c0.3,0,0.7-0.1,1-0.1c0.2,0,0.5,0,0.5-0.2C1.8,5.2,2,4.8,2.1,4.3c0-0.2-0.3-0.5-0.5-0.7C1.2,3.3,1.3,3,1.6,2.7
	C2,2.3,2.4,1.9,2.8,1.5c0.4-0.3,0.7-0.4,1.1,0c0.4,0.5,0.8,0.5,1.4,0.2c0.1-0.1,0.3-0.1,0.4-0.1C6,1.6,6.1,1.3,6.1,0.9
	C6.1,0.6,6.2,0.3,6.3,0z M4.8,7.3c0,0.7,0.3,1.3,0.7,1.8c1.1,1.1,2.9,1.1,4,0.1c1.2-1.1,1.1-3-0.1-4C8.4,4.3,6.8,4.4,5.7,5.3
	C5.1,5.8,4.8,6.4,4.8,7.3z"/>
</svg>
