<?xml version="1.0" encoding="utf-8"?>
<!-- Generator: Adobe Illustrator 20.1.0, SVG Export Plug-In . SVG Version: 6.00 Build 0)  -->
<svg version="1.1" id="Layer_1" xmlns="http://www.w3.org/2000/svg" xmlns:xlink="http://www.w3.org/1999/xlink" x="0px" y="0px"
	 viewBox="0 0 141.7 145" style="enable-background:new 0 0 141.7 145;" xml:space="preserve">
<style type="text/css">
	.st0{fill:#BCBEC0;}
	.st1{fill:#E6E7E8;}
	.st2{fill:#EDF7F7;}
	.st3{fill:#F3FAF9;}
</style>
<g>
	<path class="st0" d="M111.8,32.7c2.8-4.3,5.5-8.6,8.3-12.8c2.3-3.6,5.9-4.1,9.6-1.5c3.6,2.4,4.4,5.5,2.1,9.1
		c-6.3,9.9-12.7,19.6-18.8,29.6c-1.4,2.3-2.3,5.4-2.4,8.1c-0.2,22.9-0.1,45.8-0.1,68.7c0,9.1-1.9,11.1-11.1,11.1
		c-29.8,0-59.5,0-89.3,0c-8,0-10.1-2.2-10.1-10.2c0-35.2,0-70.4-0.1-105.6c0-2.8,0.8-4.9,2.8-7c6.8-6.6,13.4-13.5,20.3-20
		c1.3-1.2,3.4-2.1,5-2.1C52.9-0.1,77.6,0,102.3,0c5.4,0,8,2.3,8.1,7.8c0.3,6.7,0.1,13.4,0.1,20.1c0,1.5,0,3,0,4.4
		C111,32.5,111.4,32.5,111.8,32.7z M94.6,59.7c-2.4,0-3.9,0-5.4,0c-23.9,0-47.8,0-71.7,0c-2.3,0-4.9,0.3-5-2.8
		c-0.1-3,2.5-3.2,4.9-3.2c26.4,0.1,52.8,0.1,79.1,0.2c0.7,0,1.7,0.1,1.8-0.3c2.7-4.9,7.7-8.6,7.7-14.9c0-9.6,0-19.3,0-28.9
		c0-5.2-0.3-5.4-5.4-5.4c-22,0-44.1,0-66.2,0c-1.2,0-2.4,0.2-3.9,0.3c0,5.4,0,10.6,0,15.8c0,7.5-2.5,10-10.1,10
		c-5.2,0-10.5,0-15.6,0c-0.2,1-0.3,1.3-0.3,1.5c0,34.8,0,69.6-0.1,104.3c0,4,2.3,4.5,5.4,4.5c30.3,0,60.6-0.1,90.9,0
		c3.9,0,5.4-1.4,5.4-5.4c-0.2-21-0.1-41.9-0.1-62.9c0-1-0.2-1.9-0.4-3.8c-10.3,16.1-20,31.4-29.4,46c-4.2-2.5-8-4.7-12-7.1
		c6-9.6,12.5-19.7,19.2-30.3c-22.1,0-43.3,0-64.5,0c-2.6,0-6.5,0.9-6.3-3.3c0.2-3.8,3.9-2.8,6.4-2.8c21.6-0.1,43.2,0,65-0.1
		c1.6,0,3.7-0.7,4.6-1.8C90.6,66.5,92.3,63.4,94.6,59.7z M6.8,26c5.3,0,10.8,0.1,16.3-0.1c0.9,0,2.6-1.3,2.6-2.1
		C26,18.1,25.8,12.4,25.8,7C19.4,13.4,13.1,19.6,6.8,26z"/>
	<path class="st0" d="M136.3,20.3c-3.9-2.5-7.6-4.8-11.7-7.5c1.2-1.8,2.8-4.8,4.9-7.3c2.5-3.2,6-3.6,9.2-1.5c3,1.9,3.9,5.7,2.3,9.2
		c-0.3,0.6-0.7,1.2-1.1,1.8C138.5,17,137.2,19,136.3,20.3z"/>
	<path class="st1" d="M94.6,59.7c-2.3,3.7-4,6.8-6.2,9.5c-0.9,1.1-3,1.8-4.6,1.8C62.2,71,40.6,71,18.9,71c-2.5,0-6.2-0.9-6.4,2.8
		c-0.2,4.2,3.7,3.3,6.3,3.3c21.2,0.1,42.4,0,64.5,0c-6.7,10.6-13.2,20.8-19.2,30.3c4.1,2.4,7.8,4.6,12,7.1
		c9.3-14.6,19.1-29.9,29.4-46c0.2,1.8,0.4,2.8,0.4,3.8c0,21-0.1,41.9,0.1,62.9c0,4-1.3,5.4-5.4,5.4c-30.3-0.1-60.6-0.1-90.9,0
		c-3.1,0-5.4-0.5-5.4-4.5c0.1-34.8,0.1-69.6,0.1-104.3c0-0.3,0.1-0.6,0.3-1.5c5.1,0,10.3,0,15.6,0c7.6,0,10.1-2.4,10.1-10
		c0-5.1,0-10.3,0-15.8c1.5-0.1,2.8-0.3,3.9-0.3c22,0,44.1,0,66.2,0c5.2,0,5.4,0.3,5.4,5.4c0,9.6,0,19.3,0,28.9c0,6.3-5,10-7.7,14.9
		C98,54,97,53.9,96.3,53.9c-26.4,0-52.8-0.1-79.1-0.2c-2.3,0-4.9,0.2-4.9,3.2c0.1,3.1,2.8,2.8,5,2.8c23.9,0,47.8,0,71.7,0
		C90.7,59.7,92.2,59.7,94.6,59.7z M55.7,42.7c12.2,0,24.3,0,36.5,0c1.1,0,2.4,0.3,3.3-0.2c1.3-0.8,2.2-2.1,3.3-3.2
		c-1.1-1-2.1-2.2-3.4-3c-0.6-0.4-1.6-0.1-2.4-0.1c-24.9,0-49.7,0-74.6,0c-1,0-2.2-0.3-2.8,0.2c-1.2,0.7-2.8,1.8-2.8,2.9
		c-0.1,1,1.4,2.4,2.6,3c1.2,0.6,2.8,0.3,4.1,0.3C31.4,42.7,43.6,42.7,55.7,42.7z M40.5,88.2c-7.7,0-15.3,0-23,0
		c-2.3,0-4.9,0.1-5,3.1c-0.2,3,2.5,3.4,4.8,3.4c15.5,0.1,31,0,46.4,0c2.3,0,4.9-0.3,4.8-3.4c-0.1-3-2.6-3.1-4.9-3.1
		C55.8,88.2,48.2,88.2,40.5,88.2z M35.1,105.5c-6.1,0-12.3-0.2-18.4,0.2c-1.5,0.1-2.9,1.8-4.4,2.8c1.4,1,2.9,2.8,4.4,2.8
		c12.2,0.3,24.3,0.3,36.5,0c1.4,0,2.8-1.8,4.3-2.8c-1.4-0.9-2.8-2.6-4.4-2.7C47.2,105.4,41.2,105.5,35.1,105.5z M56.7,131
		c0.3,0.3,0.6,0.6,0.9,0.8c3.9-3.2,8-6.2,11.7-9.6c1.6-1.4,4.9-2.1,3.4-5.7c-1.4-3.4-5-6-8.5-5.3c-1.3,0.3-2.9,1.4-3.3,2.5
		C59.4,119.5,58.1,125.3,56.7,131z"/>
	<path class="st0" d="M6.8,26c6.4-6.4,12.6-12.6,19.1-19.1c0,5.4,0.1,11.1-0.1,16.8c0,0.8-1.7,2.1-2.6,2.1C17.6,26.1,12.1,26,6.8,26
		z"/>
	<path class="st2" d="M55.7,42.7c-12.2,0-24.3,0-36.5,0c-1.4,0-2.9,0.3-4.1-0.3s-2.7-2.1-2.6-3c0.1-1.1,1.7-2.2,2.8-2.9
		c0.8-0.4,1.9-0.2,2.8-0.2c24.9,0,49.7,0,74.6,0c0.8,0,1.8-0.3,2.4,0.1c1.3,0.8,2.3,2,3.4,3c-1.1,1.1-2,2.4-3.3,3.2
		c-0.8,0.5-2.2,0.2-3.3,0.2C80,42.7,67.9,42.7,55.7,42.7z"/>
	<path class="st2" d="M40.5,88.2c7.7,0,15.3,0,23,0c2.3,0,4.9,0.1,4.9,3.1c0.1,3-2.5,3.4-4.8,3.4c-15.5,0-31,0-46.4,0
		c-2.3,0-4.9-0.3-4.8-3.4c0.2-2.9,2.7-3.1,5-3.1C25.1,88.2,32.9,88.2,40.5,88.2z"/>
	<path class="st3" d="M35.1,105.5c6,0,12-0.2,18,0.2c1.5,0.1,2.8,1.8,4.4,2.7c-1.4,1-2.8,2.8-4.3,2.8c-12.2,0.3-24.3,0.3-36.5,0
		c-1.5,0-2.9-1.8-4.4-2.8c1.4-1,2.8-2.7,4.4-2.8C22.9,105.4,29,105.5,35.1,105.5z"/>
	<path class="st0" d="M56.7,131c1.4-5.7,2.7-11.5,4.4-17.2c0.3-1.1,2-2.3,3.3-2.5c3.5-0.8,7,1.8,8.5,5.3c1.5,3.6-1.8,4.2-3.4,5.7
		c-3.8,3.4-7.8,6.5-11.7,9.6C57.3,131.6,57,131.4,56.7,131z"/>
	<path class="st0" d="M96,77H14.2c-1.7,0-3.1-1.3-3.1-3.1v-0.3c0-1.7,1.3-3.1,3.1-3.1H96c1.7,0,3.1,1.3,3.1,3.1v0.3
		C99.1,75.6,97.7,77,96,77z"/>
	<path class="st0" d="M96.2,59.4h-82c-1.6,0-2.9-1.3-2.9-2.9l0,0c0-1.6,1.3-2.9,2.9-2.9h82c1.6,0,2.9,1.3,2.9,2.9l0,0
		C99.1,58.2,97.8,59.4,96.2,59.4z"/>
	<path class="st0" d="M130.2,18.6l-1.6-1c-2.8-1.8-6.5-0.9-8.2,1.8l-56.2,88l11.6,7.5l56.2-88C133.8,24.1,133,20.4,130.2,18.6z"/>
	<path class="st0" d="M140.6,13.7l-4.4,6.7l-11.7-7.5l4.4-7c2-3.1,6.2-4,9.3-2l0.3,0.2C141.7,6.1,142.7,10.4,140.6,13.7z"/>
	<path class="st0" d="M54.6,111.3H13.4c-1.3,0-2.2-1-2.2-2.2v-2c0-1.3,1-2.2,2.2-2.2h41.2c1.3,0,2.2,1,2.2,2.2v2
		C56.9,110.3,55.9,111.3,54.6,111.3z"/>
	<path class="st0" d="M66,94.6H13.7c-1.3,0-2.4-1.1-2.4-2.4v-1.4c0-1.3,1.1-2.4,2.4-2.4H66c1.3,0,2.4,1.1,2.4,2.4v1.4
		C68.4,93.5,67.3,94.6,66,94.6z"/>
	<path class="st0" d="M96,42.6H14.2c-1.7,0-3.1-1.3-3.1-3.1v-0.3c0-1.7,1.3-3.1,3.1-3.1H96c1.7,0,3.1,1.3,3.1,3.1v0.3
		C99.1,41.3,97.7,42.6,96,42.6z"/>
</g>
</svg>
