<?xml version="1.0" encoding="utf-8"?>
<!-- Generator: Adobe Illustrator 19.1.1, SVG Export Plug-In . SVG Version: 6.00 Build 0)  -->
<svg version="1.1" id="Layer_1" xmlns="http://www.w3.org/2000/svg" xmlns:xlink="http://www.w3.org/1999/xlink" x="0px" y="0px"
	 viewBox="0 0 169 173.9" style="enable-background:new 0 0 169 173.9;" xml:space="preserve">
<style type="text/css">
	.st0{fill:#BCBEC0;}
	.st1{fill:#E6E7E8;}
	.st2{fill:#EDF7F7;}
	.st3{fill:#F3FAF9;}
</style>
<path class="st0" d="M133.1,39.6c3.3-5.1,6.6-10.3,9.9-15.3c2.8-4.3,7-4.9,11.5-1.8c4.3,2.9,5.2,6.6,2.5,10.9
	c-7.5,11.8-15.2,23.4-22.4,35.3c-1.7,2.8-2.8,6.4-2.9,9.7c-0.2,27.3-0.1,54.7-0.1,82c0,10.9-2.3,13.2-13.2,13.2
	c-35.5,0-71,0-106.5,0c-9.5,0-12.1-2.6-12.1-12.2c0-42,0-84-0.1-126c0-3.4,1-5.9,3.4-8.3c8.1-7.9,16-16.1,24.2-23.9
	c1.5-1.4,4-2.5,6-2.5c29.5-0.2,59-0.1,88.5-0.1c6.5,0,9.5,2.7,9.7,9.3c0.3,8,0.1,16,0.1,24c0,1.8,0,3.6,0,5.3
	C132.1,39.3,132.6,39.4,133.1,39.6z M112.6,71.8c-2.9,0-4.7,0-6.5,0c-28.5,0-57,0-85.5,0c-2.7,0-5.9,0.3-6-3.4
	c-0.1-3.6,3-3.8,5.8-3.8c31.5,0.1,63,0.1,94.4,0.2c0.8,0,2,0.1,2.2-0.3c3.2-5.9,9.2-10.3,9.2-17.8c0-11.5,0-23,0-34.5
	c0-6.2-0.3-6.5-6.5-6.5c-26.3,0-52.6,0-79,0c-1.4,0-2.9,0.2-4.7,0.3c0,6.5,0,12.6,0,18.8c0,9-3,11.9-12,11.9c-6.2,0-12.5,0-18.6,0
	c-0.2,1.2-0.3,1.5-0.3,1.8c0,41.5,0,83-0.1,124.4c0,4.8,2.7,5.4,6.5,5.4c36.2,0,72.3-0.1,108.5,0c4.7,0,6.4-1.7,6.4-6.5
	c-0.2-25-0.1-50-0.1-75c0-1.2-0.2-2.3-0.5-4.5c-12.3,19.2-23.9,37.5-35.1,54.9c-5-3-9.5-5.6-14.3-8.5c7.2-11.4,14.9-23.5,22.9-36.2
	c-26.4,0-51.7,0-77,0c-3.1,0-7.7,1.1-7.5-3.9c0.2-4.5,4.6-3.4,7.6-3.4c25.8-0.1,51.6,0,77.5-0.1c1.9,0,4.4-0.8,5.5-2.1
	C107.8,79.9,109.8,76.2,112.6,71.8z M7.8,31.6c6.3,0,12.9,0.1,19.5-0.1c1.1,0,3.1-1.6,3.1-2.5c0.3-6.8,0.1-13.6,0.1-20.1
	C22.8,16.6,15.3,24,7.8,31.6z"/>
<path class="st0" d="M162.3,24.8c-4.7-3-9.1-5.7-14-8.9c1.4-2.2,3.4-5.7,5.8-8.7c3-3.8,7.1-4.3,11-1.8c3.6,2.3,4.7,6.8,2.7,11
	c-0.4,0.7-0.8,1.4-1.3,2.1C164.9,20.9,163.4,23.2,162.3,24.8z"/>
<path class="st1" d="M112.6,71.8c-2.8,4.4-4.8,8.1-7.4,11.3c-1.1,1.3-3.6,2.1-5.5,2.1c-25.8,0.1-51.6,0.1-77.5,0.1
	c-3,0-7.4-1.1-7.6,3.4c-0.2,5,4.4,3.9,7.5,3.9c25.3,0.1,50.6,0,77,0c-8,12.7-15.7,24.8-22.9,36.2c4.9,2.9,9.3,5.5,14.3,8.5
	c11.1-17.4,22.8-35.7,35.1-54.9c0.2,2.1,0.5,3.3,0.5,4.5c0,25-0.1,50,0.1,75c0,4.8-1.6,6.5-6.4,6.5c-36.2-0.1-72.3-0.1-108.5,0
	c-3.7,0-6.5-0.6-6.5-5.4c0.1-41.5,0.1-83,0.1-124.4c0-0.3,0.1-0.7,0.3-1.8c6.1,0,12.3,0,18.6,0c9.1,0,12-2.9,12-11.9
	c0-6.1,0-12.3,0-18.8c1.8-0.1,3.3-0.3,4.7-0.3c26.3,0,52.6,0,79,0c6.2,0,6.5,0.3,6.5,6.5c0,11.5,0,23,0,34.5c0,7.5-6,11.9-9.2,17.8
	c-0.2,0.4-1.4,0.3-2.2,0.3c-31.5,0-63-0.1-94.4-0.2c-2.8,0-5.9,0.2-5.8,3.8c0.1,3.7,3.3,3.4,6,3.4c28.5,0,57,0,85.5,0
	C107.9,71.8,109.7,71.8,112.6,71.8z M66.2,51.5c14.5,0,29,0,43.5,0c1.3,0,2.9,0.4,3.9-0.2c1.5-0.9,2.6-2.5,3.9-3.8
	c-1.3-1.2-2.5-2.6-4-3.6c-0.7-0.5-1.9-0.1-2.9-0.1c-29.7,0-59.3,0-89,0c-1.2,0-2.6-0.3-3.4,0.2c-1.4,0.8-3.3,2.2-3.4,3.5
	c-0.1,1.2,1.7,2.9,3.1,3.6c1.4,0.7,3.3,0.4,4.9,0.4C37.2,51.5,51.7,51.5,66.2,51.5z M48,105.8c-9.2,0-18.3,0-27.5,0
	c-2.8,0-5.8,0.1-6,3.7c-0.2,3.6,3,4,5.7,4c18.5,0.1,37,0,55.4,0c2.8,0,5.8-0.4,5.7-4c-0.1-3.6-3.1-3.7-5.9-3.7
	C66.3,105.8,57.2,105.8,48,105.8z M41.6,126.5c-7.3,0-14.7-0.2-22,0.2c-1.8,0.1-3.5,2.2-5.2,3.3c1.7,1.2,3.5,3.3,5.2,3.3
	c14.5,0.3,29,0.3,43.5,0c1.7,0,3.4-2.2,5.1-3.4c-1.7-1.1-3.4-3.1-5.2-3.2C56,126.3,48.8,126.5,41.6,126.5z M67.3,156.9
	c0.4,0.3,0.7,0.7,1.1,1c4.7-3.8,9.5-7.4,14-11.5c1.9-1.7,5.9-2.5,4.1-6.8c-1.7-4.1-6-7.1-10.2-6.3c-1.5,0.3-3.5,1.7-3.9,3
	C70.6,143.2,69,150.1,67.3,156.9z"/>
<path class="st0" d="M7.8,31.6c7.6-7.6,15-15,22.8-22.8c0,6.5,0.1,13.3-0.1,20.1c0,0.9-2,2.5-3.1,2.5C20.7,31.7,14.1,31.6,7.8,31.6z
	"/>
<path class="st2" d="M66.2,51.5c-14.5,0-29,0-43.5,0c-1.7,0-3.5,0.3-4.9-0.4c-1.4-0.7-3.2-2.5-3.1-3.6c0.1-1.3,2-2.6,3.4-3.5
	c0.9-0.5,2.3-0.2,3.4-0.2c29.7,0,59.3,0,89,0c1,0,2.2-0.3,2.9,0.1c1.5,1,2.7,2.4,4,3.6c-1.3,1.3-2.4,2.9-3.9,3.8
	c-1,0.6-2.6,0.2-3.9,0.2C95.2,51.5,80.7,51.5,66.2,51.5z"/>
<path class="st2" d="M48,105.8c9.2,0,18.3,0,27.5,0c2.8,0,5.8,0.1,5.9,3.7c0.1,3.6-3,4-5.7,4c-18.5,0-37,0-55.4,0
	c-2.7,0-5.9-0.4-5.7-4c0.2-3.5,3.2-3.7,6-3.7C29.7,105.8,38.9,105.8,48,105.8z"/>
<path class="st3" d="M41.6,126.5c7.2,0,14.3-0.2,21.5,0.2c1.8,0.1,3.4,2.1,5.2,3.2c-1.7,1.2-3.4,3.4-5.1,3.4
	c-14.5,0.3-29,0.3-43.5,0c-1.8,0-3.5-2.2-5.2-3.3c1.7-1.2,3.4-3.2,5.2-3.3C27,126.3,34.3,126.5,41.6,126.5z"/>
<path class="st0" d="M67.3,156.9c1.7-6.8,3.2-13.7,5.2-20.5c0.4-1.3,2.4-2.7,3.9-3c4.2-0.9,8.4,2.1,10.2,6.3c1.8,4.3-2.2,5-4.1,6.8
	c-4.5,4-9.3,7.7-14,11.5C68.1,157.6,67.7,157.3,67.3,156.9z"/>
<path class="st0" d="M114.3,92.4H16.7c-2,0-3.7-1.6-3.7-3.7v-0.3c0-2,1.6-3.7,3.7-3.7h97.6c2,0,3.7,1.6,3.7,3.7v0.3
	C118,90.8,116.3,92.4,114.3,92.4z"/>
<path class="st0" d="M114.5,71.5H16.6c-1.9,0-3.5-1.6-3.5-3.5v0c0-1.9,1.6-3.5,3.5-3.5h97.9c1.9,0,3.5,1.6,3.5,3.5v0
	C118,70,116.4,71.5,114.5,71.5z"/>
<path class="st0" d="M155.1,22.8l-1.9-1.2c-3.3-2.1-7.7-1.1-9.8,2.2l-67,105l13.9,8.9l67-105C159.4,29.3,158.4,24.9,155.1,22.8z"/>
<path class="st0" d="M167.5,16.9l-5.2,8l-14-9l5.3-8.3c2.4-3.7,7.4-4.8,11.1-2.4l0.3,0.2C168.8,7.9,170,13,167.5,16.9z"/>
<path class="st0" d="M64.9,133.4H15.7c-1.5,0-2.6-1.2-2.6-2.6v-2.4c0-1.5,1.2-2.6,2.6-2.6h49.2c1.5,0,2.6,1.2,2.6,2.6v2.4
	C67.6,132.2,66.4,133.4,64.9,133.4z"/>
<path class="st0" d="M78.4,113.4H16c-1.6,0-2.9-1.3-2.9-2.9v-1.7c0-1.6,1.3-2.9,2.9-2.9h62.4c1.6,0,2.9,1.3,2.9,2.9v1.7
	C81.3,112.1,80,113.4,78.4,113.4z"/>
<path class="st0" d="M114.3,51.4H16.7c-2,0-3.7-1.6-3.7-3.7v-0.3c0-2,1.6-3.7,3.7-3.7h97.6c2,0,3.7,1.6,3.7,3.7v0.3
	C118,49.8,116.3,51.4,114.3,51.4z"/>
</svg>
