<?xml version="1.0" encoding="utf-8"?>
<!-- Generator: Adobe Illustrator 19.1.1, SVG Export Plug-In . SVG Version: 6.00 Build 0)  -->
<svg version="1.1" id="Layer_1" xmlns="http://www.w3.org/2000/svg" xmlns:xlink="http://www.w3.org/1999/xlink" x="0px" y="0px"
	 viewBox="0 0 69.9 12.6" style="enable-background:new 0 0 69.9 12.6;" xml:space="preserve">
<style type="text/css">
	.st0{fill:#14A087;}
	.st1{fill:#FFFFFF;}
	.st2{fill:#FEDD10;}
</style>
<rect x="0.1" y="0" class="st0" width="69.9" height="12.6"/>
<g>
	<polygon class="st1" points="69.9,5 67.5,7.1 68.3,10.4 65.8,8.5 63.4,10.4 64.2,7 61.9,5 64.8,5 65.8,1.8 66.9,5 	"/>
	<polygon class="st1" points="62.1,5 59.6,7.1 60.5,10.4 58,8.5 55.5,10.4 56.3,7 54,5 57,5 58,1.8 59,5 	"/>
	<polygon class="st2" points="54.2,5 51.8,7.1 52.6,10.4 50.1,8.5 47.6,10.4 48.5,7 46.2,5 49.1,5 50.1,1.8 51.2,5 	"/>
	<polygon class="st2" points="46.4,5 43.9,7.1 44.8,10.4 42.3,8.5 39.8,10.4 40.6,7 38.3,5 41.3,5 42.3,1.8 43.3,5 	"/>
	<polygon class="st2" points="38.5,5 36,7.1 36.9,10.4 34.4,8.5 31.9,10.4 32.8,7 30.4,5 33.4,5 34.4,1.8 35.5,5 	"/>
</g>
<g>
	<path class="st1" d="M5.4,4V3.8c0-0.1,0-0.2,0-0.2s0.1-0.1,0.1-0.1s0.1,0,0.1,0.1s0,0.1,0,0.2v1.2c0,0.1,0,0.2,0,0.2
		S5.7,5.4,5.6,5.4c-0.1,0-0.1,0-0.1-0.1c0,0-0.1-0.1-0.1-0.2c0-0.3-0.1-0.6-0.4-0.9C4.8,4,4.5,3.8,4.1,3.8c-0.4,0-0.7,0.1-1,0.4
		s-0.4,0.6-0.4,1c0,0.2,0,0.4,0.1,0.5C3,5.9,3.1,6,3.2,6.1c0.1,0.1,0.2,0.2,0.4,0.2s0.4,0.1,0.6,0.2c0.5,0.1,0.8,0.2,1,0.3
		C5.5,7,5.7,7.2,5.8,7.5C5.9,7.8,6,8.1,6,8.5c0,0.6-0.2,1-0.5,1.4c-0.3,0.4-0.8,0.6-1.3,0.6c-0.6,0-1.1-0.3-1.5-0.8v0.3
		c0,0.1,0,0.2,0,0.2c0,0-0.1,0.1-0.1,0.1c-0.1,0-0.1,0-0.1-0.1c0-0.1-0.1-0.1-0.1-0.2V8.6c0-0.1,0-0.2,0-0.3c0,0,0.1-0.1,0.1-0.1
		c0.1,0,0.1,0,0.1,0.1c0,0,0.1,0.1,0.1,0.2c0,0.4,0.2,0.7,0.4,1C3.3,9.8,3.7,10,4.2,10C4.6,10,5,9.8,5.2,9.5
		c0.3-0.3,0.4-0.7,0.4-1.1c0-0.3-0.1-0.5-0.2-0.7S5.2,7.4,5,7.3C4.9,7.2,4.6,7.1,4.2,7c-0.6-0.1-1-0.3-1.3-0.6S2.5,5.7,2.5,5.2
		c0-0.5,0.2-0.9,0.5-1.3s0.7-0.5,1.2-0.5C4.6,3.4,5.1,3.6,5.4,4z"/>
	<path class="st1" d="M11.4,7.9H7.7C7.8,8.5,8,9,8.3,9.4C8.6,9.8,9,10,9.5,10c0.3,0,0.6-0.1,0.9-0.2c0.3-0.1,0.5-0.3,0.7-0.5
		c0.1-0.1,0.1-0.1,0.1-0.1c0,0,0.1,0,0.1,0.1c0,0,0.1,0.1,0.1,0.2c0,0.1,0,0.1-0.1,0.2c-0.1,0.2-0.4,0.4-0.7,0.5
		c-0.4,0.2-0.7,0.3-1.1,0.3c-0.6,0-1.1-0.3-1.6-0.8c-0.4-0.5-0.6-1.2-0.6-2c0-0.7,0.2-1.3,0.6-1.8c0.4-0.5,0.9-0.8,1.5-0.8
		c0.6,0,1.1,0.3,1.5,0.8C11.2,6.4,11.4,7.1,11.4,7.9z M11.1,7.4c-0.1-0.5-0.3-1-0.6-1.3S9.8,5.6,9.4,5.6C9,5.6,8.6,5.8,8.3,6.1
		C8,6.4,7.8,6.8,7.7,7.4H11.1z"/>
	<path class="st1" d="M16.6,3v6.7H17c0.1,0,0.2,0,0.2,0.1c0,0,0.1,0.1,0.1,0.2c0,0.1,0,0.1-0.1,0.2c0,0-0.1,0.1-0.2,0.1h-0.9v-1
		c-0.4,0.8-1,1.2-1.6,1.2c-0.3,0-0.6-0.1-0.9-0.3s-0.5-0.6-0.7-1c-0.2-0.4-0.3-0.9-0.3-1.3c0-0.5,0.1-0.9,0.3-1.3
		c0.2-0.4,0.4-0.8,0.7-1c0.3-0.2,0.6-0.4,1-0.4c0.6,0,1.2,0.4,1.6,1.2V3.5h-0.5c-0.1,0-0.2,0-0.2-0.1s-0.1-0.1-0.1-0.2
		c0-0.1,0-0.1,0.1-0.2c0,0,0.1-0.1,0.2-0.1H16.6z M16.2,7.8c0-0.6-0.2-1.1-0.5-1.6c-0.3-0.4-0.7-0.6-1.1-0.6c-0.4,0-0.8,0.2-1.1,0.6
		C13.2,6.6,13,7.2,13,7.8c0,0.6,0.2,1.1,0.5,1.6c0.3,0.4,0.7,0.6,1.1,0.6c0.4,0,0.8-0.2,1.1-0.6C16,8.9,16.2,8.4,16.2,7.8z"/>
	<path class="st1" d="M21.2,10.3V9.6c-0.5,0.6-1.1,0.9-1.7,0.9c-0.4,0-0.8-0.1-1-0.4c-0.2-0.3-0.4-0.7-0.4-1.1
		c0-0.5,0.2-0.9,0.5-1.2c0.3-0.3,0.8-0.5,1.4-0.5c0.2,0,0.3,0,0.5,0s0.4,0.1,0.6,0.1V6.6c0-0.3-0.1-0.5-0.3-0.7
		c-0.2-0.2-0.5-0.3-0.8-0.3c-0.3,0-0.7,0.1-1.2,0.3C18.8,6,18.7,6,18.7,6c0,0-0.1,0-0.1-0.1s0-0.1,0-0.2c0-0.1,0-0.1,0-0.2
		c0-0.1,0.2-0.1,0.5-0.2c0.5-0.2,0.8-0.2,1-0.2c0.5,0,0.8,0.2,1.1,0.5c0.3,0.3,0.4,0.6,0.4,1v3.2H22c0.1,0,0.2,0,0.2,0.1
		c0,0,0.1,0.1,0.1,0.2c0,0.1,0,0.1-0.1,0.2c0,0-0.1,0.1-0.2,0.1H21.2z M21.2,7.9c-0.2-0.1-0.4-0.1-0.5-0.1c-0.2,0-0.4,0-0.6,0
		c-0.5,0-0.9,0.2-1.2,0.5c-0.2,0.2-0.3,0.5-0.3,0.8c0,0.3,0.1,0.5,0.3,0.7c0.2,0.2,0.4,0.3,0.8,0.3c0.3,0,0.6-0.1,0.9-0.3
		s0.5-0.4,0.8-0.8V7.9z"/>
	<path class="st1" d="M24.3,5.3V6c0.3-0.3,0.5-0.6,0.7-0.7c0.2-0.1,0.4-0.2,0.7-0.2c0.3,0,0.5,0.1,0.8,0.2c0.2,0.1,0.3,0.3,0.4,0.6
		S27,6.4,27,6.7v3h0.3c0.1,0,0.1,0,0.2,0.1c0,0,0.1,0.1,0.1,0.2c0,0.1,0,0.1-0.1,0.2c0,0-0.1,0.1-0.2,0.1h-1c-0.1,0-0.2,0-0.2-0.1
		c0,0-0.1-0.1-0.1-0.2c0-0.1,0-0.1,0.1-0.2c0,0,0.1-0.1,0.2-0.1h0.3v-3c0-0.3-0.1-0.6-0.3-0.9c-0.2-0.2-0.4-0.4-0.8-0.4
		c-0.2,0-0.4,0.1-0.6,0.2c-0.2,0.1-0.4,0.4-0.8,1v3h0.4c0.1,0,0.1,0,0.2,0.1c0,0,0.1,0.1,0.1,0.2c0,0.1,0,0.1-0.1,0.2
		c0,0-0.1,0.1-0.2,0.1h-1.2c-0.1,0-0.1,0-0.2-0.1c0,0-0.1-0.1-0.1-0.2c0-0.1,0-0.1,0.1-0.2c0,0,0.1-0.1,0.2-0.1h0.4v-4h-0.3
		c-0.1,0-0.1,0-0.2-0.1c0,0-0.1-0.1-0.1-0.2c0-0.1,0-0.1,0.1-0.2c0,0,0.1-0.1,0.2-0.1H24.3z"/>
</g>
</svg>
