<?xml version="1.0" encoding="utf-8"?>
<!-- Generator: Adobe Illustrator 20.1.0, SVG Export Plug-In . SVG Version: 6.00 Build 0)  -->
<svg version="1.1" id="Layer_1" xmlns="http://www.w3.org/2000/svg" xmlns:xlink="http://www.w3.org/1999/xlink" x="0px" y="0px"
	 viewBox="0 0 180 120" style="enable-background:new 0 0 180 120;" xml:space="preserve">
<style type="text/css">
	.st0{fill:#199F88;}
	.st1{fill:#00826B;}
	.st2{fill:#FFFFFF;}
	.st3{fill:#F69321;stroke:#FFFFFF;stroke-width:7.224572e-02;stroke-miterlimit:10;}
</style>
<rect class="st0" width="180.3" height="120.7"/>
<polyline class="st1" points="228.7,117.2 130.9,12.4 109.9,38.1 97.1,72.9 20.3,96.2 118.4,201.3 "/>
<path class="st2" d="M20.2,50c6.6,1.1,13.3,2.7,19.9,3.3c13.3,1,26.7,0.9,39.9,2.3C88.8,56.4,95,51.4,98.8,43
	c4.5-10,10.7-17,18.1-23.2c3.8-3.1,7-7.3,10.6-11.1c6.7,5.7,6.3,10.7-0.3,16.3c-4,3.4-7.1,8.8-10.6,13.4c0.5,1.4,1,2.8,1.5,4.1
	c4.7,0,9.3,0,14,0c9.6,0,13.9,7.5,10.1,18.7c-2.8,8.1-6.1,15.9-9.7,23.4c-1.3,2.5-4.5,4.9-6.8,5c-24.7,0.9-49.4,0.8-74,1.9
	c-10.5,0.5-20.9,3.1-31.4,4.7C20.2,80.7,20.2,65.4,20.2,50z"/>
<path class="st0" d="M113.2,81.8h-6.4c-0.3,0-0.5-0.2-0.5-0.5v-5.9c0-0.3,0.2-0.5,0.5-0.5h6.4c0.3,0,0.5,0.2,0.5,0.5v5.9
	C113.7,81.5,113.5,81.8,113.2,81.8z"/>
<rect x="112.1" y="74.9" class="st3" width="0.5" height="7"/>
<rect x="107.2" y="74.9" class="st3" width="0.5" height="7"/>
<path class="st0" d="M110.4,73.8h-1c-0.1,0-0.1,0.1-0.1,0.2v0.9h0.1v-0.8c0-0.1,0-0.2,0.1-0.2h0.7c0.1,0,0.1,0.1,0.1,0.2v0.8h0.1V74
	C110.5,73.9,110.4,73.8,110.4,73.8z"/>
<path class="st0" d="M105.2,70.2c-0.1,0.1-0.1,0.2-0.1,0.3c-0.1,0.5-0.5,0.6-0.8,0.2c-0.3-0.3-0.5-0.6-0.7-1.1
	c-0.3-0.5-0.5-0.9-0.7-1.3c-0.1-0.3-0.1-0.6-0.1-1c0-0.1,0-0.2-0.1-0.4c0-0.2-0.1-0.4-0.2-0.6c0.2,0,0.4-0.1,0.6-0.2
	c0.1,0,0.1,0.1,0.3,0.2c0.2,0.4,0.4,0.7,0.6,1.1c0.1,0.1,0.2,0.3,0.3,0.4c-0.1,0.1-0.4,0.2-0.6,0.4c-0.1,0-0.1,0.1-0.1,0.2
	c0,0.2,0.5,0.8,0.6,0.8c0,0,0.1-0.1,0.1-0.2c0.1-0.8,0.3-1.6,0.3-2.4c0-0.5,0-0.9,0.4-1.2c0,0,0.1-0.2,0.1-0.3c0-0.2,0-0.4,0-0.6
	c0-0.2,0-0.4-0.3-0.5c-0.4-0.3-0.5-1.1-0.3-1.7c0.3-0.6,0.6-1.2,1.3-1.4c0,0,0.1,0,0.1,0c0.4-0.4,0.7-0.3,1.1,0.1
	c0.1,0.1,0.3,0.1,0.4,0.2c0.3,0.1,0.6,0.3,0.9,0.5c0.6,0.5,0.7,1.5,0.2,2.1c-0.1,0.1-0.3,0.2-0.4,0.4c-0.2,0.2-0.1,0.5,0.1,0.6
	c0.3,0.2,0.6,0.3,0.8,0.6c0.2,0.6,0.3,1.1,0.3,1.7c-0.1,0.4-0.1,0.9-0.1,1.3c0,0.1,0.1,0.3,0.1,0.5c-0.3,0.2-0.3,0.6-0.3,1
	c0,0.3,0,0.6,0,0.9c0,0.4,0.1,0.6,0.2,1c0.1,0.6,0.2,1.4,0,2c-0.1,0.2-0.3,0.3-0.4,0.2c-0.2-0.2-0.4-0.1-0.6-0.1
	c-1.2,0.2-2.4,0.6-3.6,0.5c-0.1,0-0.2,0-0.3,0.1c-0.3,0.1-0.6,0.3-0.8,0.5c-0.1,0.1-0.2,0.3-0.2,0.4c0.1,0.7-0.1,1.4-0.3,2.1
	c-0.1,0.5-0.4,1.1-0.5,1.6c-0.1,0.6-0.4,1.3-0.1,2c0,0.1,0,0.3,0,0.4c0,0.6-0.4,1-1,0.7c-0.1,0-0.2,0-0.3,0
	c-0.4,0.4-0.9,0.3-1.4,0.2c-0.3,0-0.5-0.3-0.7-0.4c0,0,0-0.2,0-0.2c0.1-0.1,0.3-0.2,0.4-0.2c0.3,0,0.5-0.2,0.7-0.4
	c0.2-0.4,0.4-0.8,0.6-1.1c0,0,0-0.1,0.1-0.2c0.6-0.5,0.7-1.1,0.8-1.8c0-0.2,0-0.5,0-0.6c0-0.2,0-0.4,0-0.6c-0.2,0.3-0.4,0.6-0.6,0.9
	c-0.3,0.5-0.7,0.8-1,1.2c-0.3,0.3-0.5,0.6-0.7,1c-0.1,0.2-0.3,0.5-0.4,0.7c-0.1,0.3,0,0.5-0.1,0.8c0,0.2-0.1,0.4-0.3,0.6
	c-0.1,0.2-0.3,0.3-0.4,0.2c-0.1-0.1-0.4-0.1-0.5-0.2c-0.1,0-0.1-0.2-0.2-0.3c0,0-0.1-0.2-0.1-0.2c-0.2,0-0.4-0.1-0.6-0.1
	c-0.6,0-1.1-0.3-1.4-0.9c0-0.1-0.1-0.3-0.1-0.3c0.1-0.1,0.3-0.2,0.4-0.3c0,0,0.1,0,0.2,0.1c0.7,0.3,1.1,0.2,1.6-0.4
	c0.1-0.2,0.4-0.3,0.6-0.4c0.4-0.2,0.8-0.5,1-0.9c0.5-0.7,0.9-1.6,1.3-2.4c0.2-0.4,0.4-0.8,0.6-1.2c0.1-0.4,0.3-0.7,0.7-0.9
	c0.1,0,0.3-0.2,0.3-0.4c0.1-0.6,0.4-0.8,0.9-0.9c0.1,0,0.3-0.1,0.3-0.3c0.2-0.5,0.6-0.7,1.1-0.8c0.5,0,0.9-0.3,1.1-0.8
	c0,0,0.1-0.1,0.1-0.1c0.3-0.2,0.4-0.5,0.5-0.9c0,0,0-0.1,0-0.1c-0.1-0.1-0.1-0.2-0.3-0.4c0,0-0.1,0.1-0.1,0.1
	C105.2,69.9,105,70.1,105.2,70.2z"/>
<g>
	<path class="st0" d="M39.8,79.8V63.1c0-0.5,0.1-1,0.3-1.5c0.2-0.5,0.4-0.9,0.7-1.3c0.3-0.4,0.7-0.6,1.1-0.9
		c0.4-0.2,0.9-0.3,1.4-0.3c0.5,0,1,0.1,1.4,0.3c0.4,0.2,0.8,0.5,1.1,0.9s0.6,0.8,0.8,1.3c0.2,0.5,0.3,1,0.3,1.6v16.7
		c0,0.6-0.1,1.1-0.3,1.6c-0.2,0.5-0.4,0.9-0.8,1.3c-0.3,0.4-0.7,0.6-1.1,0.8c-0.4,0.2-0.9,0.3-1.4,0.3c-0.5,0-1-0.1-1.4-0.3
		c-0.4-0.2-0.8-0.5-1.1-0.9c-0.3-0.4-0.6-0.8-0.8-1.3C39.9,80.9,39.8,80.4,39.8,79.8z M43.4,80.5c0.2,0,0.3-0.1,0.4-0.2
		c0.1-0.1,0.2-0.3,0.2-0.5V63.1c0-0.2-0.1-0.4-0.2-0.5c-0.1-0.1-0.3-0.2-0.4-0.2c-0.2,0-0.3,0-0.4,0.2c-0.1,0.1-0.2,0.3-0.2,0.5
		v16.7c0,0.2,0.1,0.3,0.2,0.5C43.1,80.4,43.2,80.5,43.4,80.5z"/>
	<path class="st0" d="M46.2,70.4c-0.3-0.6-0.4-1.2-0.4-1.8c0-0.6,0.1-1.1,0.3-1.6c0.2-0.5,0.4-0.8,0.7-1.1c0.3-0.3,0.6-0.6,0.9-0.7
		c0.3-0.2,0.6-0.3,0.8-0.4c0.8-0.2,1.8-0.4,3.1-0.4c1.1,0,2.1,0.2,3.1,0.6c1,0.4,1.8,0.9,2.5,1.6c0.7,0.7,1.2,1.6,1.6,2.5
		c0.4,1,0.6,2.1,0.6,3.3v7.2c0,0.5-0.1,1.1-0.3,1.6c-0.2,0.5-0.4,0.9-0.8,1.3c-0.3,0.4-0.7,0.6-1.1,0.9c-0.4,0.2-0.9,0.3-1.4,0.3
		c-0.6,0-1-0.1-1.5-0.4c-0.4,0.2-0.8,0.3-1.3,0.4c-0.5,0.1-1,0.1-1.5,0.1c-1,0-2-0.2-2.9-0.6c-0.9-0.4-1.7-0.9-2.4-1.6
		c-0.7-0.7-1.2-1.5-1.6-2.4c-0.4-0.9-0.6-2-0.6-3.2c0-1.2,0.2-2.3,0.6-3.2C44.9,71.8,45.5,71.1,46.2,70.4z M55.7,80.4
		c0.1,0,0.3-0.1,0.4-0.2c0.1-0.1,0.2-0.3,0.2-0.5v-7.2c0-1.3-0.4-2.5-1.3-3.4c-0.8-0.9-2-1.3-3.5-1.3c-0.8,0-1.5,0.1-2,0.2
		c-0.5,0.1-0.8,0.4-0.8,0.7c0,0.2,0,0.4,0.2,0.5c0.1,0.1,0.2,0.2,0.4,0.2c0.2,0,0.4,0,0.7-0.1c0.3-0.1,0.6-0.1,1.1-0.1
		c0.6,0,1.1,0.1,1.7,0.2c0.5,0.2,0.9,0.4,1.3,0.6c0.3,0.3,0.6,0.6,0.8,0.9c0.2,0.4,0.3,0.7,0.3,1.1v1.3c-0.2-0.2-0.4-0.3-0.6-0.6
		c-0.3-0.2-0.5-0.4-0.8-0.6c-0.3-0.2-0.6-0.3-1-0.5c-0.4-0.1-0.8-0.2-1.2-0.2c-0.6,0-1.1,0.1-1.7,0.3c-0.6,0.2-1,0.5-1.4,0.9
		c-0.4,0.4-0.7,0.9-1,1.4C47.1,74.7,47,75.3,47,76c0,0.6,0.1,1.2,0.3,1.7c0.2,0.6,0.5,1,0.9,1.4c0.4,0.4,0.8,0.7,1.4,0.9
		c0.6,0.2,1.2,0.3,1.8,0.3c0.6,0,1.2-0.1,1.6-0.2c0.4-0.1,0.8-0.3,1.2-0.5c0.3-0.2,0.6-0.5,0.9-0.7l0,0.7c0,0.2,0.1,0.3,0.2,0.5
		C55.5,80.3,55.6,80.4,55.7,80.4z M55,76c0,0.5-0.1,0.9-0.3,1.3c-0.2,0.4-0.5,0.7-0.8,1c-0.3,0.3-0.7,0.5-1.1,0.6
		c-0.4,0.1-0.8,0.2-1.3,0.2c-0.4,0-0.9-0.1-1.3-0.2c-0.4-0.1-0.8-0.4-1.1-0.6s-0.6-0.6-0.7-1c-0.2-0.4-0.3-0.8-0.3-1.3
		c0-0.5,0.1-0.9,0.3-1.3c0.2-0.4,0.4-0.7,0.8-1c0.3-0.3,0.7-0.5,1.1-0.6c0.4-0.2,0.8-0.2,1.3-0.2c0.4,0,0.8,0.1,1.3,0.2
		c0.4,0.1,0.8,0.3,1.1,0.6c0.3,0.3,0.6,0.6,0.8,1C54.9,75,55,75.5,55,76z"/>
	<path class="st0" d="M56.3,65v-1.6c0-0.6,0.1-1.1,0.3-1.6c0.2-0.5,0.5-0.9,0.8-1.3c0.3-0.3,0.7-0.6,1.1-0.8
		c0.4-0.2,0.9-0.3,1.4-0.3c0.5,0,1,0.1,1.4,0.3c0.4,0.2,0.8,0.5,1.1,0.9c0.3,0.4,0.6,0.8,0.8,1.3c0.2,0.5,0.3,1,0.3,1.6V65
		c0,0.7-0.1,1.3-0.4,1.9c0.3,0.5,0.4,1.1,0.4,1.8v11.1c0,0.6-0.1,1.1-0.3,1.6c-0.2,0.5-0.4,0.9-0.8,1.3c-0.3,0.4-0.7,0.6-1.1,0.9
		c-0.4,0.2-0.9,0.3-1.4,0.3c-0.5,0-1-0.1-1.4-0.3c-0.4-0.2-0.8-0.5-1.1-0.9c-0.3-0.4-0.6-0.8-0.7-1.3c-0.2-0.5-0.3-1-0.3-1.5V68.8
		c0-0.6,0.1-1.3,0.4-1.9C56.5,66.3,56.3,65.6,56.3,65z M59.9,65.6c0.2,0,0.4-0.1,0.5-0.2c0.1-0.1,0.2-0.3,0.2-0.5v-1.6
		c0-0.2,0-0.3-0.1-0.5c-0.1-0.1-0.3-0.2-0.4-0.2c-0.2,0-0.4,0.1-0.5,0.2c-0.1,0.1-0.2,0.3-0.2,0.5v1.6c0,0.2,0.1,0.3,0.2,0.5
		C59.6,65.5,59.8,65.6,59.9,65.6z M60.6,79.8V68.7c0-0.2-0.1-0.3-0.2-0.5c-0.1-0.1-0.3-0.2-0.4-0.2c-0.2,0-0.3,0.1-0.4,0.2
		c-0.1,0.1-0.2,0.3-0.2,0.5v11.1c0,0.2,0.1,0.3,0.2,0.5c0.1,0.2,0.3,0.2,0.4,0.2c0.2,0,0.3-0.1,0.4-0.2C60.5,80.1,60.6,80,60.6,79.8
		z"/>
	<path class="st0" d="M60.6,78.5c0-0.6,0.1-1.3,0.4-1.9c0.3-0.6,0.7-1.1,1.2-1.5c-0.4-0.5-0.7-1.1-1-1.7c-0.3-0.6-0.4-1.4-0.4-2.2
		c0-1.1,0.2-2,0.6-2.9c0.4-0.8,0.9-1.6,1.5-2.1c0.6-0.6,1.4-1,2.1-1.3c0.8-0.3,1.6-0.5,2.4-0.5c0.7,0,1.4,0.1,2.2,0.3
		c0.8,0.2,1.5,0.5,2.2,0.9c0.7,0.4,1.2,0.9,1.7,1.5c0.4,0.6,0.7,1.3,0.7,2.2c0,0.6-0.1,1.2-0.3,1.7c-0.2,0.5-0.6,1-1,1.3
		c0.5,0.5,0.9,1.2,1.3,1.9c0.3,0.8,0.5,1.6,0.5,2.6c0,1.2-0.2,2.2-0.6,3.1c-0.4,0.9-1,1.6-1.7,2.2c-0.7,0.6-1.4,1-2.2,1.2
		c-0.8,0.2-1.6,0.4-2.4,0.4c-0.7,0-1.5-0.1-2.3-0.3c-0.8-0.2-1.7-0.5-2.4-0.9c-0.7-0.4-1.4-1-1.9-1.6C60.8,80.2,60.6,79.4,60.6,78.5
		z M67.9,80.5c0.6,0,1.1-0.1,1.5-0.2c0.5-0.2,0.9-0.4,1.3-0.7c0.3-0.3,0.6-0.7,0.8-1.1c0.2-0.5,0.3-0.9,0.3-1.5
		c0-0.7-0.2-1.3-0.5-1.7s-0.7-0.8-1.3-1s-1-0.5-1.6-0.7c-0.6-0.2-1.1-0.4-1.6-0.6s-0.9-0.5-1.3-0.7c-0.3-0.2-0.5-0.6-0.5-1.1
		c0-0.5,0.2-1,0.7-1.4c0.4-0.4,1-0.6,1.8-0.6c0.5,0,1,0.1,1.4,0.2c0.5,0.2,1,0.4,1.4,0.6c0.1,0,0.2,0.1,0.4,0.1
		c0.2,0,0.3-0.1,0.4-0.2c0.1-0.1,0.2-0.3,0.2-0.5c0-0.2-0.1-0.5-0.4-0.7c-0.3-0.2-0.7-0.4-1.1-0.5c-0.4-0.1-0.8-0.2-1.3-0.3
		c-0.4-0.1-0.8-0.1-1-0.1c-0.6,0-1,0.1-1.5,0.2c-0.5,0.2-0.8,0.4-1.2,0.7c-0.3,0.3-0.6,0.7-0.8,1.1c-0.2,0.4-0.3,0.9-0.3,1.4
		c0,0.7,0.2,1.3,0.5,1.7s0.7,0.8,1.3,1s1,0.5,1.6,0.6c0.6,0.2,1.1,0.4,1.6,0.5c0.5,0.2,0.9,0.5,1.3,0.7c0.3,0.3,0.5,0.7,0.5,1.2
		c0,0.7-0.3,1.2-0.7,1.6c-0.5,0.4-1.1,0.6-2,0.6c-1.1,0-2.2-0.4-3.3-1.1c-0.1-0.1-0.3-0.2-0.4-0.2c-0.2,0-0.3,0.1-0.4,0.2
		c-0.1,0.2-0.2,0.3-0.2,0.5c0,0.3,0.2,0.5,0.5,0.8c0.3,0.2,0.8,0.5,1.2,0.6c0.5,0.2,1,0.3,1.4,0.4C67.2,80.4,67.6,80.5,67.9,80.5z"
		/>
	<path class="st0" d="M74,70.4c-0.3-0.6-0.4-1.2-0.4-1.8c0-0.6,0.1-1.1,0.3-1.6c0.2-0.5,0.4-0.8,0.7-1.1c0.3-0.3,0.6-0.6,0.9-0.7
		c0.3-0.2,0.6-0.3,0.8-0.4c0.8-0.2,1.8-0.4,3.1-0.4c1.1,0,2.1,0.2,3.1,0.6c1,0.4,1.8,0.9,2.5,1.6c0.7,0.7,1.2,1.6,1.6,2.5
		c0.4,1,0.6,2.1,0.6,3.3v7.2c0,0.5-0.1,1.1-0.3,1.6c-0.2,0.5-0.4,0.9-0.8,1.3c-0.3,0.4-0.7,0.6-1.1,0.9c-0.4,0.2-0.9,0.3-1.4,0.3
		c-0.6,0-1-0.1-1.5-0.4c-0.4,0.2-0.8,0.3-1.3,0.4c-0.5,0.1-1,0.1-1.5,0.1c-1,0-2-0.2-2.9-0.6c-0.9-0.4-1.7-0.9-2.4-1.6
		c-0.7-0.7-1.2-1.5-1.6-2.4c-0.4-0.9-0.6-2-0.6-3.2c0-1.2,0.2-2.3,0.6-3.2C72.8,71.8,73.4,71.1,74,70.4z M83.6,80.4
		c0.1,0,0.3-0.1,0.4-0.2c0.1-0.1,0.2-0.3,0.2-0.5v-7.2c0-1.3-0.4-2.5-1.3-3.4c-0.8-0.9-2-1.3-3.5-1.3c-0.8,0-1.5,0.1-2,0.2
		c-0.5,0.1-0.8,0.4-0.8,0.7c0,0.2,0,0.4,0.2,0.5c0.1,0.1,0.2,0.2,0.4,0.2c0.2,0,0.4,0,0.7-0.1c0.3-0.1,0.6-0.1,1.1-0.1
		c0.6,0,1.1,0.1,1.7,0.2c0.5,0.2,0.9,0.4,1.3,0.6c0.3,0.3,0.6,0.6,0.8,0.9s0.3,0.7,0.3,1.1v1.3c-0.2-0.2-0.4-0.3-0.6-0.6
		c-0.3-0.2-0.5-0.4-0.8-0.6c-0.3-0.2-0.6-0.3-1-0.5c-0.4-0.1-0.8-0.2-1.2-0.2c-0.6,0-1.1,0.1-1.7,0.3c-0.6,0.2-1,0.5-1.4,0.9
		c-0.4,0.4-0.7,0.9-1,1.4c-0.3,0.6-0.4,1.2-0.4,1.9c0,0.6,0.1,1.2,0.3,1.7c0.2,0.6,0.5,1,0.9,1.4c0.4,0.4,0.8,0.7,1.4,0.9
		c0.6,0.2,1.2,0.3,1.8,0.3c0.6,0,1.2-0.1,1.6-0.2c0.4-0.1,0.8-0.3,1.2-0.5c0.3-0.2,0.6-0.5,0.9-0.7l0,0.7c0,0.2,0.1,0.3,0.2,0.5
		C83.3,80.3,83.4,80.4,83.6,80.4z M82.9,76c0,0.5-0.1,0.9-0.3,1.3c-0.2,0.4-0.5,0.7-0.8,1c-0.3,0.3-0.7,0.5-1.1,0.6
		c-0.4,0.1-0.8,0.2-1.3,0.2c-0.4,0-0.9-0.1-1.3-0.2c-0.4-0.1-0.8-0.4-1.1-0.6s-0.6-0.6-0.7-1C76.1,77,76,76.6,76,76.1
		c0-0.5,0.1-0.9,0.3-1.3c0.2-0.4,0.4-0.7,0.8-1c0.3-0.3,0.7-0.5,1.1-0.6c0.4-0.2,0.8-0.2,1.3-0.2c0.4,0,0.8,0.1,1.3,0.2
		c0.4,0.1,0.8,0.3,1.1,0.6c0.3,0.3,0.6,0.6,0.8,1C82.8,75,82.9,75.5,82.9,76z"/>
</g>
</svg>
