<?xml version="1.0" encoding="utf-8"?>
<!-- Generator: Adobe Illustrator 20.1.0, SVG Export Plug-In . SVG Version: 6.00 Build 0)  -->
<svg version="1.1" id="Layer_1" xmlns="http://www.w3.org/2000/svg" xmlns:xlink="http://www.w3.org/1999/xlink" x="0px" y="0px"
	 viewBox="0 0 1024 1024" style="enable-background:new 0 0 1024 1024;" xml:space="preserve">
<style type="text/css">
	.st0{fill:#199F88;}
	.st1{fill:#FFFFFF;}
	.st2{fill:#F69321;stroke:#FFFFFF;stroke-width:0.5783;stroke-miterlimit:10;}
</style>
<rect class="st0" width="1024" height="1024"/>
<path class="st1" d="M0,465.2c54.9,8.5,110,21.1,165.2,25.2c110.3,7.9,221,7.2,331,18c72.5,6.9,123.7-31.8,155.4-96.7
	c37.5-77.5,89-131.7,150.3-179.3c31.1-24.3,58.2-56.7,87.5-85.7c55.5,43.8,52.4,82.9-2.4,126c-33.5,26.5-58.8,68.4-87.5,103.4
	c4.3,10.7,8.2,21.4,12.5,31.8c38.7,0,77.4,0,116.1,0c79.6,0,114.9,58.3,83.5,144.3c-22.9,62.4-50.3,123.2-80.5,180.9
	c-10.4,19.5-36.9,37.8-56.4,38.4c-204.5,6.6-409,6.3-613.6,14.8C174,790.1,87.5,809.9,0.6,822.5C0,703.1,0,584.3,0,465.2z"/>
<path class="st0" d="M770.8,711.6h-53c-2.4,0-4-1.6-4-4.1v-45.7c0-2.5,1.5-4.1,4-4.1h53c2.4,0,4,1.6,4,4.1v45.7
	C774.8,709.4,773.3,711.6,770.8,711.6z"/>
<rect x="761.7" y="657.7" class="st2" width="4" height="53.9"/>
<rect x="720.8" y="657.7" class="st2" width="4" height="53.9"/>
<path class="st0" d="M747.4,649.2h-7.9c-0.6,0-1.2,0.6-1.2,1.6v7.2h0.9v-6.3c0-0.6,0.3-1.3,0.9-1.3h6.1c0.6,0,0.9,0.6,0.9,1.3v6.3
	h0.9v-7.2C748.6,649.9,748,649.2,747.4,649.2z"/>
<path class="st0" d="M705,621.8c-0.6,0.9-1.2,1.6-1.2,2.5c-1.2,3.8-4,4.4-6.7,1.6c-2.4-2.5-4.3-5-6.1-8.2c-2.1-3.5-4-6.9-5.5-10.4
	c-0.9-2.5-0.6-5-0.9-7.6c0-0.9-0.3-1.6-0.6-2.8c-0.3-1.6-0.9-3.2-1.5-4.7c1.5-0.3,3.4-0.9,5.2-1.3c0.6,0,1.2,0.6,2.1,1.3
	c1.5,2.8,3.4,5.7,4.9,8.8c0.6,0.9,1.5,2.2,2.4,3.2c-1.2,0.9-3,1.6-4.6,2.8c-0.6,0.3-0.9,0.9-0.9,1.6c-0.3,1.6,4,6.3,5.2,6.3
	c0.3,0,1.2-0.6,1.2-1.3c0.9-6.3,2.7-12,2.1-18.6c-0.3-3.5,0.3-7.2,3.4-9.5c0.3-0.3,0.6-1.3,0.6-2.2c0-1.6,0-3.2,0-4.7
	c0-1.6-0.3-2.8-2.1-3.8c-3.4-2.2-4.3-8.2-2.7-12.9c2.1-5,4.9-9.5,11-11c0.3,0,0.6,0,0.9-0.3c3.4-3.2,6.1-2.5,8.8,0.9
	c0.6,0.6,2.1,0.9,3,1.3c2.4,0.9,4.9,2.2,7.3,3.8c5.2,3.8,6.1,11.7,1.5,16.4c-0.9,0.9-2.1,1.6-3,2.8c-1.5,1.6-1.2,4.1,0.6,5
	c2.7,1.3,5.2,2.5,6.4,5c1.5,4.4,2.7,8.8,2.1,13.5c-0.6,3.2-0.9,6.6-1.2,10.1c0,0.9,0.6,2.5,0.9,3.8c-2.7,1.6-2.7,4.7-2.7,7.9
	c0,2.5-0.3,4.7,0,6.9c0.3,2.8,1.2,5,1.5,7.9c0.6,5,1.5,10.7-0.3,15.8c-0.6,1.6-2.1,2.5-3.7,1.3c-1.5-1.3-3.4-0.9-5.2-0.6
	c-10.1,1.3-19.5,4.4-29.9,3.8c-0.6,0-1.5,0.3-2.7,0.6c-2.4,0.9-4.6,2.2-6.7,3.5c-0.9,0.6-1.5,2.2-1.5,3.2c0.6,5.7-1.2,11-2.7,16.1
	c-0.9,4.1-3,8.2-4,12.3c-0.9,4.7-3,10.1-0.9,15.1c0.3,0.9,0.3,2.2,0.3,3.2c0,5-3.4,7.6-7.9,5.4c-0.6-0.3-1.5,0-2.1,0.3
	c-3.4,3.2-7.6,2.2-11.3,1.6c-2.1-0.3-4-2.2-6.1-3.2c-0.3-0.3-0.3-1.6,0-1.6c0.9-0.6,2.4-1.6,3.4-1.6c2.4-0.3,4.3-1.3,5.5-3.2
	c1.5-2.8,3.4-6.3,4.9-8.8c0.3-0.3,0.3-0.9,0.9-1.3c4.6-3.5,6.1-8.5,6.4-14.2c0.3-1.6,0.3-3.5,0.3-5c0-1.3,0.3-3.2,0-4.4
	c-1.5,2.5-3,5-4.6,7.2c-2.7,3.5-5.5,6.3-8.5,9.1c-2.4,2.5-4,5-6.1,7.9c-1.2,1.6-2.7,3.8-3.4,5.4c-0.6,2.2-0.3,4.1-0.9,6.3
	c-0.3,1.6-0.9,3.2-2.1,4.7c-0.6,1.3-2.1,2.2-3.7,1.3c-1.2-0.6-3-0.6-4.3-1.3c-0.6-0.3-1.2-1.6-1.5-2.5c-0.3-0.3-0.6-1.3-1.2-1.3
	c-1.5-0.3-3.4-0.6-5.2-0.6c-5.2,0-8.8-2.5-11.6-6.6c-0.3-0.6-0.9-2.2-0.6-2.5c0.9-0.9,2.1-1.3,3.4-2.2c0.3-0.3,1.2,0.3,1.5,0.6
	c5.5,2.5,8.8,1.6,13.1-3.2c1.2-1.3,3-2.2,4.9-2.8c3-1.3,6.4-3.8,7.9-6.6c4-5.7,7.3-12.3,11-18.6c1.5-3.2,3.4-6.3,4.9-9.1
	c1.2-2.8,2.4-5.7,6.1-7.2c0.9-0.3,2.1-1.6,2.4-2.8c0.6-4.4,3.7-6.3,7.6-7.2c0.9-0.3,2.4-0.9,2.7-2.2c1.5-4.1,4.6-5.7,8.8-6.3
	c4-0.3,7.3-2.2,9.1-6.3c0.3-0.3,0.6-0.6,0.9-0.9c2.4-1.6,3-4.1,4-6.6c0-0.3,0-0.6,0-0.9c-0.6-0.9-1.2-1.6-2.1-2.8
	c-0.3,0.3-0.9,0.6-0.9,0.9C704.4,619.3,703.2,621.2,705,621.8z"/>
<g>
	<path class="st0" d="M162.5,695.9V567c0-4.1,0.6-7.9,2.4-11.7c1.5-3.8,3.7-6.9,6.1-9.8c2.4-2.8,5.8-5,9.4-6.6
		c3.7-1.6,7.6-2.5,11.9-2.5c4.3,0,7.9,0.9,11.6,2.5c3.7,1.6,6.7,3.8,9.4,6.6c2.7,2.8,4.9,6,6.4,9.8c1.5,3.8,2.4,7.6,2.4,12v128.9
		c0,4.4-0.9,8.5-2.4,12.3c-1.5,3.8-3.7,6.9-6.4,9.8c-2.7,2.8-5.8,4.7-9.4,6.3c-3.7,1.6-7.3,2.5-11.3,2.5c-4.3,0-7.9-0.9-11.6-2.5
		c-3.7-1.6-6.7-3.8-9.4-6.6c-2.7-2.8-4.9-6-6.4-9.8C163.1,704.1,162.5,700.3,162.5,695.9z M192,701.2c1.5,0,2.4-0.6,3.7-1.6
		c0.9-0.9,1.5-2.2,1.5-3.8V567c0-1.6-0.6-2.8-1.5-3.8c-0.9-0.9-2.1-1.3-3.7-1.3s-2.4,0.3-3.7,1.3c-0.9,0.9-1.5,2.2-1.5,3.8v128.9
		c0,1.6,0.6,2.5,1.5,3.8C189.6,700.6,190.8,701.2,192,701.2z"/>
	<path class="st0" d="M215.5,623.4c-2.1-4.4-3-9.1-3-13.9c0-4.4,0.9-8.5,2.4-12s3.7-6.3,5.8-8.5s4.6-4.4,7.3-5.7
		c2.4-1.6,4.6-2.5,6.4-2.8c7-1.9,15.2-3.2,25.6-3.2c9.1,0,17.7,1.6,25.6,4.4c7.9,3.2,14.6,7.2,20.4,12.6c5.8,5.4,10.1,12,13.4,19.5
		c3.4,7.6,4.9,16.1,4.9,25.2v55.8c0,4.1-0.9,8.2-2.4,12c-1.5,3.8-3.7,6.9-6.4,9.8c-2.7,2.8-5.8,5-9.4,6.6c-3.7,1.6-7.3,2.5-11.6,2.5
		c-4.6,0-8.5-0.9-12.2-2.8c-3.4,1.3-7,2.2-11,2.8c-4,0.6-8.2,0.9-12.8,0.9c-8.5,0-16.5-1.6-23.8-4.4c-7.6-2.8-14-6.9-19.8-12.3
		c-5.8-5.4-10.1-11.7-13.4-18.9c-3.4-7.2-4.9-15.4-4.9-24.6c0-9.5,1.8-17.6,5.2-24.9C205.1,634.4,210,628.4,215.5,623.4z
		 M294.4,700.3c1.2,0,2.4-0.6,3.7-1.6c0.9-0.9,1.5-2.2,1.5-3.8v-55.8c0-10.4-3.4-19.2-10.4-26.2s-16.8-10.4-29.3-10.4
		c-7,0-12.5,0.6-16.5,1.6c-4.3,0.9-6.4,2.8-6.4,5.4c0,1.6,0.3,2.8,1.5,3.8c0.9,0.9,1.8,1.3,3,1.3c1.5,0,3.7-0.3,5.8-0.9
		c2.1-0.6,5.2-0.9,9.1-0.9c4.9,0,9.4,0.6,13.7,1.9c4,1.3,7.3,2.8,10.4,5c2.7,2.2,4.9,4.4,6.4,7.2c1.5,2.8,2.4,5.7,2.4,8.2v10.4
		c-1.5-1.3-3.4-2.5-5.2-4.4c-2.1-1.6-4.3-3.2-6.7-4.4c-2.4-1.3-5.2-2.5-8.2-3.5c-3-0.9-6.4-1.3-10.1-1.3c-4.9,0-9.4,0.6-13.7,2.2
		c-4.6,1.6-8.5,3.8-11.9,6.6c-3.4,3.2-6.1,6.6-8.2,11c-2.1,4.4-3,9.1-3,14.5c0,5,0.9,9.5,2.7,13.5c1.8,4.4,4.3,7.9,7.6,11
		c3,3.2,7,5.4,11.6,7.2c4.6,1.9,9.8,2.5,15.2,2.5c5.2,0,9.8-0.6,13.4-1.6c3.7-0.9,7-2.5,9.8-3.8c2.7-1.6,5.2-3.5,7.3-5.7l0.3,5.4
		c0,1.6,0.6,2.5,1.8,3.5C292.3,699.7,293.2,700.3,294.4,700.3z M288.9,666.6c0,3.8-0.9,7.2-2.4,10.4c-1.8,3.2-4,5.7-6.7,7.9
		c-2.7,2.2-6.1,3.8-9.4,4.7c-3.7,0.9-7,1.6-10.7,1.6s-7.3-0.6-10.7-1.6c-3.4-0.9-6.4-2.8-8.8-4.7c-2.4-1.9-4.6-4.7-6.1-7.6
		s-2.4-6.3-2.4-9.8c0-3.8,0.9-7.2,2.4-10.4c1.5-3.2,3.7-5.7,6.4-7.9c2.4-2.2,5.5-3.8,9.1-5c3.7-1.3,7-1.9,10.4-1.9
		c3.4,0,6.7,0.6,10.4,1.6c3.4,0.9,6.7,2.5,9.4,4.7s5.2,4.7,7,7.6C288,659,288.9,662.8,288.9,666.6z"/>
	<path class="st0" d="M299.6,581.2v-12.6c0-4.4,0.9-8.8,2.4-12.6c1.5-3.8,4-6.9,6.7-9.8c2.7-2.5,6.1-4.7,9.4-6.3
		c3.7-1.6,7.3-2.2,11.6-2.2s7.9,0.9,11.6,2.5c3.7,1.6,6.7,3.8,9.4,6.6c2.7,2.8,4.9,6,6.4,9.8s2.4,7.6,2.4,12v12.6
		c0,5.4-1.2,10.4-3.7,14.8c2.4,4.1,3.4,8.8,3.4,14.2v85.7c0,4.4-0.9,8.2-2.4,12c-1.5,3.8-3.7,6.9-6.4,9.8c-2.7,2.8-5.8,5-9.4,6.6
		c-3.7,1.6-7.6,2.5-11.6,2.5c-4.3,0-8.2-0.9-11.9-2.5c-3.7-1.6-6.7-3.8-9.4-6.6c-2.7-2.8-4.9-6-6.1-9.8c-1.5-3.8-2.1-7.6-2.1-11.7
		v-85.7c0-5,1.2-9.8,3.4-14.5C300.8,591.3,299.6,586.2,299.6,581.2z M329.2,586.2c1.5,0,3-0.6,4-1.6c0.9-0.9,1.5-2.2,1.5-3.8v-12.6
		c0-1.6-0.3-2.5-1.2-3.8c-0.9-0.9-2.1-1.6-3.7-1.6c-1.8,0-3,0.6-4,1.6s-1.5,2.2-1.5,3.8v12.6c0,1.6,0.6,2.5,1.5,3.8
		C326.7,585.6,328,586.2,329.2,586.2z M334.7,695.9v-85.7c0-1.6-0.6-2.5-1.5-3.8c-0.9-0.9-2.1-1.6-3.7-1.6c-1.5,0-2.7,0.6-3.7,1.6
		s-1.5,2.2-1.5,3.8v85.7c0,1.6,0.6,2.5,1.5,3.8c0.9,1.3,2.1,1.6,3.4,1.6c1.5,0,2.7-0.6,3.7-1.6C334.1,698.4,334.7,697.4,334.7,695.9
		z"/>
	<path class="st0" d="M334.7,686.1c0-5,1.2-9.8,3.7-14.5c2.4-4.7,5.8-8.5,10.1-11.3c-3.4-3.8-6.1-8.5-7.9-13.2c-2.1-5-3-10.7-3-17.3
		c0-8.2,1.5-15.8,4.9-22.1c3-6.3,7.3-12,12.8-16.4c5.2-4.4,11.3-7.9,17.7-10.4c6.7-2.5,13.4-3.5,20.1-3.5c5.8,0,11.9,0.6,18.6,2.2
		c6.4,1.6,12.5,3.8,18.3,6.9c5.5,3.2,10.1,6.9,13.7,11.7c3.7,4.7,5.5,10.4,5.5,17c0,4.7-0.9,9.1-2.7,13.2c-1.8,4.1-4.6,7.6-7.9,10.4
		c4.3,4.1,7.6,9.1,10.4,14.8c2.7,6,4,12.6,4,20.2c0,9.1-1.8,17-5.2,23.6c-3.7,6.6-7.9,12.3-13.7,16.7c-5.5,4.4-11.9,7.6-18.6,9.5
		c-6.7,1.9-13.4,3.2-19.8,3.2c-5.8,0-12.2-0.9-19.2-2.5c-7-1.6-13.7-4.1-19.8-7.2s-11.3-7.6-15.5-12.6
		C336.8,699,334.7,693,334.7,686.1z M395.6,701.2c4.6,0,8.8-0.6,12.8-1.9c4-1.3,7.3-3.2,10.4-5.4c2.7-2.5,5.2-5.4,7-8.5
		c1.5-3.5,2.4-7.2,2.4-11.3c0-5.7-1.5-10.1-4.3-13.2s-6.1-6-10.4-7.9c-4.3-1.9-8.5-3.8-13.4-5.4c-4.9-1.3-9.1-2.8-13.4-4.4
		c-4.3-1.6-7.6-3.5-10.4-5.4c-2.7-1.9-4.3-5-4.3-8.8c0-4.1,1.8-7.9,5.5-11c3.7-3.2,8.5-4.7,14.6-4.7c4,0,7.9,0.6,11.9,1.9
		c4,1.3,7.9,2.8,11.9,5c0.9,0.3,1.8,0.6,3,0.6c1.5,0,2.4-0.6,3.7-1.6c0.9-0.9,1.5-2.2,1.5-3.8c0-1.9-1.2-3.8-3.7-5.4
		c-2.4-1.6-5.5-2.8-8.8-3.8c-3.4-0.9-6.7-1.9-10.4-2.5c-3.7-0.6-6.4-0.9-8.2-0.9c-4.6,0-8.5,0.6-12.2,1.9c-4,1.3-7,3.2-9.8,5.7
		c-2.7,2.5-4.9,5.4-6.4,8.5s-2.4,6.9-2.4,10.7c0,5.4,1.5,9.8,4.3,12.9s6.1,6,10.4,7.9c4.3,1.9,8.5,3.5,13.4,4.7
		c4.6,1.3,9.1,2.8,13.1,4.1c4.3,1.6,7.6,3.5,10.4,5.7c2.7,2.2,4.3,5.4,4.3,9.5c0,5.4-2.1,9.1-5.8,12.3c-4,2.8-9.4,4.4-16.2,4.4
		c-9.4,0-18.6-2.8-27.4-8.8c-1.2-0.9-2.4-1.3-3.7-1.3c-1.5,0-2.4,0.6-3.7,1.6c-0.9,1.3-1.5,2.2-1.5,3.5c0,2.2,1.5,4.1,4.3,6
		s6.4,3.5,10.1,4.7c4,1.3,7.9,2.2,11.9,3.2C389.8,700.6,393.2,701.2,395.6,701.2z"/>
	<path class="st0" d="M446.2,623.4c-2.1-4.4-3-9.1-3-13.9c0-4.4,0.9-8.5,2.4-12s3.7-6.3,5.8-8.5s4.6-4.4,7.3-5.7
		c2.4-1.6,4.6-2.5,6.4-2.8c7-1.9,15.2-3.2,25.6-3.2c9.1,0,17.7,1.6,25.6,4.4c7.9,3.2,14.6,7.2,20.4,12.6c5.8,5.4,10.1,12,13.4,19.5
		c3.4,7.6,4.9,16.1,4.9,25.2v55.8c0,4.1-0.9,8.2-2.4,12s-3.7,6.9-6.4,9.8c-2.7,2.8-5.8,5-9.4,6.6c-3.7,1.6-7.3,2.5-11.6,2.5
		c-4.6,0-8.5-0.9-12.2-2.8c-3.4,1.3-7,2.2-11,2.8c-4,0.6-8.2,0.9-12.8,0.9c-8.5,0-16.5-1.6-23.8-4.4c-7.6-2.8-14-6.9-19.8-12.3
		c-5.8-5.4-10.1-11.7-13.4-18.9c-3.4-7.2-4.9-15.4-4.9-24.6c0-9.5,1.8-17.6,5.2-24.9C435.9,634.4,441,628.4,446.2,623.4z
		 M525.5,700.3c1.2,0,2.4-0.6,3.7-1.6c0.9-0.9,1.5-2.2,1.5-3.8v-55.8c0-10.4-3.4-19.2-10.4-26.2s-16.8-10.4-29.3-10.4
		c-7,0-12.5,0.6-16.5,1.6c-4.3,0.9-6.4,2.8-6.4,5.4c0,1.6,0.3,2.8,1.5,3.8c0.9,0.9,1.8,1.3,3,1.3c1.5,0,3.7-0.3,5.8-0.9
		c2.1-0.6,5.2-0.9,9.1-0.9c4.9,0,9.4,0.6,13.7,1.9c4,1.3,7.3,2.8,10.4,5c2.7,2.2,4.9,4.4,6.4,7.2c1.5,2.8,2.4,5.7,2.4,8.2v10.4
		c-1.5-1.3-3.4-2.5-5.2-4.4c-2.1-1.6-4.3-3.2-6.7-4.4c-2.4-1.3-5.2-2.5-8.2-3.5c-3-0.9-6.4-1.3-10.1-1.3c-4.9,0-9.4,0.6-13.7,2.2
		c-4.6,1.6-8.5,3.8-11.9,6.6c-3.4,3.2-6.1,6.6-8.2,11c-2.1,4.4-3,9.1-3,14.5c0,5,0.9,9.5,2.7,13.5c1.8,4.4,4.3,7.9,7.6,11
		c3,3.2,7,5.4,11.6,7.2c4.6,1.9,9.8,2.5,15.2,2.5c5.2,0,9.8-0.6,13.4-1.6c3.7-0.9,7-2.5,9.8-3.8c2.7-1.6,5.2-3.5,7.3-5.7l0.3,5.4
		c0,1.6,0.6,2.5,1.8,3.5C523,699.7,524.3,700.3,525.5,700.3z M520,666.6c0,3.8-0.9,7.2-2.4,10.4c-1.8,3.2-4,5.7-6.7,7.9
		c-2.7,2.2-6.1,3.8-9.4,4.7c-3.7,0.9-7,1.6-10.7,1.6s-7.3-0.6-10.7-1.6c-3.4-0.9-6.4-2.8-8.8-4.7c-2.4-1.9-4.6-4.7-6.1-7.6
		s-2.4-6.3-2.4-9.8c0-3.8,0.9-7.2,2.4-10.4c1.5-3.2,3.7-5.7,6.4-7.9c2.4-2.2,5.5-3.8,9.1-5c3.7-1.3,7-1.9,10.4-1.9
		c3.4,0,6.7,0.6,10.4,1.6c3.4,0.9,6.7,2.5,9.4,4.7c2.7,2.2,5.2,4.7,7,7.6C519.1,659,520,662.8,520,666.6z"/>
</g>
</svg>
