<?xml version="1.0" encoding="utf-8"?>
<!-- Generator: Adobe Illustrator 20.1.0, SVG Export Plug-In . SVG Version: 6.00 Build 0)  -->
<svg version="1.1" id="Layer_1" xmlns="http://www.w3.org/2000/svg" xmlns:xlink="http://www.w3.org/1999/xlink" x="0px" y="0px"
	 viewBox="0 0 1024 500" style="enable-background:new 0 0 1024 500;" xml:space="preserve">
<style type="text/css">
	.st0{fill:#199F88;}
	.st1{fill:#00826B;}
	.st2{fill:#FFFFFF;}
	.st3{fill:#F69321;stroke:#FFFFFF;stroke-width:0.274;stroke-miterlimit:10;}
</style>
<rect x="-4" class="st0" width="1033.6" height="500.8"/>
<polyline class="st1" points="1108.1,475.8 703,112 615.9,201.3 562.9,322 244.8,402.9 651.1,768 "/>
<path class="st2" d="M244.5,242.4c27.4,3.8,55,9.5,82.6,11.3c55.1,3.5,110.4,3.2,165.4,8.1c36.2,3.1,61.8-14.3,77.7-43.4
	c18.7-34.8,44.5-59.2,75.1-80.6c15.5-10.9,29.1-25.5,43.7-38.5c27.7,19.7,26.2,37.2-1.2,56.6c-16.7,11.9-29.4,30.7-43.7,46.5
	c2.1,4.8,4.1,9.6,6.2,14.3c19.3,0,38.7,0,58,0c39.8,0,57.4,26.2,41.7,64.8c-11.4,28-25.1,55.3-40.2,81.3c-5.2,8.8-18.4,17-28.2,17.3
	c-102.2,3-204.4,2.8-306.7,6.6c-43.5,1.7-86.8,10.6-130.2,16.3C244.5,349.3,244.5,295.9,244.5,242.4z"/>
<path class="st0" d="M629.7,353.1h-26.5c-1.2,0-2-0.7-2-1.8v-20.5c0-1.1,0.7-1.8,2-1.8h26.5c1.2,0,2,0.7,2,1.8v20.5
	C631.7,352.1,630.9,353.1,629.7,353.1z"/>
<rect x="625.1" y="328.9" class="st3" width="2" height="24.2"/>
<rect x="604.7" y="328.9" class="st3" width="2" height="24.2"/>
<path class="st0" d="M618,325.1H614c-0.3,0-0.6,0.3-0.6,0.7v3.2h0.4v-2.8c0-0.3,0.1-0.6,0.4-0.6h3c0.3,0,0.4,0.3,0.4,0.6v2.8h0.4
	v-3.2C618.6,325.4,618.3,325.1,618,325.1z"/>
<path class="st0" d="M596.8,312.8c-0.3,0.4-0.6,0.7-0.6,1.1c-0.6,1.7-2,2-3.3,0.7c-1.2-1.1-2.1-2.2-3-3.7c-1-1.6-2-3.1-2.7-4.7
	c-0.4-1.1-0.3-2.2-0.4-3.4c0-0.4-0.1-0.7-0.3-1.3c-0.1-0.7-0.4-1.4-0.7-2.1c0.7-0.1,1.7-0.4,2.6-0.6c0.3,0,0.6,0.3,1,0.6
	c0.7,1.3,1.7,2.6,2.4,4c0.3,0.4,0.7,1,1.2,1.4c-0.6,0.4-1.5,0.7-2.3,1.3c-0.3,0.1-0.4,0.4-0.4,0.7c-0.1,0.7,2,2.8,2.6,2.8
	c0.1,0,0.6-0.3,0.6-0.6c0.4-2.8,1.3-5.4,1-8.4c-0.1-1.6,0.1-3.2,1.7-4.3c0.1-0.1,0.3-0.6,0.3-1c0-0.7,0-1.4,0-2.1
	c0-0.7-0.1-1.3-1-1.7c-1.7-1-2.1-3.7-1.3-5.8c1-2.2,2.4-4.3,5.5-4.9c0.1,0,0.3,0,0.4-0.1c1.7-1.4,3-1.1,4.4,0.4
	c0.3,0.3,1,0.4,1.5,0.6c1.2,0.4,2.4,1,3.6,1.7c2.6,1.7,3,5.3,0.7,7.4c-0.4,0.4-1,0.7-1.5,1.3c-0.7,0.7-0.6,1.8,0.3,2.2
	c1.3,0.6,2.6,1.1,3.2,2.2c0.7,2,1.3,4,1,6.1c-0.3,1.4-0.4,3-0.6,4.5c0,0.4,0.3,1.1,0.4,1.7c-1.3,0.7-1.3,2.1-1.3,3.5
	c0,1.1-0.1,2.1,0,3.1c0.1,1.3,0.6,2.2,0.7,3.5c0.3,2.2,0.7,4.8-0.1,7.1c-0.3,0.7-1,1.1-1.8,0.6c-0.7-0.6-1.7-0.4-2.6-0.3
	c-5,0.6-9.7,2-14.9,1.7c-0.3,0-0.7,0.1-1.3,0.3c-1.2,0.4-2.3,1-3.3,1.6c-0.4,0.3-0.7,1-0.7,1.4c0.3,2.6-0.6,4.9-1.3,7.2
	c-0.4,1.8-1.5,3.7-2,5.5c-0.4,2.1-1.5,4.5-0.4,6.8c0.1,0.4,0.1,1,0.1,1.4c0,2.2-1.7,3.4-3.9,2.4c-0.3-0.1-0.7,0-1,0.1
	c-1.7,1.4-3.8,1-5.6,0.7c-1-0.1-2-1-3-1.4c-0.1-0.1-0.1-0.7,0-0.7c0.4-0.3,1.2-0.7,1.7-0.7c1.2-0.1,2.1-0.6,2.7-1.4
	c0.7-1.3,1.7-2.8,2.4-4c0.1-0.1,0.1-0.4,0.4-0.6c2.3-1.6,3-3.8,3.2-6.4c0.1-0.7,0.1-1.6,0.1-2.2c0-0.6,0.1-1.4,0-2
	c-0.7,1.1-1.5,2.2-2.3,3.2c-1.3,1.6-2.7,2.8-4.2,4.1c-1.2,1.1-2,2.2-3,3.5c-0.6,0.7-1.3,1.7-1.7,2.4c-0.3,1-0.1,1.8-0.4,2.8
	c-0.1,0.7-0.4,1.4-1,2.1c-0.3,0.6-1,1-1.8,0.6c-0.6-0.3-1.5-0.3-2.1-0.6c-0.3-0.1-0.6-0.7-0.7-1.1c-0.1-0.1-0.3-0.6-0.6-0.6
	c-0.7-0.1-1.7-0.3-2.6-0.3c-2.6,0-4.4-1.1-5.8-3c-0.1-0.3-0.4-1-0.3-1.1c0.4-0.4,1-0.6,1.7-1c0.1-0.1,0.6,0.1,0.7,0.3
	c2.7,1.1,4.4,0.7,6.5-1.4c0.6-0.6,1.5-1,2.4-1.3c1.5-0.6,3.2-1.7,3.9-3c2-2.6,3.6-5.5,5.5-8.4c0.7-1.4,1.7-2.8,2.4-4.1
	c0.6-1.3,1.2-2.6,3-3.2c0.4-0.1,1-0.7,1.2-1.3c0.3-2,1.8-2.8,3.8-3.2c0.4-0.1,1.2-0.4,1.3-1c0.7-1.8,2.3-2.6,4.4-2.8
	c2-0.1,3.6-1,4.5-2.8c0.1-0.1,0.3-0.3,0.4-0.4c1.2-0.7,1.5-1.8,2-3c0-0.1,0-0.3,0-0.4c-0.3-0.4-0.6-0.7-1-1.3
	c-0.1,0.1-0.4,0.3-0.4,0.4C596.5,311.7,595.9,312.5,596.8,312.8z"/>
<g>
	<path class="st0" d="M325.7,346.1v-57.9c0-1.8,0.3-3.5,1.2-5.3c0.7-1.7,1.8-3.1,3-4.4c1.2-1.3,2.9-2.2,4.7-3
		c1.8-0.7,3.8-1.1,5.9-1.1c2.1,0,3.9,0.4,5.8,1.1c1.8,0.7,3.3,1.7,4.7,3c1.3,1.3,2.4,2.7,3.2,4.4c0.7,1.7,1.2,3.4,1.2,5.4v57.9
		c0,2-0.4,3.8-1.2,5.5c-0.7,1.7-1.8,3.1-3.2,4.4c-1.3,1.3-2.9,2.1-4.7,2.8c-1.8,0.7-3.6,1.1-5.6,1.1c-2.1,0-3.9-0.4-5.8-1.1
		c-1.8-0.7-3.3-1.7-4.7-3s-2.4-2.7-3.2-4.4C326,349.8,325.7,348,325.7,346.1z M340.4,348.5c0.7,0,1.2-0.3,1.8-0.7
		c0.4-0.4,0.7-1,0.7-1.7v-57.9c0-0.7-0.3-1.3-0.7-1.7c-0.4-0.4-1-0.6-1.8-0.6s-1.2,0.1-1.8,0.6c-0.4,0.4-0.7,1-0.7,1.7v57.9
		c0,0.7,0.3,1.1,0.7,1.7C339.2,348.2,339.8,348.5,340.4,348.5z"/>
	<path class="st0" d="M352.2,313.5c-1-2-1.5-4.1-1.5-6.2c0-2,0.4-3.8,1.2-5.4c0.7-1.6,1.8-2.8,2.9-3.8c1-1,2.3-2,3.6-2.6
		c1.2-0.7,2.3-1.1,3.2-1.3c3.5-0.9,7.6-1.4,12.8-1.4c4.5,0,8.8,0.7,12.8,2c3.9,1.4,7.3,3.2,10.2,5.7c2.9,2.4,5,5.4,6.7,8.8
		c1.7,3.4,2.4,7.2,2.4,11.3v25.1c0,1.8-0.4,3.7-1.2,5.4c-0.7,1.7-1.8,3.1-3.2,4.4c-1.3,1.3-2.9,2.2-4.7,3c-1.8,0.7-3.6,1.1-5.8,1.1
		c-2.3,0-4.2-0.4-6.1-1.3c-1.7,0.6-3.5,1-5.5,1.3c-2,0.3-4.1,0.4-6.4,0.4c-4.2,0-8.2-0.7-11.9-2c-3.8-1.3-7-3.1-9.9-5.5
		c-2.9-2.4-5-5.3-6.7-8.5c-1.7-3.2-2.4-6.9-2.4-11.1c0-4.3,0.9-7.9,2.6-11.2C347,318.4,349.4,315.7,352.2,313.5z M391.6,348
		c0.6,0,1.2-0.3,1.8-0.7c0.4-0.4,0.7-1,0.7-1.7v-25.1c0-4.7-1.7-8.6-5.2-11.8c-3.5-3.1-8.4-4.7-14.6-4.7c-3.5,0-6.2,0.3-8.2,0.7
		c-2.1,0.4-3.2,1.3-3.2,2.4c0,0.7,0.1,1.3,0.7,1.7c0.4,0.4,0.9,0.6,1.5,0.6c0.7,0,1.8-0.1,2.9-0.4c1-0.3,2.6-0.4,4.5-0.4
		c2.4,0,4.7,0.3,6.8,0.9c2,0.6,3.6,1.3,5.2,2.2c1.3,1,2.4,2,3.2,3.2c0.7,1.3,1.2,2.6,1.2,3.7v4.7c-0.7-0.6-1.7-1.1-2.6-2
		c-1-0.7-2.1-1.4-3.3-2c-1.2-0.6-2.6-1.1-4.1-1.6c-1.5-0.4-3.2-0.6-5-0.6c-2.4,0-4.7,0.3-6.8,1c-2.3,0.7-4.2,1.7-5.9,3
		c-1.7,1.4-3,3-4.1,4.9s-1.5,4.1-1.5,6.5c0,2.2,0.4,4.3,1.3,6.1c0.9,2,2.1,3.5,3.8,4.9c1.5,1.4,3.5,2.4,5.8,3.2
		c2.3,0.9,4.9,1.1,7.6,1.1c2.6,0,4.9-0.3,6.7-0.7c1.8-0.4,3.5-1.1,4.9-1.7c1.3-0.7,2.6-1.6,3.6-2.6l0.1,2.4c0,0.7,0.3,1.1,0.9,1.6
		C390.5,347.8,391,348,391.6,348z M388.8,332.9c0,1.7-0.4,3.2-1.2,4.7c-0.9,1.4-2,2.6-3.3,3.5c-1.3,1-3,1.7-4.7,2.1
		c-1.8,0.4-3.5,0.7-5.3,0.7s-3.6-0.3-5.3-0.7c-1.7-0.4-3.2-1.3-4.4-2.1c-1.2-0.9-2.3-2.1-3-3.4c-0.7-1.3-1.2-2.8-1.2-4.4
		c0-1.7,0.4-3.2,1.2-4.7c0.7-1.4,1.8-2.6,3.2-3.5c1.2-1,2.7-1.7,4.5-2.2c1.8-0.6,3.5-0.9,5.2-0.9c1.7,0,3.3,0.3,5.2,0.7
		c1.7,0.4,3.3,1.1,4.7,2.1c1.3,1,2.6,2.1,3.5,3.4C388.4,329.5,388.8,331.2,388.8,332.9z"/>
	<path class="st0" d="M394.2,294.5v-5.7c0-2,0.4-4,1.2-5.7c0.7-1.7,2-3.1,3.3-4.4c1.3-1.1,3-2.1,4.7-2.8c1.8-0.7,3.6-1,5.8-1
		c2.1,0,3.9,0.4,5.8,1.1c1.8,0.7,3.3,1.7,4.7,3s2.4,2.7,3.2,4.4c0.7,1.7,1.2,3.4,1.2,5.4v5.7c0,2.4-0.6,4.7-1.8,6.6
		c1.2,1.8,1.7,4,1.7,6.4v38.5c0,2-0.4,3.7-1.2,5.4c-0.7,1.7-1.8,3.1-3.2,4.4c-1.3,1.3-2.9,2.2-4.7,3c-1.8,0.7-3.8,1.1-5.8,1.1
		c-2.1,0-4.1-0.4-5.9-1.1c-1.8-0.7-3.3-1.7-4.7-3c-1.3-1.3-2.4-2.7-3-4.4c-0.7-1.7-1-3.4-1-5.3v-38.5c0-2.2,0.6-4.4,1.7-6.5
		C394.8,299.1,394.2,296.8,394.2,294.5z M409,296.8c0.7,0,1.5-0.3,2-0.7c0.4-0.4,0.7-1,0.7-1.7v-5.7c0-0.7-0.1-1.1-0.6-1.7
		c-0.4-0.4-1-0.7-1.8-0.7c-0.9,0-1.5,0.3-2,0.7c-0.5,0.4-0.7,1-0.7,1.7v5.7c0,0.7,0.3,1.1,0.7,1.7
		C407.7,296.5,408.4,296.8,409,296.8z M411.7,346.1v-38.5c0-0.7-0.3-1.1-0.7-1.7c-0.4-0.4-1-0.7-1.8-0.7c-0.7,0-1.3,0.3-1.8,0.7
		c-0.5,0.4-0.7,1-0.7,1.7v38.5c0,0.7,0.3,1.1,0.7,1.7c0.4,0.6,1,0.7,1.7,0.7c0.7,0,1.3-0.3,1.8-0.7
		C411.4,347.2,411.7,346.7,411.7,346.1z"/>
	<path class="st0" d="M411.7,341.7c0-2.2,0.6-4.4,1.8-6.5c1.2-2.1,2.9-3.8,5-5.1c-1.7-1.7-3-3.8-3.9-5.9c-1-2.2-1.5-4.8-1.5-7.8
		c0-3.7,0.7-7.1,2.4-9.9c1.5-2.8,3.6-5.4,6.4-7.4c2.6-2,5.6-3.5,8.8-4.7c3.3-1.1,6.7-1.6,10-1.6c2.9,0,5.9,0.3,9.3,1
		c3.2,0.7,6.2,1.7,9.1,3.1c2.7,1.4,5,3.1,6.8,5.3c1.8,2.1,2.7,4.7,2.7,7.6c0,2.1-0.4,4.1-1.3,5.9c-0.9,1.8-2.3,3.4-3.9,4.7
		c2.1,1.8,3.8,4.1,5.2,6.6c1.3,2.7,2,5.7,2,9.1c0,4.1-0.9,7.6-2.6,10.6c-1.8,3-3.9,5.5-6.8,7.5c-2.7,2-5.9,3.4-9.3,4.3
		c-3.3,0.9-6.7,1.4-9.9,1.4c-2.9,0-6.1-0.4-9.6-1.1c-3.5-0.7-6.8-1.8-9.9-3.2c-3-1.4-5.6-3.4-7.7-5.7
		C412.8,347.5,411.7,344.8,411.7,341.7z M442.2,348.5c2.3,0,4.4-0.3,6.4-0.9c2-0.6,3.6-1.4,5.2-2.4c1.3-1.1,2.6-2.4,3.5-3.8
		c0.7-1.6,1.2-3.2,1.2-5.1c0-2.6-0.7-4.5-2.1-5.9c-1.4-1.4-3-2.7-5.2-3.5c-2.1-0.9-4.2-1.7-6.7-2.4c-2.4-0.6-4.5-1.3-6.7-2
		c-2.1-0.7-3.8-1.6-5.2-2.4c-1.3-0.9-2.1-2.2-2.1-4c0-1.8,0.9-3.5,2.7-4.9c1.8-1.4,4.2-2.1,7.3-2.1c2,0,3.9,0.3,5.9,0.9
		c2,0.6,3.9,1.3,5.9,2.2c0.4,0.1,0.9,0.3,1.5,0.3c0.7,0,1.2-0.3,1.8-0.7c0.4-0.4,0.7-1,0.7-1.7c0-0.9-0.6-1.7-1.8-2.4
		c-1.2-0.7-2.7-1.3-4.4-1.7c-1.7-0.4-3.3-0.9-5.2-1.1c-1.8-0.3-3.2-0.4-4.1-0.4c-2.3,0-4.2,0.3-6.1,0.9c-2,0.6-3.5,1.4-4.9,2.6
		c-1.3,1.1-2.4,2.4-3.2,3.8c-0.7,1.4-1.2,3.1-1.2,4.8c0,2.4,0.7,4.4,2.1,5.8c1.4,1.4,3,2.7,5.2,3.5c2.1,0.9,4.2,1.6,6.7,2.1
		c2.3,0.6,4.5,1.3,6.5,1.8c2.1,0.7,3.8,1.6,5.2,2.6c1.3,1,2.1,2.4,2.1,4.3c0,2.4-1,4.1-2.9,5.5c-2,1.3-4.7,2-8.1,2
		c-4.7,0-9.3-1.3-13.7-4c-0.6-0.4-1.2-0.6-1.8-0.6c-0.7,0-1.2,0.3-1.8,0.7c-0.4,0.6-0.7,1-0.7,1.6c0,1,0.7,1.8,2.1,2.7
		c1.4,0.9,3.2,1.6,5,2.1c2,0.6,3.9,1,5.9,1.4C439.3,348.2,441,348.5,442.2,348.5z"/>
	<path class="st0" d="M467.5,313.5c-1-2-1.5-4.1-1.5-6.2c0-2,0.4-3.8,1.2-5.4c0.7-1.6,1.8-2.8,2.9-3.8c1-1,2.3-2,3.6-2.6
		c1.2-0.7,2.3-1.1,3.2-1.3c3.5-0.9,7.6-1.4,12.8-1.4c4.5,0,8.8,0.7,12.8,2c3.9,1.4,7.3,3.2,10.2,5.7c2.9,2.4,5,5.4,6.7,8.8
		c1.7,3.4,2.4,7.2,2.4,11.3v25.1c0,1.8-0.4,3.7-1.2,5.4c-0.7,1.7-1.8,3.1-3.2,4.4c-1.3,1.3-2.9,2.2-4.7,3c-1.8,0.7-3.6,1.1-5.8,1.1
		c-2.3,0-4.2-0.4-6.1-1.3c-1.7,0.6-3.5,1-5.5,1.3c-2,0.3-4.1,0.4-6.4,0.4c-4.2,0-8.2-0.7-11.9-2c-3.8-1.3-7-3.1-9.9-5.5
		c-2.9-2.4-5-5.3-6.7-8.5c-1.7-3.2-2.4-6.9-2.4-11.1c0-4.3,0.9-7.9,2.6-11.2C462.3,318.4,464.9,315.7,467.5,313.5z M507.1,348
		c0.6,0,1.2-0.3,1.8-0.7c0.4-0.4,0.7-1,0.7-1.7v-25.1c0-4.7-1.7-8.6-5.2-11.8c-3.5-3.1-8.4-4.7-14.6-4.7c-3.5,0-6.2,0.3-8.2,0.7
		c-2.1,0.4-3.2,1.3-3.2,2.4c0,0.7,0.1,1.3,0.7,1.7c0.4,0.4,0.9,0.6,1.5,0.6c0.7,0,1.8-0.1,2.9-0.4c1-0.3,2.6-0.4,4.5-0.4
		c2.4,0,4.7,0.3,6.8,0.9c2,0.6,3.6,1.3,5.2,2.2c1.3,1,2.4,2,3.2,3.2c0.7,1.3,1.2,2.6,1.2,3.7v4.7c-0.7-0.6-1.7-1.1-2.6-2
		c-1-0.7-2.1-1.4-3.3-2c-1.2-0.6-2.6-1.1-4.1-1.6c-1.5-0.4-3.2-0.6-5-0.6c-2.4,0-4.7,0.3-6.8,1c-2.3,0.7-4.2,1.7-5.9,3
		c-1.7,1.4-3,3-4.1,4.9c-1,2-1.5,4.1-1.5,6.5c0,2.2,0.4,4.3,1.3,6.1c0.9,2,2.1,3.5,3.8,4.9c1.5,1.4,3.5,2.4,5.8,3.2
		c2.3,0.9,4.9,1.1,7.6,1.1c2.6,0,4.9-0.3,6.7-0.7c1.8-0.4,3.5-1.1,4.9-1.7c1.3-0.7,2.6-1.6,3.6-2.6l0.1,2.4c0,0.7,0.3,1.1,0.9,1.6
		C505.8,347.8,506.5,348,507.1,348z M504.3,332.9c0,1.7-0.4,3.2-1.2,4.7c-0.9,1.4-2,2.6-3.3,3.5c-1.3,1-3,1.7-4.7,2.1
		c-1.8,0.4-3.5,0.7-5.3,0.7s-3.6-0.3-5.3-0.7c-1.7-0.4-3.2-1.3-4.4-2.1c-1.2-0.9-2.3-2.1-3-3.4c-0.7-1.3-1.2-2.8-1.2-4.4
		c0-1.7,0.4-3.2,1.2-4.7c0.7-1.4,1.8-2.6,3.2-3.5c1.2-1,2.7-1.7,4.5-2.2c1.8-0.6,3.5-0.9,5.2-0.9c1.7,0,3.3,0.3,5.2,0.7
		c1.7,0.4,3.3,1.1,4.7,2.1c1.3,1,2.6,2.1,3.5,3.4C503.9,329.5,504.3,331.2,504.3,332.9z"/>
</g>
</svg>
