<?xml version="1.0" encoding="utf-8"?>
<!-- Generator: Adobe Illustrator 20.1.0, SVG Export Plug-In . SVG Version: 6.00 Build 0)  -->
<svg version="1.1" id="Layer_1" xmlns="http://www.w3.org/2000/svg" xmlns:xlink="http://www.w3.org/1999/xlink" x="0px" y="0px"
	 viewBox="0 0 335.5 214.5" style="enable-background:new 0 0 335.5 214.5;" xml:space="preserve">
<style type="text/css">
	.st0{fill:#FFFFFF;}
	.st1{fill:#199F88;}
	.st2{fill:#F69321;stroke:#FFFFFF;stroke-width:0.1866;stroke-miterlimit:10;}
	.st3{fill:#199F88;stroke:#3BB34A;stroke-width:1.0873;stroke-miterlimit:10;}
</style>
<path class="st0" d="M-0.2,101.1c18,2.7,36.1,6.7,54.2,8c36.2,2.5,72.5,2.3,108.6,5.7c23.8,2.2,40.6-10.1,51-30.7
	c12.3-24.6,29.2-41.8,49.3-56.9c10.2-7.7,19.1-18,28.7-27.2c18.2,13.9,17.2,26.3-0.8,40c-11,8.4-19.3,21.7-28.7,32.8
	c1.4,3.4,2.7,6.8,4.1,10.1c12.7,0,25.4,0,38.1,0c26.1,0,37.7,18.5,27.4,45.8c-7.5,19.8-16.5,39.1-26.4,57.4
	c-3.4,6.2-12.1,12-18.5,12.2c-67.1,2.1-134.2,2-201.3,4.7c-28.6,1.2-57,7.5-85.5,11.5C-0.2,176.6-0.2,138.9-0.2,101.1z"/>
<g>
	<path class="st1" d="M252.7,179.3h-17.4c-0.8,0-1.3-0.5-1.3-1.3v-14.5c0-0.8,0.5-1.3,1.3-1.3h17.4c0.8,0,1.3,0.5,1.3,1.3V178
		C254,178.6,253.5,179.3,252.7,179.3z"/>
	<rect x="249.7" y="162.2" class="st2" width="1.3" height="17.1"/>
	<rect x="236.3" y="162.2" class="st2" width="1.3" height="17.1"/>
	<path class="st1" d="M245,159.5h-2.6c-0.2,0-0.4,0.2-0.4,0.5v2.3h0.3v-2c0-0.2,0.1-0.4,0.3-0.4h2c0.2,0,0.3,0.2,0.3,0.4v2h0.3V160
		C245.4,159.7,245.2,159.5,245,159.5z"/>
	<path class="st3" d="M231.1,150.8c-0.2,0.3-0.4,0.5-0.4,0.8c-0.4,1.2-1.3,1.4-2.2,0.5c-0.8-0.8-1.4-1.6-2-2.6
		c-0.7-1.1-1.3-2.2-1.8-3.3c-0.3-0.8-0.2-1.6-0.3-2.4c0-0.3-0.1-0.5-0.2-0.9c-0.1-0.5-0.3-1-0.5-1.5c0.5-0.1,1.1-0.3,1.7-0.4
		c0.2,0,0.4,0.2,0.7,0.4c0.5,0.9,1.1,1.8,1.6,2.8c0.2,0.3,0.5,0.7,0.8,1c-0.4,0.3-1,0.5-1.5,0.9c-0.2,0.1-0.3,0.3-0.3,0.5
		c-0.1,0.5,1.3,2,1.7,2c0.1,0,0.4-0.2,0.4-0.4c0.3-2,0.9-3.8,0.7-5.9c-0.1-1.1,0.1-2.3,1.1-3c0.1-0.1,0.2-0.4,0.2-0.7
		c0-0.5,0-1,0-1.5s-0.1-0.9-0.7-1.2c-1.1-0.7-1.4-2.6-0.9-4.1c0.7-1.6,1.6-3,3.6-3.5c0.1,0,0.2,0,0.3-0.1c1.1-1,2-0.8,2.9,0.3
		c0.2,0.2,0.7,0.3,1,0.4c0.8,0.3,1.6,0.7,2.4,1.2c1.7,1.2,2,3.7,0.5,5.2c-0.3,0.3-0.7,0.5-1,0.9c-0.5,0.5-0.4,1.3,0.2,1.6
		c0.9,0.4,1.7,0.8,2.1,1.6c0.5,1.4,0.9,2.8,0.7,4.3c-0.2,1-0.3,2.1-0.4,3.2c0,0.3,0.2,0.8,0.3,1.2c-0.9,0.5-0.9,1.5-0.9,2.5
		c0,0.8-0.1,1.5,0,2.2c0.1,0.9,0.4,1.6,0.5,2.5c0.2,1.6,0.5,3.4-0.1,5c-0.2,0.5-0.7,0.8-1.2,0.4c-0.5-0.4-1.1-0.3-1.7-0.2
		c-3.3,0.4-6.4,1.4-9.8,1.2c-0.2,0-0.5,0.1-0.9,0.2c-0.8,0.3-1.5,0.7-2.2,1.1c-0.3,0.2-0.5,0.7-0.5,1c0.2,1.8-0.4,3.5-0.9,5.1
		c-0.3,1.3-1,2.6-1.3,3.9c-0.3,1.5-1,3.2-0.3,4.8c0.1,0.3,0.1,0.7,0.1,1c0,1.6-1.1,2.4-2.6,1.7c-0.2-0.1-0.5,0-0.7,0.1
		c-1.1,1-2.5,0.7-3.7,0.5c-0.7-0.1-1.3-0.7-2-1c-0.1-0.1-0.1-0.5,0-0.5c0.3-0.2,0.8-0.5,1.1-0.5c0.8-0.1,1.4-0.4,1.8-1
		c0.5-0.9,1.1-2,1.6-2.8c0.1-0.1,0.1-0.3,0.3-0.4c1.5-1.1,2-2.7,2.1-4.5c0.1-0.5,0.1-1.1,0.1-1.6c0-0.4,0.1-1,0-1.4
		c-0.5,0.8-1,1.6-1.5,2.3c-0.9,1.1-1.8,2-2.8,2.9c-0.8,0.8-1.3,1.6-2,2.5c-0.4,0.5-0.9,1.2-1.1,1.7c-0.2,0.7-0.1,1.3-0.3,2
		c-0.1,0.5-0.3,1-0.7,1.5c-0.2,0.4-0.7,0.7-1.2,0.4c-0.4-0.2-1-0.2-1.4-0.4c-0.2-0.1-0.4-0.5-0.5-0.8c-0.1-0.1-0.2-0.4-0.4-0.4
		c-0.5-0.1-1.1-0.2-1.7-0.2c-1.7,0-2.9-0.8-3.8-2.1c-0.1-0.2-0.3-0.7-0.2-0.8c0.3-0.3,0.7-0.4,1.1-0.7c0.1-0.1,0.4,0.1,0.5,0.2
		c1.8,0.8,2.9,0.5,4.3-1c0.4-0.4,1-0.7,1.6-0.9c1-0.4,2.1-1.2,2.6-2.1c1.3-1.8,2.4-3.9,3.6-5.9c0.5-1,1.1-2,1.6-2.9
		c0.4-0.9,0.8-1.8,2-2.3c0.3-0.1,0.7-0.5,0.8-0.9c0.2-1.4,1.2-2,2.5-2.3c0.3-0.1,0.8-0.3,0.9-0.7c0.5-1.3,1.5-1.8,2.9-2
		c1.3-0.1,2.4-0.7,3-2c0.1-0.1,0.2-0.2,0.3-0.3c0.8-0.5,1-1.3,1.3-2.1c0-0.1,0-0.2,0-0.3c-0.2-0.3-0.4-0.5-0.7-0.9
		c-0.1,0.1-0.3,0.2-0.3,0.3C230.9,150,230.5,150.6,231.1,150.8z"/>
</g>
<g>
	<path class="st1" d="M53.1,174.3v-40.9c0-1.3,0.2-2.5,0.8-3.7c0.5-1.2,1.2-2.2,2-3.1c0.8-0.9,1.9-1.6,3.1-2.1
		c1.2-0.5,2.5-0.8,3.9-0.8c1.4,0,2.6,0.3,3.8,0.8c1.2,0.5,2.2,1.2,3.1,2.1c0.9,0.9,1.6,1.9,2.1,3.1c0.5,1.2,0.8,2.4,0.8,3.8v40.9
		c0,1.4-0.3,2.7-0.8,3.9s-1.2,2.2-2.1,3.1c-0.9,0.9-1.9,1.5-3.1,2c-1.2,0.5-2.4,0.8-3.7,0.8c-1.4,0-2.6-0.3-3.8-0.8
		c-1.2-0.5-2.2-1.2-3.1-2.1c-0.9-0.9-1.6-1.9-2.1-3.1C53.3,176.9,53.1,175.7,53.1,174.3z M62.8,176c0.5,0,0.8-0.2,1.2-0.5
		c0.3-0.3,0.5-0.7,0.5-1.2v-40.9c0-0.5-0.2-0.9-0.5-1.2c-0.3-0.3-0.7-0.4-1.2-0.4s-0.8,0.1-1.2,0.4c-0.3,0.3-0.5,0.7-0.5,1.2v40.9
		c0,0.5,0.2,0.8,0.5,1.2C62,175.8,62.4,176,62.8,176z"/>
	<path class="st1" d="M70.5,151.3c-0.7-1.4-1-2.9-1-4.4c0-1.4,0.3-2.7,0.8-3.8c0.5-1.1,1.2-2,1.9-2.7s1.5-1.4,2.4-1.8
		c0.8-0.5,1.5-0.8,2.1-0.9c2.3-0.6,5-1,8.4-1c3,0,5.8,0.5,8.4,1.4c2.6,1,4.8,2.3,6.7,4c1.9,1.7,3.3,3.8,4.4,6.2
		c1.1,2.4,1.6,5.1,1.6,8V174c0,1.3-0.3,2.6-0.8,3.8c-0.5,1.2-1.2,2.2-2.1,3.1c-0.9,0.9-1.9,1.6-3.1,2.1c-1.2,0.5-2.4,0.8-3.8,0.8
		c-1.5,0-2.8-0.3-4-0.9c-1.1,0.4-2.3,0.7-3.6,0.9c-1.3,0.2-2.7,0.3-4.2,0.3c-2.8,0-5.4-0.5-7.8-1.4c-2.5-0.9-4.6-2.2-6.5-3.9
		c-1.9-1.7-3.3-3.7-4.4-6c-1.1-2.3-1.6-4.9-1.6-7.8c0-3,0.6-5.6,1.7-7.9S68.7,152.9,70.5,151.3z M96.4,175.7c0.4,0,0.8-0.2,1.2-0.5
		c0.3-0.3,0.5-0.7,0.5-1.2v-17.7c0-3.3-1.1-6.1-3.4-8.3c-2.3-2.2-5.5-3.3-9.6-3.3c-2.3,0-4.1,0.2-5.4,0.5c-1.4,0.3-2.1,0.9-2.1,1.7
		c0,0.5,0.1,0.9,0.5,1.2c0.3,0.3,0.6,0.4,1,0.4c0.5,0,1.2-0.1,1.9-0.3c0.7-0.2,1.7-0.3,3-0.3c1.6,0,3.1,0.2,4.5,0.6
		c1.3,0.4,2.4,0.9,3.4,1.6c0.9,0.7,1.6,1.4,2.1,2.3c0.5,0.9,0.8,1.8,0.8,2.6v3.3c-0.5-0.4-1.1-0.8-1.7-1.4c-0.7-0.5-1.4-1-2.2-1.4
		c-0.8-0.4-1.7-0.8-2.7-1.1c-1-0.3-2.1-0.4-3.3-0.4c-1.6,0-3.1,0.2-4.5,0.7c-1.5,0.5-2.8,1.2-3.9,2.1c-1.1,1-2,2.1-2.7,3.5
		c-0.7,1.4-1,2.9-1,4.6c0,1.6,0.3,3,0.9,4.3c0.6,1.4,1.4,2.5,2.5,3.5c1,1,2.3,1.7,3.8,2.3c1.5,0.6,3.2,0.8,5,0.8
		c1.7,0,3.2-0.2,4.4-0.5c1.2-0.3,2.3-0.8,3.2-1.2c0.9-0.5,1.7-1.1,2.4-1.8l0.1,1.7c0,0.5,0.2,0.8,0.6,1.1
		C95.7,175.5,96,175.7,96.4,175.7z M94.6,165c0,1.2-0.3,2.3-0.8,3.3c-0.6,1-1.3,1.8-2.2,2.5c-0.9,0.7-2,1.2-3.1,1.5
		c-1.2,0.3-2.3,0.5-3.5,0.5c-1.2,0-2.4-0.2-3.5-0.5s-2.1-0.9-2.9-1.5s-1.5-1.5-2-2.4c-0.5-0.9-0.8-2-0.8-3.1c0-1.2,0.3-2.3,0.8-3.3
		c0.5-1,1.2-1.8,2.1-2.5c0.8-0.7,1.8-1.2,3-1.6s2.3-0.6,3.4-0.6c1.1,0,2.2,0.2,3.4,0.5c1.1,0.3,2.2,0.8,3.1,1.5
		c0.9,0.7,1.7,1.5,2.3,2.4C94.3,162.6,94.6,163.8,94.6,165z"/>
	<path class="st1" d="M98.1,137.9v-4c0-1.4,0.3-2.8,0.8-4c0.5-1.2,1.3-2.2,2.2-3.1c0.9-0.8,2-1.5,3.1-2c1.2-0.5,2.4-0.7,3.8-0.7
		c1.4,0,2.6,0.3,3.8,0.8c1.2,0.5,2.2,1.2,3.1,2.1c0.9,0.9,1.6,1.9,2.1,3.1c0.5,1.2,0.8,2.4,0.8,3.8v4c0,1.7-0.4,3.3-1.2,4.7
		c0.8,1.3,1.1,2.8,1.1,4.5v27.2c0,1.4-0.3,2.6-0.8,3.8s-1.2,2.2-2.1,3.1c-0.9,0.9-1.9,1.6-3.1,2.1c-1.2,0.5-2.5,0.8-3.8,0.8
		c-1.4,0-2.7-0.3-3.9-0.8c-1.2-0.5-2.2-1.2-3.1-2.1c-0.9-0.9-1.6-1.9-2-3.1c-0.5-1.2-0.7-2.4-0.7-3.7v-27.2c0-1.6,0.4-3.1,1.1-4.6
		C98.5,141.1,98.1,139.5,98.1,137.9z M107.8,139.5c0.5,0,1-0.2,1.3-0.5c0.3-0.3,0.5-0.7,0.5-1.2v-4c0-0.5-0.1-0.8-0.4-1.2
		c-0.3-0.3-0.7-0.5-1.2-0.5c-0.6,0-1,0.2-1.3,0.5c-0.3,0.3-0.5,0.7-0.5,1.2v4c0,0.5,0.2,0.8,0.5,1.2
		C107,139.3,107.4,139.5,107.8,139.5z M109.6,174.3v-27.2c0-0.5-0.2-0.8-0.5-1.2c-0.3-0.3-0.7-0.5-1.2-0.5c-0.5,0-0.9,0.2-1.2,0.5
		c-0.3,0.3-0.5,0.7-0.5,1.2v27.2c0,0.5,0.2,0.8,0.5,1.2s0.7,0.5,1.1,0.5c0.5,0,0.9-0.2,1.2-0.5C109.4,175.1,109.6,174.8,109.6,174.3
		z"/>
	<path class="st1" d="M109.6,171.2c0-1.6,0.4-3.1,1.2-4.6c0.8-1.5,1.9-2.7,3.3-3.6c-1.1-1.2-2-2.7-2.6-4.2c-0.7-1.6-1-3.4-1-5.5
		c0-2.6,0.5-5,1.6-7c1-2,2.4-3.8,4.2-5.2c1.7-1.4,3.7-2.5,5.8-3.3c2.2-0.8,4.4-1.1,6.6-1.1c1.9,0,3.9,0.2,6.1,0.7
		c2.1,0.5,4.1,1.2,6,2.2c1.8,1,3.3,2.2,4.5,3.7c1.2,1.5,1.8,3.3,1.8,5.4c0,1.5-0.3,2.9-0.9,4.2c-0.6,1.3-1.5,2.4-2.6,3.3
		c1.4,1.3,2.5,2.9,3.4,4.7c0.9,1.9,1.3,4,1.3,6.4c0,2.9-0.6,5.4-1.7,7.5c-1.2,2.1-2.6,3.9-4.5,5.3c-1.8,1.4-3.9,2.4-6.1,3
		c-2.2,0.6-4.4,1-6.5,1c-1.9,0-4-0.3-6.3-0.8c-2.3-0.5-4.5-1.3-6.5-2.3c-2-1-3.7-2.4-5.1-4C110.3,175.3,109.6,173.4,109.6,171.2z
		 M129.6,176c1.5,0,2.9-0.2,4.2-0.6c1.3-0.4,2.4-1,3.4-1.7c0.9-0.8,1.7-1.7,2.3-2.7c0.5-1.1,0.8-2.3,0.8-3.6c0-1.8-0.5-3.2-1.4-4.2
		s-2-1.9-3.4-2.5c-1.4-0.6-2.8-1.2-4.4-1.7c-1.6-0.4-3-0.9-4.4-1.4c-1.4-0.5-2.5-1.1-3.4-1.7s-1.4-1.6-1.4-2.8
		c0-1.3,0.6-2.5,1.8-3.5c1.2-1,2.8-1.5,4.8-1.5c1.3,0,2.6,0.2,3.9,0.6c1.3,0.4,2.6,0.9,3.9,1.6c0.3,0.1,0.6,0.2,1,0.2
		c0.5,0,0.8-0.2,1.2-0.5c0.3-0.3,0.5-0.7,0.5-1.2c0-0.6-0.4-1.2-1.2-1.7c-0.8-0.5-1.8-0.9-2.9-1.2c-1.1-0.3-2.2-0.6-3.4-0.8
		c-1.2-0.2-2.1-0.3-2.7-0.3c-1.5,0-2.8,0.2-4,0.6c-1.3,0.4-2.3,1-3.2,1.8c-0.9,0.8-1.6,1.7-2.1,2.7c-0.5,1-0.8,2.2-0.8,3.4
		c0,1.7,0.5,3.1,1.4,4.1c0.9,1,2,1.9,3.4,2.5c1.4,0.6,2.8,1.1,4.4,1.5c1.5,0.4,3,0.9,4.3,1.3c1.4,0.5,2.5,1.1,3.4,1.8
		c0.9,0.7,1.4,1.7,1.4,3c0,1.7-0.7,2.9-1.9,3.9c-1.3,0.9-3.1,1.4-5.3,1.4c-3.1,0-6.1-0.9-9-2.8c-0.4-0.3-0.8-0.4-1.2-0.4
		c-0.5,0-0.8,0.2-1.2,0.5c-0.3,0.4-0.5,0.7-0.5,1.1c0,0.7,0.5,1.3,1.4,1.9c0.9,0.6,2.1,1.1,3.3,1.5c1.3,0.4,2.6,0.7,3.9,1
		C127.7,175.8,128.8,176,129.6,176z"/>
	<path class="st1" d="M146.2,151.3c-0.7-1.4-1-2.9-1-4.4c0-1.4,0.3-2.7,0.8-3.8c0.5-1.1,1.2-2,1.9-2.7s1.5-1.4,2.4-1.8
		c0.8-0.5,1.5-0.8,2.1-0.9c2.3-0.6,5-1,8.4-1c3,0,5.8,0.5,8.4,1.4c2.6,1,4.8,2.3,6.7,4c1.9,1.7,3.3,3.8,4.4,6.2
		c1.1,2.4,1.6,5.1,1.6,8V174c0,1.3-0.3,2.6-0.8,3.8c-0.5,1.2-1.2,2.2-2.1,3.1c-0.9,0.9-1.9,1.6-3.1,2.1c-1.2,0.5-2.4,0.8-3.8,0.8
		c-1.5,0-2.8-0.3-4-0.9c-1.1,0.4-2.3,0.7-3.6,0.9c-1.3,0.2-2.7,0.3-4.2,0.3c-2.8,0-5.4-0.5-7.8-1.4c-2.5-0.9-4.6-2.2-6.5-3.9
		c-1.9-1.7-3.3-3.7-4.4-6c-1.1-2.3-1.6-4.9-1.6-7.8c0-3,0.6-5.6,1.7-7.9S144.5,152.9,146.2,151.3z M172.2,175.7
		c0.4,0,0.8-0.2,1.2-0.5c0.3-0.3,0.5-0.7,0.5-1.2v-17.7c0-3.3-1.1-6.1-3.4-8.3c-2.3-2.2-5.5-3.3-9.6-3.3c-2.3,0-4.1,0.2-5.4,0.5
		c-1.4,0.3-2.1,0.9-2.1,1.7c0,0.5,0.1,0.9,0.5,1.2c0.3,0.3,0.6,0.4,1,0.4c0.5,0,1.2-0.1,1.9-0.3c0.7-0.2,1.7-0.3,3-0.3
		c1.6,0,3.1,0.2,4.5,0.6c1.3,0.4,2.4,0.9,3.4,1.6c0.9,0.7,1.6,1.4,2.1,2.3c0.5,0.9,0.8,1.8,0.8,2.6v3.3c-0.5-0.4-1.1-0.8-1.7-1.4
		c-0.7-0.5-1.4-1-2.2-1.4c-0.8-0.4-1.7-0.8-2.7-1.1c-1-0.3-2.1-0.4-3.3-0.4c-1.6,0-3.1,0.2-4.5,0.7c-1.5,0.5-2.8,1.2-3.9,2.1
		c-1.1,1-2,2.1-2.7,3.5c-0.7,1.4-1,2.9-1,4.6c0,1.6,0.3,3,0.9,4.3c0.6,1.4,1.4,2.5,2.5,3.5c1,1,2.3,1.7,3.8,2.3
		c1.5,0.6,3.2,0.8,5,0.8c1.7,0,3.2-0.2,4.4-0.5c1.2-0.3,2.3-0.8,3.2-1.2c0.9-0.5,1.7-1.1,2.4-1.8l0.1,1.7c0,0.5,0.2,0.8,0.6,1.1
		C171.4,175.5,171.8,175.7,172.2,175.7z M170.4,165c0,1.2-0.3,2.3-0.8,3.3c-0.6,1-1.3,1.8-2.2,2.5c-0.9,0.7-2,1.2-3.1,1.5
		c-1.2,0.3-2.3,0.5-3.5,0.5c-1.2,0-2.4-0.2-3.5-0.5s-2.1-0.9-2.9-1.5s-1.5-1.5-2-2.4c-0.5-0.9-0.8-2-0.8-3.1c0-1.2,0.3-2.3,0.8-3.3
		c0.5-1,1.2-1.8,2.1-2.5c0.8-0.7,1.8-1.2,3-1.6s2.3-0.6,3.4-0.6c1.1,0,2.2,0.2,3.4,0.5c1.1,0.3,2.2,0.8,3.1,1.5
		c0.9,0.7,1.7,1.5,2.3,2.4C170.1,162.6,170.4,163.8,170.4,165z"/>
</g>
</svg>
