<?xml version="1.0" encoding="utf-8"?>
<!-- Generator: Adobe Illustrator 19.1.1, SVG Export Plug-In . SVG Version: 6.00 Build 0)  -->
<svg version="1.1" id="Layer_1" xmlns="http://www.w3.org/2000/svg" xmlns:xlink="http://www.w3.org/1999/xlink" x="0px" y="0px"
	 viewBox="0 0 20 20" style="enable-background:new 0 0 20 20;" xml:space="preserve">
<style type="text/css">
	.st0{fill:none;stroke:#F7941E;stroke-width:1.8944;stroke-miterlimit:10;}
	.st1{fill:#F7941E;}
	.st2{fill:none;}
	.st3{fill:#FFFFFF;}
</style>
<ellipse class="st0" cx="-30.3" cy="9.9" rx="9" ry="9"/>
<g>
	<path class="st1" d="M-27.6,13.1c-0.9,1.7-2.7,4.4-4.2,4.4c-1.2,0-1.7-2.1-1.7-3.6c0-3.7,2.5-7.3,3.7-7.3c0.3,0,0.9,0.2,0.9,0.8
		c0,1.5-2,4.2-2.8,5.1c-0.2,1.2,0.1,1.9,1.1,1.9c1.1,0,2.1-1.6,2.9-2.5L-27.6,13.1z M-29.5,4.7c0-1.2,1-2.3,1.7-2.3
		c0.4,0,0.7,0.4,0.7,0.9c0,1.2-0.7,2.7-1.6,2.7C-29.2,6-29.5,5.4-29.5,4.7z"/>
</g>
<path class="st2" d="M-33.2,4.4"/>
<path class="st3" d="M15,1.3c-2.8,0-5,2.2-5,5c0-2.8-2.2-5-5-5c-2.8,0-5,2.2-5,5c0,1.4,0.6,2.6,1.5,3.6L10,20c0,0,7.9-9.5,8.5-10.2
	C19.4,8.9,20,7.7,20,6.3C20,3.5,17.8,1.3,15,1.3z"/>
</svg>
