<?xml version="1.0" encoding="utf-8"?>
<!-- Generator: Adobe Illustrator 19.1.1, SVG Export Plug-In . SVG Version: 6.00 Build 0)  -->
<svg version="1.1" id="Layer_1" xmlns="http://www.w3.org/2000/svg" xmlns:xlink="http://www.w3.org/1999/xlink" x="0px" y="0px"
	 viewBox="0 0 300 300" style="enable-background:new 0 0 300 300;" xml:space="preserve">
<style type="text/css">
	.st0{fill:#169F87;}
	.st1{fill:#FFFFFF;}
</style>
<circle class="st0" cx="150" cy="150" r="150"/>
<path class="st1" d="M242.6,94.3c-2.6,0.1-4.1,0.2-5.2,0.3c-3.7,12.2-7.2,24.2-10.9,36c-2.8,9-7.8,16.4-15.1,22.5
	c-31.6,26.3-63.1,52.8-94.7,79.2c-9.6,8-20.6,7.1-28.7-2.5c-13-15.4-25.8-31-38.5-46.6c-8-9.9-7-21.1,2.6-29.2
	c30.5-25.6,61.2-50.9,91.7-76.5c7.5-6.3,15.8-10.3,25.6-11.2c15.4-1.3,30.8-3,46.2-4c13-0.8,22.1,6.2,22.6,18.5
	c0.1,2.6,3.4,5.5,5.8,7.6c4.8,4.3,5.2,9.3,4.4,15.4c-1.7,13.5-2.8,27.1-3.5,40.7c-0.5,9,2.4,17.1,8.8,23.7c0.8,0.8,1.4,1.8,2.1,2.8
	c0.1,0.2-0.1,0.6-0.2,1.5c-8.1-6.3-12.9-14.3-13.3-24c-0.4-10.4,0.7-20.9,1.1-31.4c0.1-2,0.4-3.9-0.6-6.1c-1.8,7.3-3.8,14.6-5.3,22
	c-2.1,10.6-4,21.2-5.5,31.9c-1.1,7.6,1.1,14.8,4.8,21.5c0.8,1.5,1.4,3.1,2,4.7c-0.6,0.3-1.1,0.6-1.7,0.8c-1.9-3.7-4.3-7.2-5.7-11.1
	c-4.2-11.2-2.6-22.7-0.1-34c3.2-14.3,6.8-28.4,10-42.7C242.2,101.2,242.2,98,242.6,94.3z M226.2,79.6c-1.5-4.7-5.3-7.7-10-7.8
	c-4.5-0.1-9,3.3-10.5,7.8c-1.6,4.6-0.1,9.5,3.8,12.4c4.4,3.3,8.2,3.2,13.8-0.9c-7.6-0.5-1.6-6.2-4.1-8.8
	C221.4,81.5,223.6,80.7,226.2,79.6z"/>
</svg>
