<?xml version="1.0" encoding="utf-8"?>
<!-- Generator: Adobe Illustrator 19.1.1, SVG Export Plug-In . SVG Version: 6.00 Build 0)  -->
<svg version="1.1" id="Layer_1" xmlns="http://www.w3.org/2000/svg" xmlns:xlink="http://www.w3.org/1999/xlink" x="0px" y="0px"
	 viewBox="-106.5 392.5 51.9 10.5" style="enable-background:new -106.5 392.5 51.9 10.5;" xml:space="preserve">
<style type="text/css">
	.st0{fill:#FEDD10;}
</style>
<g>
	<polygon class="st0" points="-54.6,396.4 -57.8,399 -56.7,403 -60,400.7 -63.1,403 -62.1,398.9 -65.1,396.4 -61.3,396.4 -60,392.6 
		-58.5,396.4 	"/>
	<polygon class="st0" points="-64.9,396.4 -68.1,399 -67,403 -70.2,400.7 -73.5,403 -72.5,398.9 -75.5,396.4 -71.6,396.4 
		-70.2,392.6 -68.9,396.4 	"/>
	<polygon class="st0" points="-75.2,396.4 -78.4,399 -77.3,403 -80.6,400.7 -83.9,403 -82.7,398.9 -85.8,396.4 -81.9,396.4 
		-80.6,392.6 -79.2,396.4 	"/>
	<polygon class="st0" points="-85.5,396.4 -88.8,399 -87.6,403 -90.9,400.7 -94.2,403 -93.1,398.9 -96.1,396.4 -92.2,396.4 
		-90.9,392.6 -89.6,396.4 	"/>
	<polygon class="st0" points="-95.9,396.4 -99.2,399 -98,403 -101.3,400.7 -104.5,403 -103.4,398.9 -106.5,396.4 -102.6,396.4 
		-101.3,392.6 -99.8,396.4 	"/>
</g>
</svg>
