<?xml version="1.0" encoding="utf-8"?>
<!-- Generator: Adobe Illustrator 19.1.1, SVG Export Plug-In . SVG Version: 6.00 Build 0)  -->
<svg version="1.1" id="Layer_1" xmlns="http://www.w3.org/2000/svg" xmlns:xlink="http://www.w3.org/1999/xlink" x="0px" y="0px"
	 viewBox="-155 247 300 300" style="enable-background:new -155 247 300 300;" xml:space="preserve">
<style type="text/css">
	.st0{fill:#169F87;}
	.st1{fill:#FFFFFF;}
</style>
<circle class="st0" cx="-3" cy="397" r="150"/>
<path class="st1" d="M11.5,439.6c-0.8,0-1.3,0.1-1.6,0.1c-1.1,4.2-2.2,8.2-3.3,12.3c-0.9,3.1-2.4,5.6-4.6,7.7
	c-9.7,9-19.4,18-29.1,27c-2.9,2.7-6.3,2.4-8.8-0.9c-4-5.2-7.9-10.6-11.8-15.9c-2.5-3.4-2.2-7.2,0.8-10c9.4-8.7,18.8-17.3,28.2-26.1
	c2.3-2.1,4.9-3.5,7.9-3.8c4.7-0.4,9.5-1,14.2-1.4c4-0.3,6.8,2.1,6.9,6.3c0,0.9,1,1.9,1.8,2.6c1.5,1.5,1.6,3.2,1.4,5.2
	c-0.5,4.6-0.9,9.2-1.1,13.9c-0.2,3.1,0.7,5.8,2.7,8.1c0.2,0.3,0.4,0.6,0.6,1c0,0.1,0,0.2-0.1,0.5c-2.5-2.1-4-4.9-4.1-8.2
	c-0.1-3.5,0.2-7.1,0.3-10.7c0-0.7,0.1-1.3-0.2-2.1c-0.6,2.5-1.2,5-1.6,7.5c-0.6,3.6-1.2,7.2-1.7,10.9c-0.3,2.6,0.3,5,1.5,7.3
	c0.2,0.5,0.4,1.1,0.6,1.6c-0.2,0.1-0.3,0.2-0.5,0.3c-0.6-1.3-1.3-2.5-1.8-3.8c-1.3-3.8-0.8-7.7,0-11.6c1-4.9,2.1-9.7,3.1-14.6
	C11.3,441.9,11.3,440.8,11.5,439.6z M6.4,434.6c-0.5-1.6-1.6-2.6-3.1-2.7c-1.4,0-2.8,1.1-3.2,2.7c-0.5,1.6,0,3.2,1.2,4.2
	c1.4,1.1,2.5,1.1,4.2-0.3c-2.3-0.2-0.5-2.1-1.3-3C4.9,435.2,5.6,434.9,6.4,434.6z"/>
<path class="st1" d="M-91,434.6c-1.6-5.7-3.3-11.3-4.7-17c-1.9-7.4-2.8-14.8-2.9-22.3c0-11.5,2.2-22.7,9.3-32.9
	c5.9-8.5,14.2-14.9,24.5-19.6c12.4-5.8,26-8.7,40.1-10.5c11.1-1.4,22.3-1.9,33.6-2c3.3,0,2.9,0.2,2.9-2.3c0-7.9,0-15.7,0-23.6
	c0-0.9,0-1.8,0.3-2.6c1.1-3.1,5.6-4.2,8.9-2.1c6.6,4.2,13.2,8.4,19.8,12.6C57,322.6,73.2,333,89.4,343.3c4.1,2.7,4.2,5.7,0.1,8.4
	c-22.8,14.5-45.5,29-68.3,43.5c-1.9,1.2-4,1.6-6.2,0.8c-2.4-0.9-3.3-2.6-3.3-4.6c0-8,0-16,0-24c0-2.1,0-2.1-2.6-2
	c-13.5,0.2-27,0.7-40.3,2.7c-11.5,1.7-22.7,4.4-32.7,9.6c-11.8,6.1-19.3,14.8-23.2,25.7c-3,8.2-3.7,16.6-3.6,25.1c0,2,0,4.1,0,6.1
	C-90.7,434.5-90.8,434.6-91,434.6z"/>
</svg>
