<?xml version="1.0" encoding="utf-8"?>
<!-- Generator: Adobe Illustrator 20.1.0, SVG Export Plug-In . SVG Version: 6.00 Build 0)  -->
<svg version="1.1" id="Layer_1" xmlns="http://www.w3.org/2000/svg" xmlns:xlink="http://www.w3.org/1999/xlink" x="0px" y="0px"
	 viewBox="0 0 75.7 76" style="enable-background:new 0 0 75.7 76;" xml:space="preserve">
<style type="text/css">
	.st0{fill:#14A087;}
	.st1{fill:#FFFFFF;}
</style>
<g>
	<circle class="st0" cx="38.2" cy="37.9" r="37.5"/>
	<g>
		<path class="st1" d="M21.5,49.5c-0.4,0.2-0.7,0.4-1.1,0.5c-1.1,0.2-2.2,0.4-3.3,0.3c-1.7-0.1-3.5-0.3-5.2-0.4c-0.6,0-1.2,0-1.9,0
			c0-0.1,0-0.1,0-0.2c1.3-0.1,2.6-0.2,4-0.3c-1.5-1.4-2.5-3.1-2.6-5.4c-0.7,0.2-1.3,0.5-2,0.7c-0.5,0.1-1.1,0.1-1.7,0.1
			c-0.2,0-0.4-0.2-0.6-0.3C7,44.5,7,44.3,7,44.2c-0.8-0.6-0.9-1.2-0.1-2.1C7.1,42,7,41.4,7,41c0-0.5-0.3-1.2,0.3-1.4
			c0.3-0.1,0.7,0.1,1.3,0.2c0.3-0.5,0.6-1.2,1.1-1.9c1.6-2.7,3.8-4.4,6.1-5.9c2.6-1.6,5.4-2.4,8.2-3.3c0.4-0.1,0.8-0.5,1-0.9
			c0.9-1.5,1.8-3.1,2.7-4.6c0.3-0.5,0.8-1,1.3-1.2c2.6-1.4,5.3-2,8.1-2.3c3.9-0.5,7.7,0.2,11.4,1.5c1.7,0.6,3.3,1.5,4.7,3
			c1.9,2.2,3.9,4.4,5.8,6.6c1.1,1.3,2,2.7,3,4c0.6,0.8,1.2,1.5,2.1,1.9c0.4,0.2,0.8,0.5,0.6,1.3c-0.1,0.2,0.2,0.6,0.4,0.8
			c0.2,0.2,0.5,0.3,0.6,0.5c0.7,0.9,1.6,1.6,1.9,3c0.1,0.3,0.4,0.4,0.7,0.6c0-1.1-0.1-2.1-0.1-3c0-0.2,0.2-0.5,0.3-0.5
			c0.1,0,0.4,0.2,0.4,0.3c0.1,1.6,1.1,2.9,0.8,4.6c-0.1,0.4-0.2,0.7-0.4,1.1c0.2-1.4,0.3-2.6-0.4-3.9c-0.2-0.5-0.2-1.2-0.3-1.8
			c-0.1,0-0.1,0-0.2,0c-0.1,0.3-0.2,0.6-0.2,0.9c0.1,0.7,0.2,1.5,0.5,2.1c0.4,1,0.2,2-0.1,3c-0.1,0.2-0.4,0.5-0.7,0.5
			c-2,0.2-4,0.4-5.8-0.7c-0.9-0.5-1.8-0.9-2.7-1.3c-0.6,1.4-1.2,2.8-1.8,4.4c2.7,0,5.5,0,8.3,0c0,0.1,0,0.2,0,0.3
			c0.3,0,0.2,0.1,0.1,0.1c-6.5,0.2-12.9,0.6-19.4,0.4c0,0,0-0.2,0-0.1c-0.5,0.1-0.9,0.2-1.5,0.3c0.4-0.6,0.7-0.7,2-0.7
			c0.7,0,1.4,0,2.1,0c0.7,0,1.3,0.1,1.9,0.1c-0.7-1-1.4-1.9-2.2-3c-0.8,1.3-2,0.8-3.1,0.8C40,47,34.2,47,28.4,47c-0.5,0-1,0-1.6,0.1
			c-1.1,0.1-1.9-0.5-2.8-1.3c-0.7-0.6-1.4-1.2-2.2-1.9c-0.1,2.3-0.8,4.1-2.1,5.5C20.4,49.5,21,49.5,21.5,49.5L21.5,49.5z M64.6,44.2
			c-0.1-0.4-0.2-0.8-0.4-1.1c-0.3-0.6-0.5-1.5-1-1.8c-0.3-0.2-0.6-0.4-0.9-0.7c-0.5-0.7-0.9-1.4-1.4-2.1c-0.1-0.1-0.2-0.1-0.3-0.1
			c-0.2-0.1-0.5-0.3-0.7-0.5c-0.8-0.7-1.4-1.6-2.3-2.1c-1-0.6-2.1-1.1-3.3-0.9c-0.4,0.1-0.8,0.2-1.3,0.3c-1.5,0.1-2.4,1.3-3.3,2.6
			c-0.7,1.1-1.2,2.3-1.7,3.6s-0.3,2.6-0.6,3.8c0.1,0.1,0.2,0.2,0.4,0.3c0.1-0.3,0.2-0.6,0.3-0.9c0.3-0.8,0.6-1.6,0.8-2.5
			c0.5-2.1,1.6-3.6,3-4.7c0.3-0.2,0.7-0.4,1-0.4c0.6-0.1,1.2,0,1.8,0.1c1.2,0.1,2.3,0.7,3.2,1.8s1.7,2.3,2.6,3.4
			c0.8,1,1.6,1.8,2.6,2.3c1.6,0.7,3.2,0.3,4.8,0.3c0,0,0-0.1,0.1-0.2c-0.8,0-1.6,0-2.4,0C65.3,44.6,65,44.4,64.6,44.2
			c1.3,0.1,2.5,0.1,3.7,0.1c0.2,0,0.4-0.4,0.6-0.6c-0.2-0.2-0.4-0.5-0.6-0.5c-0.9-0.1-1.8-0.1-2.7-0.2C64.7,43,64.7,43,64.6,44.2z
			 M45.9,22.7L45.9,22.7c-1.2-0.2-2.3-0.3-3.5-0.4c-0.2,0-0.6,0.4-0.6,0.5c0,2.9,0.1,5.9,0.2,8.8c0,0.2,0.3,0.5,0.5,0.5
			c0.8,0.1,1.6,0,2.5,0c1.6,0,3.1,0,4.7,0c2.8,0,5.4,1.1,7.9,2.6c0.2,0.1,0.4,0.2,0.6,0.3c-0.1-0.7-0.3-1.3-0.3-1.9
			c0.1-1.9-0.6-3.3-1.6-4.6c-0.6,0.6-1,0.4-1.4-0.4c-0.1-0.3-0.4-0.5-0.6-0.8c-0.6-0.9-1.4-1.6-1.9-2.6c-0.4-0.8-0.9-1-1.5-1.3
			c-0.3-0.1-0.6-0.6-0.9-1c-0.5,0.4-0.6,0.4-1.7-0.3c-0.3-0.2-0.6-0.4-1-0.7c0.2-0.3,0.1-0.5-0.2-0.5c-0.1,0-0.2,0.3-0.3,0.5
			c0-0.1,0-0.1,0-0.2c-0.6,0-1.2,0.1-1.8,0c-0.5-0.1-1-0.3-1.4-0.4c-0.8-0.1-1.5-0.2-2.3-0.3c-1.1-0.1-2.3-0.1-3.4,0
			c-0.5,0-1,0.2-1.5,0.2C34.6,21,32.8,21,31,21.8c-1.5,0.7-2.7,1.5-3.3,3.6c-0.4,1.4-1,2.6-1.6,3.9c-0.2,0.4-0.3,0.6-0.7,0.2
			c-0.4-0.4-0.7-0.6-1.2-0.1c-0.3,0.3-0.8,0.4-1.2,0.5c-0.7,0.2-1.5,0.1-2,0.6c-0.6,0.5-1.3,0.5-1.9,0.9c-0.4,0.2-0.8,0.5-1.3,0.7
			c-0.3,0.2-0.7,0.2-1.1,0.4c-0.6,0.3-1.2,0.7-1.8,1.1c-0.2,0.1-0.4,0.5-0.6,0.7c-0.5,0.3-1,0.4-1.5,0.9c-0.5,0.6-1.2,1.1-1.8,1.6
			c0,0.1,0.1,0.2,0.1,0.3c0.8-0.3,1.7-0.5,2.5-0.9c1.3-0.6,2.5-1.5,3.8-1.8c2.5-0.6,5.1-1,7.7-1.4c0.6-0.1,0.8-0.3,0.8-1
			c0-0.6,0-1.3,0.2-1.9c0.7-1.9,1.5-3.7,2.3-5.6c0.4-1,1.1-1.7,2-1.9c1.6-0.3,3.1-0.6,4.7-0.7c2.7-0.1,5.4,0,8.2,0
			c0.7,0,1.4,0.1,2.1,0.2C46,22.2,46.1,22.4,45.9,22.7z M25.6,42.7c0.1,0,0.2,0,0.2,0c0-2.9,0-5.8,0-8.7c0.1,0,0.2,0,0.3,0
			c0,0.4,0.1,0.8,0.1,1.1c0,2.7-0.1,5.4-0.1,8.1c0,1.4,0.8,2.4,1.9,2.4c3.2,0,6.4,0,9.6,0c1,0,2.1-0.1,3.1-0.2
			c0.4,0,0.7-0.2,0.7-0.8c0-3.6,0.1-7.3,0.1-10.9c0-1,0-1.1-0.9-1.1c-2.4,0.1-4.9,0.2-7.3,0.3c-2.6,0.1-5.1,0.1-7.7,0.2
			c-3,0.1-5.8,0.7-8.7,1.7c-0.2,0.1-0.5,0.2-0.7,0.3c2.6-0.1,4.8,0.8,6.5,3.2C23.8,39.8,24.7,41.3,25.6,42.7z M55.2,33.9
			c-0.5-0.2-1-0.4-1.5-0.6c-2.2-1-4.4-0.8-6.7-0.9c-1.5-0.1-2.9,0.1-4.4,0.1c-0.8,0-0.9,0-0.8,1c0,1,0.1,2,0.1,3.1
			c0,2.8-0.1,5.5-0.2,8.3c0,0.2,0.3,0.6,0.4,0.6c0.5,0.1,1.1,0.1,1.6,0.1c0.9-0.1,1.9-0.2,2.8-0.2c0.4,0,0.5-0.1,0.5-0.6
			c0-2,0.4-3.8,1-5.6c0.6-2.1,1.7-3.6,3.4-4.5C52.7,34.1,53.9,34,55.2,33.9z M38,31.1c0,0.1,0,0.1,0.1,0.2c0.6-0.3,1.3-0.7,1.9-0.8
			c0.6-0.1,0.7-0.6,0.7-1.3c-0.1-1.7-0.1-3.5-0.2-5.2c0-0.2-0.2-0.4-0.3-0.5c-0.3-0.1-0.6-0.2-1-0.1c-2.6,0.1-5.1,0.2-7.7,0.4
			c-1.1,0.1-2.1,0.3-2.6,1.6c-0.4,1-0.8,2.1-1.2,3.1c-0.1,0.2-0.1,0.4,0,0.5c0.2,0.6,0.5,1.2,0.8,1.8c0.2,0.3,0.5,0.5,0.8,0.5
			c1,0,2,0,2.9,0C34.2,31.3,36.1,31.2,38,31.1z M26.4,45.4c0,0,0-0.2-0.1-0.3c-0.9-1.6-1.7-3.2-2.7-4.7c-0.5-0.8-1.1-1.6-1.7-2.2
			c-0.8-0.7-1.7-1.1-2.5-1.7c-0.7-0.5-1.4-0.7-2.1-0.7c-0.8,0.1-1.6,0.4-2.3,0.8c-0.9,0.5-2.1,0.6-2.6,1.9c0,0.1-0.2,0-0.4,0
			c-0.4,0.5-0.4,1.5-1.1,1.6c0.2,1.1-1.2,1.2-1,2.4c0.7-0.1,0.5,0.8,0.6,1.4c0.2-0.4,0.3-0.8,0.4-1.1c1.3-2.6,2.9-4.7,5.4-5.1
			c1.6-0.3,3.2,0.4,4.4,1.6c1.1,1.2,2,2.7,3,4c0.4,0.5,0.8,1,1.3,1.4C25.4,45.1,25.9,45.2,26.4,45.4z M57.6,43.2
			c0-2-1.3-3.7-2.8-3.7c-1.8,0-3.2,1.7-3.2,3.9c0,2.1,1.3,3.8,2.9,3.8C56.3,47.2,57.6,45.5,57.6,43.2z M17,40.4
			c-1.7,0-3.1,1.7-3.1,3.7c0,2.2,1.4,4,3.1,3.9c1.6-0.1,2.9-1.4,2.9-3.8C19.9,41.9,18.7,40.4,17,40.4z M27.2,28.9
			c-0.1,0-0.1-0.1-0.2-0.1c-0.2,0.6-0.5,1.3-0.7,1.9c-0.3,1.4,0.1,1.9,1.2,1.9c2.6,0,5.1-0.1,7.7-0.2c1.9-0.1,3.8-0.3,5.7-0.4
			c0.5,0,0.6-0.2,0.6-0.8c0-2.6,0-5.1,0-7.7c0-0.3-0.1-0.6-0.1-0.7c0,2.3,0,4.7,0,7.1c0,1.2,0,1.3-1,1.5c-0.2,0-0.3,0-0.5,0
			c-1.9,0.1-3.8,0.1-5.7,0.2c-2.1,0.1-4.3,0.1-6.4,0.1c-0.9,0-1.3-0.8-1-1.9C27,29.6,27.1,29.3,27.2,28.9z M60.7,34.7
			c-0.1,0.3-0.1,0.5-0.2,0.7c-0.9-0.9-0.9-1-1.1-2.3c-0.1-0.3-0.3-0.6-0.5-0.9c-0.2-0.3-0.5-0.5-0.8-0.7c-0.8,3.5,3.8,7.8,5.7,7.1
			C63.1,36.9,61.8,36,60.7,34.7z M52.6,24.2c0,0.1-0.1,0.1-0.1,0.2c0.2,0.3,0.3,0.6,0.5,0.9c0.7,1,1.4,2,2.2,2.9
			c0.2,0.2,0.6,0.3,0.7,0.2c0.3-0.3,0.2-0.7-0.1-1.1c-1-1-1.9-2.1-2.9-3.1C52.8,24.2,52.7,24.2,52.6,24.2z M27.7,24.1
			c-0.1-0.1-0.1-0.1-0.2-0.2c-0.8,1.4-1.7,2.9-2.5,4.3c-0.1,0.1,0.1,0.6,0.2,0.6c0.2,0.1,0.6,0,0.6-0.1
			C26.5,27.2,27.1,25.6,27.7,24.1z M67.3,42.4c-0.8-0.2-1.5-0.3-1.5-1.5c0-0.1-0.2-0.2-0.3-0.4c-0.1-0.1-0.2-0.3-0.3-0.4
			C65.1,40,64.9,40,64.7,40c0,0.6-0.1,1.4,0.1,1.8C65.2,42.8,66.3,43,67.3,42.4z M40.9,22.3c-0.2,0-0.4-0.1-0.6-0.1
			c-1.6,0-3.3-0.1-4.9,0c-1.6,0.1-3.1,0.4-4.7,0.7c-0.4,0.1-0.8,0.4-1.2,0.6C33.3,22,37.1,22.7,40.9,22.3z M7.4,42.5
			c0,0.6,0,1,0.1,1.4c0,0.2,0.1,0.4,0.2,0.5C7.8,44.2,8,44.1,8,43.9c0-0.8,0-1.6,0-2.4c0-0.2-0.2-0.3-0.4-0.4
			c-0.1,0.2-0.3,0.3-0.3,0.5C7.3,41.9,7.4,42.3,7.4,42.5z M8.6,42.5c0.9-0.1,1.5-1.9,1.1-3.2C9.3,40.4,8.9,41.4,8.6,42.5z M9.3,42.9
			L9.3,42.9c-0.1,0-0.2,0.1-0.3,0c-0.3-0.1-0.6,0-0.5,0.5c0,0.2,0.4,0.5,0.6,0.5c0.3,0.1,0.6-0.1,0.8-0.2c0.1-0.1,0.2-0.3,0.2-0.5
			c0-0.1-0.2-0.3-0.3-0.4C9.7,42.8,9.5,42.9,9.3,42.9z M62.2,39c0.6,0.7,1.1,1.3,1.8,2C63.6,39.1,63.5,39,62.2,39z M12.3,37.2
			c-1.1,0.1-1.4,0-1.3,1.6C11.4,38.2,11.8,37.7,12.3,37.2z M27.5,30c-0.1,0-0.2,0-0.3,0.1c0,0.3,0,0.7,0.1,1c0,0.1,0.3,0,0.5,0
			C27.7,30.7,27.6,30.4,27.5,30z M14.7,40.8c0.5-0.3,0.9-0.6,1.3-0.8C15.5,40,14.9,39.8,14.7,40.8z"/>
		<path class="st1" d="M25.6,42.7c-1-1.4-1.9-2.9-2.9-4.3c-1.7-2.5-3.9-3.4-6.5-3.2c0.2-0.1,0.5-0.2,0.7-0.3
			c2.9-0.9,5.8-1.6,8.7-1.7c2.6-0.1,5.1-0.1,7.7-0.2c2.4-0.1,4.9-0.2,7.3-0.3c0.8,0,0.9,0.1,0.9,1.1c0,3.6-0.1,7.3-0.1,10.9
			c0,0.6-0.3,0.8-0.7,0.8c-1,0.1-2.1,0.2-3.1,0.2c-3.2,0-6.4,0-9.6,0c-1.1,0-1.9-1-1.9-2.4c0-2.7,0.1-5.4,0.1-8.1
			c0-0.4,0-0.8-0.1-1.1c-0.1,0-0.2,0-0.3,0c0,2.9,0,5.8,0,8.7C25.8,42.7,25.7,42.7,25.6,42.7z"/>
		<path class="st1" d="M45.9,22.7c0.2-0.3,0.1-0.6-0.3-0.6c-0.7-0.1-1.4-0.2-2.1-0.2c-2.7,0-5.4-0.1-8.2,0c-1.6,0.1-3.1,0.4-4.7,0.7
			c-0.9,0.2-1.6,0.9-2,1.9c-0.8,1.9-1.6,3.7-2.3,5.6C26,30.6,26,31.3,26,31.9c0,0.7-0.2,0.9-0.8,1c-2.6,0.4-5.1,0.7-7.7,1.4
			c-1.3,0.3-2.5,1.2-3.8,1.8c-0.8,0.4-1.7,0.6-2.5,0.9c0-0.1-0.1-0.2-0.1-0.3c0.6-0.5,1.3-1,1.8-1.6c0.4-0.5,1-0.6,1.5-0.9
			c0.2-0.1,0.4-0.5,0.6-0.7c0.6-0.4,1.2-0.8,1.8-1.1c0.3-0.2,0.7-0.2,1.1-0.4s0.9-0.4,1.3-0.7c0.6-0.4,1.3-0.4,1.9-0.9
			c0.5-0.5,1.3-0.4,2-0.6c0.4-0.1,0.8-0.2,1.2-0.5c0.5-0.4,0.9-0.3,1.2,0.1c0.4,0.4,0.5,0.2,0.7-0.2c0.5-1.3,1.2-2.5,1.6-3.9
			c0.6-2.1,1.8-2.9,3.3-3.6c1.8-0.8,3.6-0.8,5.5-0.9c0.5,0,1-0.2,1.5-0.2c1.1,0,2.3,0,3.4,0c0.8,0,1.5,0.2,2.3,0.3
			c0.5,0.1,1,0.3,1.4,0.4c0.6,0.1,1.2,0,1.8,0c0,0.1,0,0.1,0,0.2c0.1-0.2,0.2-0.5,0.3-0.5c0.3,0,0.4,0.1,0.2,0.5
			c0.3,0.2,0.6,0.5,1,0.7c1.1,0.7,1.2,0.7,1.7,0.3c0.3,0.4,0.5,0.8,0.9,1c0.6,0.3,1.1,0.5,1.5,1.3c0.5,1,1.2,1.8,1.9,2.6
			c0.2,0.3,0.4,0.5,0.6,0.8c0.4,0.8,0.8,1,1.4,0.4c1,1.3,1.7,2.7,1.6,4.6c0,0.6,0.2,1.2,0.3,1.9c-0.2-0.1-0.4-0.2-0.6-0.3
			c-2.5-1.5-5.1-2.6-7.9-2.6c-1.6,0-3.1,0-4.7,0c-0.8,0-1.6,0-2.5,0c-0.2,0-0.5-0.3-0.5-0.5c-0.1-2.9-0.1-5.9-0.2-8.8
			c0-0.2,0.4-0.6,0.6-0.5C43.6,22.4,44.8,22.6,45.9,22.7c-0.9-0.1-1.7-0.1-2.6-0.2c-0.6,0-0.8,0.3-0.8,1c0,2.2,0,4.3,0,6.5
			c0,1,0.2,1.3,1,1.3c1,0,1.9-0.1,2.9-0.1c2.1,0,4.1-0.1,6.2-0.1c0.9,0,1.2-1,1.8-1.6c0.1-0.1,0.1-0.4,0-0.5
			c-0.4-0.6-0.7-1.1-1.1-1.6c-0.3-1.2-1.2-1.6-1.9-2.4c0,0.1-0.1,0.1-0.1,0.2c0.7,0.8,1.3,1.5,2,2.3c0.3,0.6,0.5,1.2,0.8,1.8
			c-0.1,0-0.1,0.1-0.2,0.1c-0.2-0.4-0.3-0.8-0.6-1.2c-1.2-1.7-2.6-3.2-4.3-4.1C48,23.6,47,23.2,45.9,22.7z M49.8,24.2
			c0-0.1,0.1-0.2,0.1-0.3c-0.5-0.3-0.9-0.5-1.4-0.8c0,0.1-0.1,0.1-0.1,0.2C48.9,23.6,49.3,23.9,49.8,24.2z"/>
		<path class="st1" d="M55.2,33.9c-1.3,0.1-2.5,0.2-3.7,0.9c-1.6,0.9-2.8,2.4-3.4,4.5c-0.5,1.8-1,3.7-1,5.6c0,0.5-0.1,0.6-0.5,0.6
			c-0.9,0-1.9,0.2-2.8,0.2c-0.5,0-1.1,0-1.6-0.1c-0.2,0-0.4-0.4-0.4-0.6c0-2.8,0.1-5.5,0.2-8.3c0-1,0-2-0.1-3.1c0-1.1,0-1,0.8-1
			c1.5,0,2.9-0.2,4.4-0.1c2.2,0.1,4.5-0.1,6.7,0.9C54.2,33.5,54.7,33.7,55.2,33.9z"/>
		<path class="st1" d="M38,31.1c-1.9,0.1-3.8,0.2-5.7,0.2c-1,0-2,0.1-2.9,0c-0.3,0-0.6-0.2-0.8-0.5c-0.3-0.5-0.6-1.2-0.8-1.8
			c-0.1-0.1,0-0.4,0-0.5c0.4-1.1,0.8-2.1,1.2-3.1c0.5-1.4,1.6-1.6,2.6-1.6c2.6-0.1,5.1-0.3,7.7-0.4c0.3,0,0.7,0,1,0.1
			c0.1,0,0.3,0.3,0.3,0.5c0.1,1.7,0.1,3.5,0.2,5.2c0,0.7-0.1,1.1-0.7,1.3c-0.7,0.2-1.3,0.5-1.9,0.8C38,31.2,38,31.2,38,31.1z"/>
		<path class="st1" d="M64.6,44.2c0.3,0.2,0.7,0.4,1,0.5c0.8,0.1,1.6,0,2.4,0c0,0.1,0,0.2-0.1,0.2c-1.6-0.1-3.2,0.4-4.8-0.3
			c-1-0.5-1.9-1.3-2.6-2.3c-0.8-1.1-1.7-2.3-2.6-3.4c-0.9-1-2-1.7-3.2-1.8c-0.6,0-1.2-0.1-1.8-0.1c-0.4,0-0.7,0.2-1,0.4
			c-1.5,1.1-2.6,2.6-3,4.7c-0.2,0.8-0.5,1.7-0.8,2.5c-0.1,0.3-0.2,0.6-0.3,0.9c-0.1-0.1-0.2-0.2-0.4-0.3c0.3-1.2,0.1-2.5,0.6-3.8
			c0.5-1.2,0.9-2.5,1.7-3.6c0.9-1.3,1.8-2.5,3.3-2.6c0.4,0,0.8-0.2,1.3-0.3c1.2-0.2,2.3,0.3,3.3,0.9c0.8,0.5,1.5,1.4,2.3,2.1
			c0.2,0.2,0.5,0.3,0.7,0.5c0.1,0.1,0.2,0,0.3,0.1c0.5,0.7,0.9,1.4,1.4,2.1c0.2,0.3,0.5,0.5,0.9,0.7c0.5,0.3,0.7,1.2,1,1.8
			C64.4,43.4,64.5,43.8,64.6,44.2L64.6,44.2z"/>
		<path class="st1" d="M26.4,45.4c-0.5-0.2-1-0.3-1.4-0.7c-0.5-0.4-0.9-0.9-1.3-1.4c-1-1.3-1.9-2.9-3-4c-1.2-1.3-2.7-1.9-4.4-1.6
			c-2.5,0.4-4.2,2.4-5.4,5.1c-0.1,0.3-0.3,0.6-0.4,1.1c-0.2-0.6,0.1-1.5-0.6-1.4c-0.2-1.2,1.1-1.3,1-2.4c0.8-0.1,0.7-1.1,1.1-1.6
			c0.2,0,0.3,0.1,0.4,0c0.6-1.3,1.7-1.5,2.6-1.9c0.7-0.4,1.6-0.7,2.3-0.8c0.7-0.1,1.4,0.1,2.1,0.7c0.8,0.6,1.7,1,2.5,1.7
			c0.7,0.6,1.2,1.4,1.7,2.2c0.9,1.5,1.8,3.1,2.7,4.7C26.4,45.2,26.4,45.4,26.4,45.4z"/>
		<path class="st1" d="M57.6,43.2c0,2.3-1.3,4-3.1,4c-1.6,0-2.9-1.7-2.9-3.8c0-2.2,1.4-3.9,3.2-3.9C56.3,39.5,57.6,41.2,57.6,43.2z
			 M55.5,41.7c-0.8-0.6-1.6-0.5-2.1,0.5c-0.5,0.8-0.4,1.9,0.2,2.6c0.6,0.6,1.6,0.5,2.1-0.2s0.5-1.4,0.1-2c-0.2,0.5-0.4,1-0.6,1.5
			C54.7,43.4,54.7,43.4,55.5,41.7z"/>
		<path class="st1" d="M17,40.4c1.7,0,2.9,1.6,2.9,3.8c0,2.4-1.4,3.7-2.9,3.8c-1.7,0.1-3.1-1.7-3.1-3.9C13.9,42,15.2,40.4,17,40.4z
			 M16.9,46c1,0,1.6-0.6,1.5-1.7c0-1.2-0.5-1.9-1.4-1.9s-1.6,0.8-1.6,2C15.4,45.3,16,46,16.9,46z"/>
		<path class="st1" d="M27.2,28.9c-0.1,0.3-0.2,0.7-0.3,1c-0.3,1,0.1,1.9,1,1.9c2.1,0,4.3-0.1,6.4-0.1c1.9,0,3.8-0.1,5.7-0.2
			c0.2,0,0.3,0,0.5,0c0.9-0.2,1-0.2,1-1.5c0-2.4,0-4.8,0-7.1c0,0.1,0.1,0.4,0.1,0.7c0,2.6,0,5.1,0,7.7c0,0.6-0.1,0.8-0.6,0.8
			c-1.9,0.1-3.8,0.4-5.7,0.4c-2.6,0.1-5.1,0.1-7.7,0.2c-1.1,0-1.5-0.5-1.2-1.9C26.5,30.1,26.8,29.5,27.2,28.9
			C27.1,28.9,27.2,28.9,27.2,28.9z"/>
		<path class="st1" d="M60.7,34.7c1.1,1.3,2.5,2.2,3.2,3.9c-1.9,0.7-6.5-3.6-5.7-7.1c0.3,0.2,0.5,0.4,0.8,0.7
			c0.2,0.2,0.4,0.5,0.5,0.9c0.2,1.3,0.2,1.4,1.1,2.3C60.6,35.2,60.6,35,60.7,34.7z"/>
		<path class="st1" d="M64.6,44.2c0.1-1.2,0.1-1.2,1.1-1.1c0.9,0,1.8,0.1,2.7,0.2c0.2,0,0.4,0.4,0.6,0.5c-0.2,0.2-0.4,0.6-0.6,0.6
			C67.1,44.3,65.9,44.3,64.6,44.2L64.6,44.2z"/>
		<path class="st1" d="M52.6,24.2c0.1,0,0.3,0,0.3,0.1c1,1,1.9,2.1,2.9,3.1c0.3,0.3,0.4,0.8,0.1,1.1c-0.1,0.1-0.5,0-0.7-0.2
			c-0.8-0.9-1.5-1.9-2.2-2.9c-0.2-0.3-0.3-0.6-0.5-0.9C52.5,24.3,52.5,24.2,52.6,24.2z"/>
		<path class="st1" d="M27.7,24.1c-0.6,1.6-1.3,3.1-1.9,4.7c-0.1,0.1-0.4,0.2-0.6,0.1c-0.1,0-0.2-0.5-0.2-0.6
			c0.8-1.5,1.7-2.9,2.5-4.3C27.6,24,27.7,24,27.7,24.1z"/>
		<path class="st1" d="M67.3,42.4c-1,0.6-2.1,0.4-2.6-0.6c-0.2-0.5-0.1-1.2-0.1-1.8c0.2,0,0.3,0.1,0.5,0.1c0.1,0.1,0.2,0.3,0.3,0.4
			c0.1,0.1,0.3,0.2,0.3,0.4C65.8,42.1,66.5,42.2,67.3,42.4z"/>
		<path class="st1" d="M40.9,22.3c-3.8,0.4-7.6-0.3-11.4,1.3c0.4-0.2,0.8-0.5,1.2-0.6c1.5-0.3,3.1-0.6,4.7-0.7s3.3,0,4.9,0
			C40.5,22.2,40.7,22.3,40.9,22.3z"/>
		<path class="st1" d="M7.4,42.5c0-0.2,0-0.6,0-0.9c0-0.2,0.2-0.3,0.3-0.5C7.8,41.2,8,41.3,8,41.5c0,0.8,0,1.6,0,2.4
			c0,0.2-0.2,0.3-0.4,0.5c-0.1-0.2-0.2-0.3-0.2-0.5C7.4,43.4,7.4,43,7.4,42.5z"/>
		<path class="st1" d="M8.6,42.5c0.4-1.1,0.7-2.1,1.1-3.2C10.1,40.6,9.5,42.4,8.6,42.5z"/>
		<path class="st1" d="M9.3,42.9c0.2,0,0.4,0,0.5,0s0.3,0.2,0.3,0.4s-0.1,0.5-0.2,0.5C9.7,43.9,9.4,44,9.1,44
			c-0.2,0-0.5-0.3-0.6-0.5C8.4,43,8.7,42.9,9,42.9C9.1,42.9,9.2,42.9,9.3,42.9L9.3,42.9z"/>
		<path class="st1" d="M62.2,39c1.3,0,1.4,0.1,1.8,2C63.3,40.3,62.8,39.7,62.2,39z"/>
		<path class="st1" d="M12.3,37.2c-0.5,0.6-0.9,1-1.3,1.6C11,37.2,11.2,37.3,12.3,37.2z"/>
		<path class="st1" d="M27.5,30c0.1,0.4,0.2,0.7,0.2,1.1c-0.2,0-0.5,0.1-0.5,0c-0.1-0.3-0.1-0.7-0.1-1C27.3,30.1,27.4,30,27.5,30z"
			/>
		<path class="st1" d="M14.7,40.8c0.3-1,0.8-0.8,1.3-0.8C15.6,40.3,15.2,40.5,14.7,40.8z"/>
		<path class="st1" d="M45.9,22.7c1,0.5,2.1,0.9,3.1,1.4c1.7,0.9,3.1,2.4,4.3,4.1c0.2,0.3,0.4,0.8,0.6,1.2c0.1,0,0.1-0.1,0.2-0.1
			c-0.3-0.6-0.5-1.2-0.8-1.8l0,0c0.4,0.5,0.8,1.1,1.1,1.6c0.1,0.1,0.1,0.4,0,0.5c-0.6,0.6-0.9,1.6-1.8,1.6c-2.1,0-4.1,0-6.2,0.1
			c-1,0-1.9,0.1-2.9,0.1c-0.8,0-1-0.3-1-1.3c0-2.2,0-4.3,0-6.5c0-0.7,0.2-1.1,0.8-1C44.2,22.6,45,22.7,45.9,22.7L45.9,22.7z
			 M47.9,31C48,31,48,31.1,47.9,31c1.1-0.1,2.3-0.1,3.4-0.4c1-0.2,1.2-1.1,0.7-2.2c-0.1-0.2-0.2-0.4-0.3-0.5
			c-2.1-2.9-4.7-4.5-7.9-4.4c-0.9,0-1,0.2-1,1.3c0,0.3,0,0.7,0,1c0,1.3,0.1,2.6,0.1,4c0,1.1,0.1,1.3,1,1.2C45.3,31,46.6,31,47.9,31z
			"/>
		<path class="st1" d="M53.2,27.5c-0.7-0.8-1.3-1.5-2-2.3c0-0.1,0.1-0.1,0.1-0.2C52,25.9,52.9,26.3,53.2,27.5L53.2,27.5z"/>
		<path class="st1" d="M49.8,24.2c-0.4-0.3-0.9-0.5-1.3-0.8c0-0.1,0.1-0.1,0.1-0.2c0.5,0.3,0.9,0.5,1.4,0.8
			C49.8,24,49.8,24.1,49.8,24.2z"/>
		<path class="st1" d="M55.5,41.7c-0.8,1.7-0.8,1.7-0.3,2.3c0.2-0.5,0.4-1,0.6-1.5c0.5,0.6,0.4,1.3-0.1,2s-1.5,0.8-2.1,0.2
			c-0.6-0.7-0.7-1.8-0.2-2.6C54,41.3,54.7,41.1,55.5,41.7z M54.2,44.1c0.4-0.9,0.3-1.5-0.5-1.7C53.8,43,54,43.5,54.2,44.1z"/>
		<path class="st1" d="M16.9,46c-0.9,0-1.4-0.7-1.4-1.7c0-1.1,0.7-2,1.6-2s1.4,0.7,1.4,1.9C18.4,45.4,17.9,46,16.9,46z M17.7,43
			c-0.6,0.9-0.7,1.3-0.1,1.6C17.7,44.1,18.3,43.7,17.7,43z M16.4,43.1c-0.4,0.7,0,1.2,0.2,1.9C17,44.1,16.7,43.6,16.4,43.1z"/>
		<path class="st1" d="M47.9,31c-1.3,0-2.7,0-4,0c-0.9,0-1-0.1-1-1.2c0-1.3-0.1-2.6-0.1-4c0-0.3,0-0.7,0-1c0-1.1,0.2-1.3,1-1.3
			c3.2-0.1,5.7,1.5,7.9,4.4c0.1,0.2,0.2,0.3,0.3,0.5c0.5,1,0.3,2-0.7,2.2C50.2,30.9,49.1,31,47.9,31C48,31.1,48,31,47.9,31z"/>
		<path class="st1" d="M54.2,44.1c-0.2-0.6-0.4-1.1-0.5-1.7C54.5,42.6,54.6,43.2,54.2,44.1z"/>
		<path class="st1" d="M17.7,43c0.6,0.7,0,1.1-0.1,1.6C17,44.3,17,43.9,17.7,43z"/>
		<path class="st1" d="M16.4,43.1c0.3,0.5,0.7,1.1,0.2,1.9C16.4,44.3,16,43.7,16.4,43.1z"/>
	</g>
</g>
</svg>
