<?xml version="1.0" encoding="utf-8"?>
<!-- Generator: Adobe Illustrator 19.1.1, SVG Export Plug-In . SVG Version: 6.00 Build 0)  -->
<svg version="1.1" id="Layer_1" xmlns="http://www.w3.org/2000/svg" xmlns:xlink="http://www.w3.org/1999/xlink" x="0px" y="0px"
	 viewBox="0 0 75.5 75.8" style="enable-background:new 0 0 75.5 75.8;" xml:space="preserve">
<style type="text/css">
	.st0{fill:#14A087;}
	.st1{fill:#FFFFFF;}
</style>
<circle class="st0" cx="38" cy="38.1" r="37.5"/>
<g>
	<path class="st1" d="M17.9,25c-0.1,0-0.2,0-0.3,0.1c0,0.1-0.1,0.3-0.1,0.6c0,0.5,0,0.8,0.1,1.1c0,0.1,0,0.1,0.1,0.2
		c0,0,0.1,0.1,0.2,0.1c0.2,0.1,0.3,0.3,0.3,0.5c0,0.2-0.1,0.4-0.4,0.5c-0.3,0.1-0.8,0.1-1.5,0.1c-1.3,0-2-0.3-2-0.8
		c0-0.1,0-0.2,0.1-0.2s0.1-0.1,0.3-0.2c0.2-0.1,0.3-0.2,0.3-0.4c0.1-0.1,0.1-0.4,0.1-0.7c0-0.3,0-1.2,0-2.7c0-0.5,0-0.8-0.1-1
		s-0.2-0.3-0.3-0.4c-0.2-0.1-0.3-0.1-0.3-0.2s-0.1-0.1-0.1-0.2c0-0.1,0.1-0.2,0.2-0.3c0.1-0.1,0.2-0.2,0.4-0.2
		c0.2,0,0.4-0.1,0.6-0.1c0.1,0,0.4,0,0.9,0.1c0.1,0,0.2,0,0.4,0c0.3,0,0.8,0,1.3-0.1c0.3,0,0.6,0,0.7,0c0.8,0,1.4,0.2,1.9,0.6
		c0.5,0.3,0.7,0.8,0.7,1.4c0,0.3-0.1,0.6-0.2,0.9s-0.4,0.5-0.6,0.6c-0.1,0.1-0.2,0.1-0.2,0.2c0,0.1,0.1,0.2,0.3,0.3
		c0.4,0.1,0.7,0.3,0.8,0.6s0.3,0.7,0.4,1.3c0,0.2,0.1,0.4,0.1,0.5c0.1,0.1,0.2,0.1,0.4,0.2c0.1,0,0.1,0.1,0.2,0.1
		c0,0.1,0.1,0.1,0.1,0.2c0,0.1,0,0.2-0.1,0.3c-0.1,0.1-0.2,0.2-0.3,0.3c-0.3,0.1-0.7,0.2-1.2,0.2c-0.7,0-1.2-0.2-1.5-0.6
		c-0.1-0.2-0.3-0.4-0.3-0.6c-0.1-0.3-0.2-0.6-0.3-1.2c-0.1-0.3-0.2-0.6-0.3-0.7C18.3,25.1,18.2,25,17.9,25z M17.6,22.3l-0.1,1.3
		c0,0,0,0,0,0c0,0.1,0,0.2,0.1,0.3c0,0,0.1,0.1,0.2,0.1c0.3,0,0.5-0.1,0.7-0.2s0.2-0.4,0.2-0.8c0-0.7-0.2-1-0.7-1
		c-0.1,0-0.2,0-0.3,0.1S17.6,22.1,17.6,22.3z"/>
	<path class="st1" d="M27.7,25.7h-2.5c-0.1,0-0.2,0-0.2,0.1c0,0.2,0.1,0.5,0.4,0.7c0.3,0.2,0.5,0.3,0.8,0.3c0.2,0,0.4,0,0.6-0.1
		c0.2-0.1,0.4-0.1,0.5-0.2c0.1-0.1,0.2-0.1,0.3-0.1c0.1,0,0.2,0.1,0.3,0.2c0.1,0.1,0.1,0.2,0.1,0.4c0,0.3-0.2,0.5-0.5,0.7
		c-0.6,0.4-1.2,0.6-2,0.6c-0.8,0-1.4-0.2-1.9-0.7c-0.2-0.2-0.5-0.5-0.6-0.8c-0.2-0.4-0.3-0.8-0.3-1.3c0-0.6,0.2-1.1,0.5-1.6
		c0.3-0.4,0.7-0.7,1.2-0.9c0.4-0.2,0.8-0.2,1.2-0.2c0.7,0,1.3,0.2,1.7,0.6c0.2,0.2,0.4,0.4,0.6,0.7c0.2,0.3,0.3,0.6,0.3,0.9
		c0,0.2,0,0.4-0.1,0.6S27.9,25.7,27.7,25.7z M25.4,24.7h0.5c0.2,0,0.3-0.1,0.3-0.3c0-0.2-0.1-0.4-0.2-0.5s-0.3-0.2-0.4-0.2
		c-0.2,0-0.4,0.1-0.5,0.2c-0.1,0.1-0.2,0.3-0.2,0.4c0,0.1,0,0.2,0.1,0.2C25.1,24.7,25.2,24.7,25.4,24.7z"/>
	<path class="st1" d="M31.7,22.7c0.2,0,0.4,0,0.6,0c0.1,0,0.4,0.1,0.9,0.2c0.1,0,0.2,0,0.3,0c0.1,0,0.3,0,0.6-0.1
		c0.2-0.1,0.4-0.1,0.5-0.1c0.3,0,0.5,0.1,0.5,0.4c0,0.1,0,0.3,0,0.5c0,0.3-0.1,0.8-0.1,1.5s-0.1,1.3-0.1,1.9c0,0.7,0,1.2,0.1,1.5
		c0,0.1,0,0.2,0.1,0.3c0,0.1,0.1,0.1,0.2,0.2c0.2,0.1,0.2,0.3,0.2,0.4c0,0.5-0.5,0.7-1.4,0.7c-0.7,0-1.3-0.1-1.8-0.3
		c-0.2-0.1-0.3-0.2-0.4-0.3c-0.1-0.1-0.2-0.2-0.2-0.3c0-0.1,0-0.2,0.1-0.2c0-0.1,0.2-0.1,0.4-0.2c0.2-0.1,0.3-0.3,0.3-0.6
		c0-0.2,0-0.3-0.1-0.3c-0.1,0-0.2,0.1-0.4,0.2c-0.2,0.1-0.5,0.2-0.9,0.2c-0.7,0-1.3-0.3-1.7-0.8c-0.5-0.5-0.7-1.2-0.7-2
		c0-0.8,0.3-1.5,0.9-2C30,23,30.8,22.8,31.7,22.7z M31.9,23.9c-0.2,0-0.3,0.1-0.4,0.3c-0.2,0.2-0.3,0.6-0.3,1c0,0.6,0.1,1,0.3,1.3
		c0.2,0.3,0.3,0.4,0.5,0.4c0.2,0,0.3-0.1,0.4-0.3c0.1-0.2,0.1-0.5,0.1-1.1c0-0.5,0-0.8-0.1-1s-0.1-0.4-0.2-0.4
		C32.1,24,32,23.9,31.9,23.9z"/>
	<path class="st1" d="M38.6,23.1V26c0,0.6,0.2,0.9,0.6,0.9c0.1,0,0.2,0,0.3-0.1c0.1-0.1,0.2-0.1,0.2-0.2c0.1-0.2,0.1-0.6,0.1-1.1
		c0-0.6,0-1-0.1-1.2c0-0.1,0-0.2-0.1-0.2c0,0-0.1-0.1-0.2-0.1c-0.2-0.1-0.3-0.2-0.3-0.4c0-0.2,0.2-0.4,0.5-0.5
		c0.7-0.2,1.3-0.2,2-0.2c0.4,0,0.5,0.2,0.5,0.6c0,0,0,0.1,0,0.2c0,0.2,0,0.4,0,0.6v2.4c0,0.1,0.1,0.2,0.3,0.3
		c0.2,0.1,0.3,0.2,0.3,0.4c0,0.3-0.4,0.6-1.1,0.7c-0.4,0.1-0.9,0.2-1.3,0.2c-0.2,0-0.3,0-0.4-0.1s-0.1-0.1-0.1-0.2
		c0-0.2-0.1-0.3-0.2-0.3c0,0-0.1,0-0.1,0c0,0-0.1,0.1-0.3,0.2c-0.4,0.2-0.8,0.4-1.2,0.4c-0.7,0-1.2-0.2-1.5-0.6
		c-0.2-0.3-0.4-0.9-0.4-1.7c0-0.3,0-0.5,0-0.8c0-0.1,0-0.2,0-0.2c0-0.3,0-0.5-0.1-0.7c-0.1-0.1-0.2-0.3-0.3-0.3
		c-0.1-0.1-0.2-0.1-0.3-0.2c0,0-0.1-0.1-0.1-0.2c0-0.3,0.2-0.5,0.6-0.5c0.7-0.2,1.4-0.2,2.1-0.2C38.5,22.8,38.6,22.9,38.6,23.1z"/>
	<path class="st1" d="M48.1,25.7h-2.5c-0.1,0-0.2,0-0.2,0.1c0,0.2,0.1,0.5,0.4,0.7c0.3,0.2,0.5,0.3,0.8,0.3c0.2,0,0.4,0,0.6-0.1
		c0.2-0.1,0.4-0.1,0.5-0.2c0.1-0.1,0.2-0.1,0.3-0.1c0.1,0,0.2,0.1,0.3,0.2c0.1,0.1,0.1,0.2,0.1,0.4c0,0.3-0.2,0.5-0.5,0.7
		c-0.6,0.4-1.2,0.6-2,0.6c-0.8,0-1.4-0.2-1.9-0.7c-0.2-0.2-0.5-0.5-0.6-0.8c-0.2-0.4-0.3-0.8-0.3-1.3c0-0.6,0.2-1.1,0.5-1.6
		c0.3-0.4,0.7-0.7,1.2-0.9c0.4-0.2,0.8-0.2,1.2-0.2c0.7,0,1.3,0.2,1.7,0.6c0.2,0.2,0.4,0.4,0.6,0.7c0.2,0.3,0.3,0.6,0.3,0.9
		c0,0.2,0,0.4-0.1,0.6S48.2,25.7,48.1,25.7z M45.7,24.7h0.5c0.2,0,0.3-0.1,0.3-0.3c0-0.2-0.1-0.4-0.2-0.5c-0.1-0.1-0.3-0.2-0.4-0.2
		c-0.2,0-0.4,0.1-0.5,0.2c-0.1,0.1-0.2,0.3-0.2,0.4c0,0.1,0,0.2,0.1,0.2S45.6,24.7,45.7,24.7z"/>
	<path class="st1" d="M51.1,22.7c0.2,0,0.5,0,0.9,0.1c0.1,0,0.2,0,0.2,0c0.1,0,0.2,0,0.4-0.1c0.1,0,0.2,0,0.2,0
		c0.2,0,0.3,0.1,0.5,0.3c0.1,0.2,0.2,0.4,0.3,0.6c0.1,0.2,0.1,0.4,0.1,0.5c0,0.1,0,0.3-0.2,0.4c-0.1,0.1-0.2,0.1-0.4,0.1
		c-0.1,0-0.2,0-0.3-0.1c-0.1-0.1-0.3-0.2-0.5-0.4c-0.2-0.2-0.4-0.3-0.6-0.3c-0.1,0-0.2,0-0.3,0.1s-0.1,0.2-0.1,0.3
		c0,0.2,0.2,0.3,0.5,0.5c0.6,0.3,1.1,0.6,1.4,0.9c0.3,0.3,0.4,0.6,0.4,1c0,0.5-0.2,0.9-0.7,1.2c-0.4,0.3-0.8,0.4-1.4,0.4
		c-0.1,0-0.4,0-0.8-0.1c-0.3,0-0.5-0.1-0.6-0.1c0,0-0.1,0-0.2,0c-0.1,0-0.2,0-0.2,0c-0.2,0-0.3,0-0.4-0.1c-0.1-0.1-0.3-0.3-0.4-0.6
		C49,27.1,49,26.9,49,26.7c0-0.3,0.1-0.5,0.4-0.5c0.1,0,0.2,0,0.3,0.1c0.1,0.1,0.3,0.2,0.5,0.5c0.1,0.2,0.3,0.3,0.4,0.3
		c0.1,0.1,0.2,0.1,0.3,0.1c0.1,0,0.2,0,0.3-0.1c0.1-0.1,0.1-0.1,0.1-0.3c0-0.2-0.1-0.3-0.4-0.4c-0.6-0.3-1-0.6-1.2-0.9
		c-0.3-0.3-0.4-0.6-0.4-1c0-0.4,0.1-0.8,0.4-1.1C49.9,23,50.4,22.7,51.1,22.7z"/>
	<path class="st1" d="M57.4,24.2V26c0,0.2,0.1,0.4,0.2,0.5s0.2,0.2,0.4,0.2c0.1,0,0.3-0.1,0.6-0.2c0.1,0,0.1,0,0.2,0
		c0.1,0,0.2,0.1,0.2,0.2C59,26.7,59,26.8,59,27c0,0.2-0.1,0.4-0.4,0.6c-0.5,0.4-1.1,0.6-1.8,0.6c-0.6,0-1-0.2-1.4-0.5
		c-0.3-0.3-0.5-0.8-0.5-1.3V24c0-0.1,0-0.1,0-0.2c0,0-0.1,0-0.2,0h-0.6c-0.1,0-0.2,0-0.2-0.1c0,0,0-0.1,0-0.2v-0.2
		c0-0.1,0-0.2,0.1-0.2l2.5-1.5c0.1,0,0.1,0,0.2,0h0.4c0.1,0,0.1,0,0.2,0.1s0,0.1,0,0.2v0.7c0,0.1,0,0.2,0.1,0.2s0.1,0,0.2,0h1
		c0.1,0,0.2,0,0.3,0.1c0,0,0.1,0.2,0.1,0.3v0.3c0,0.2,0,0.3-0.1,0.4c-0.1,0.1-0.1,0.1-0.3,0.1h-1c-0.1,0-0.2,0-0.2,0.1
		C57.4,24,57.4,24.1,57.4,24.2z"/>
	<path class="st1" d="M35.6,37.4v1.8c0,0.2,0.1,0.4,0.2,0.5c0.1,0.1,0.2,0.2,0.4,0.2c0.1,0,0.3-0.1,0.6-0.2c0.1,0,0.1,0,0.2,0
		c0.1,0,0.2,0.1,0.2,0.2s0.1,0.2,0.1,0.3c0,0.2-0.1,0.4-0.4,0.6c-0.5,0.4-1.1,0.6-1.8,0.6c-0.6,0-1-0.2-1.4-0.5s-0.5-0.8-0.5-1.3
		v-2.5c0-0.1,0-0.1,0-0.2c0,0-0.1,0-0.2,0h-0.6c-0.1,0-0.2,0-0.2-0.1s0-0.1,0-0.2v-0.2c0-0.1,0-0.2,0.1-0.2l2.5-1.5
		c0.1,0,0.1,0,0.2,0h0.4c0.1,0,0.1,0,0.2,0.1c0,0,0,0.1,0,0.2v0.7c0,0.1,0,0.2,0.1,0.2c0,0,0.1,0,0.2,0h1c0.1,0,0.2,0,0.3,0.1
		c0,0,0.1,0.2,0.1,0.3v0.3c0,0.2,0,0.3-0.1,0.4s-0.1,0.1-0.3,0.1h-1c-0.1,0-0.2,0-0.2,0.1S35.6,37.3,35.6,37.4z"/>
	<path class="st1" d="M40.8,35.9c0.7,0,1.2,0.2,1.7,0.5c0.4,0.2,0.6,0.6,0.9,1c0.2,0.4,0.3,0.8,0.3,1.3c0,0.8-0.4,1.4-1.1,2
		c-0.7,0.5-1.5,0.8-2.3,0.8c-0.9,0-1.5-0.2-2.1-0.7c-0.5-0.5-0.8-1.1-0.8-1.8c0-0.8,0.3-1.5,0.9-2.1C39,36.2,39.8,35.9,40.8,35.9z
		 M40.3,37.2c-0.2,0-0.3,0.1-0.4,0.2s-0.1,0.3-0.1,0.5c0,0.2,0,0.5,0.1,0.9c0.1,0.4,0.2,0.7,0.3,1c0.1,0.3,0.3,0.4,0.5,0.4
		c0.3,0,0.5-0.2,0.5-0.6c0-0.3,0-0.6-0.1-1c-0.1-0.4-0.2-0.7-0.3-0.9C40.7,37.3,40.5,37.2,40.3,37.2z"/>
	<path class="st1" d="M26.5,54.5l-0.7,0c-0.5,0-0.9,0-1.1,0c-0.2,0-0.4,0-0.4,0c-0.2,0-0.4-0.1-0.5-0.2c-0.1-0.1-0.2-0.2-0.2-0.4
		c0-0.1,0-0.2,0.1-0.2s0.2-0.1,0.3-0.3c0.1-0.1,0.2-0.2,0.2-0.3s0.1-0.5,0.1-1c0.1-0.8,0.1-1.7,0.1-2.9c0-0.4,0-0.7-0.1-0.8
		c-0.1-0.1-0.2-0.3-0.4-0.3c-0.2-0.1-0.4-0.2-0.4-0.4c0-0.2,0.1-0.3,0.2-0.4c0.1-0.1,0.3-0.2,0.5-0.2c0.1,0,0.3,0,0.5,0
		c0.3,0,0.7,0,1,0c0.3,0,0.8,0,1.6,0c0.2,0,0.5,0,0.7,0c0.5,0,0.9,0,1.2,0.1c0.3,0.1,0.5,0.2,0.8,0.4c0.4,0.3,0.5,0.7,0.5,1.2
		c0,0.2-0.1,0.5-0.2,0.7S30.1,50,30,50.1c-0.1,0.1-0.2,0.2-0.2,0.3c0,0.1,0.1,0.2,0.2,0.2c0.3,0.1,0.6,0.3,0.8,0.6
		c0.2,0.3,0.4,0.7,0.4,1.1c0,0.5-0.2,1-0.6,1.4c-0.5,0.6-1.2,0.8-2.2,0.8c-0.1,0-0.5,0-1,0C26.9,54.5,26.7,54.5,26.5,54.5z
		 M26.9,48.7v1.1c0,0.2,0,0.3,0.1,0.4c0,0.1,0.1,0.1,0.2,0.1c0.3,0,0.5-0.1,0.6-0.2s0.2-0.4,0.2-0.8c0-0.3-0.1-0.6-0.2-0.8
		s-0.3-0.3-0.5-0.3c-0.1,0-0.2,0-0.3,0.1C26.9,48.4,26.9,48.5,26.9,48.7z M26.9,51.8v0.5c0,0.5,0,0.8,0.1,0.9
		c0.1,0.2,0.2,0.2,0.4,0.2c0.5,0,0.8-0.3,0.8-1c0-0.8-0.3-1.2-0.9-1.2c-0.2,0-0.3,0-0.3,0.1C27,51.5,26.9,51.6,26.9,51.8z"/>
	<path class="st1" d="M34.8,49.1c0.7,0,1.2,0.2,1.7,0.5c0.4,0.2,0.6,0.6,0.9,1c0.2,0.4,0.3,0.8,0.3,1.3c0,0.8-0.4,1.4-1.1,2
		c-0.7,0.5-1.5,0.8-2.3,0.8c-0.9,0-1.5-0.2-2.1-0.7c-0.5-0.5-0.8-1.1-0.8-1.8c0-0.8,0.3-1.5,0.9-2.1C33.1,49.4,33.9,49.1,34.8,49.1z
		 M34.4,50.4c-0.2,0-0.3,0.1-0.4,0.2c-0.1,0.1-0.1,0.3-0.1,0.5c0,0.2,0,0.5,0.1,0.9c0.1,0.4,0.2,0.7,0.3,1c0.1,0.3,0.3,0.4,0.5,0.4
		c0.3,0,0.5-0.2,0.5-0.6c0-0.3,0-0.6-0.1-1c-0.1-0.4-0.2-0.7-0.3-0.9C34.8,50.5,34.6,50.4,34.4,50.4z"/>
	<path class="st1" d="M41.5,49.1c0.7,0,1.2,0.2,1.7,0.5c0.4,0.2,0.6,0.6,0.9,1c0.2,0.4,0.3,0.8,0.3,1.3c0,0.8-0.4,1.4-1.1,2
		c-0.7,0.5-1.5,0.8-2.3,0.8c-0.9,0-1.5-0.2-2.1-0.7c-0.5-0.5-0.8-1.1-0.8-1.8c0-0.8,0.3-1.5,0.9-2.1C39.7,49.4,40.5,49.1,41.5,49.1z
		 M41,50.4c-0.2,0-0.3,0.1-0.4,0.2c-0.1,0.1-0.1,0.3-0.1,0.5c0,0.2,0,0.5,0.1,0.9c0.1,0.4,0.2,0.7,0.3,1c0.1,0.3,0.3,0.4,0.5,0.4
		c0.3,0,0.5-0.2,0.5-0.6c0-0.3,0-0.6-0.1-1c-0.1-0.4-0.2-0.7-0.3-0.9C41.4,50.5,41.2,50.4,41,50.4z"/>
	<path class="st1" d="M47.9,47.4l0,1.7c0,0.2,0,0.4,0,0.7c0,0.4,0,0.6,0,0.6c0,0.1,0.1,0.2,0.2,0.2c0.1,0,0.3-0.1,0.5-0.2
		c0.2-0.1,0.3-0.2,0.3-0.3c0,0,0-0.1-0.1-0.2c-0.1-0.1-0.1-0.1-0.1-0.2c0-0.4,0.5-0.6,1.4-0.6c0.5,0,0.9,0.1,1.2,0.2
		c0.1,0,0.2,0.1,0.3,0.2c0.1,0.1,0.1,0.2,0.1,0.3c0,0.2-0.1,0.3-0.2,0.3c0,0-0.1,0-0.3,0.1c-0.2,0-0.4,0.1-0.6,0.3
		c-0.3,0.2-0.4,0.3-0.4,0.4c0,0,0.2,0.3,0.5,0.7c0.3,0.4,0.6,0.8,0.8,1.1c0.2,0.2,0.3,0.3,0.4,0.4c0.1,0.1,0.2,0.2,0.4,0.3
		c0.3,0.1,0.4,0.3,0.4,0.5c0,0.2-0.1,0.3-0.2,0.4s-0.4,0.2-0.7,0.2H50c-0.2,0-0.4-0.1-0.5-0.2l-0.9-1.1c-0.2-0.3-0.4-0.5-0.4-0.5
		S48,52.5,48,52.5c0,0-0.1,0-0.1,0.1c0,0.1,0,0.2,0,0.4c0,0.2,0,0.3,0.1,0.4c0,0.1,0.1,0.2,0.2,0.3c0.1,0.1,0.1,0.2,0.1,0.3
		c0,0.3-0.1,0.4-0.4,0.5c-0.3,0.1-0.7,0.2-1.3,0.2c-0.7,0-1.2,0-1.4-0.1c-0.1,0-0.2-0.1-0.3-0.2s-0.1-0.2-0.1-0.3
		c0-0.1,0.1-0.3,0.2-0.4c0.1-0.1,0.2-0.1,0.2-0.2c0,0,0.1-0.1,0.1-0.2c0.1-0.5,0.1-1.3,0.1-2.3v-1.2c0-0.4,0-0.7-0.1-0.8
		s-0.1-0.2-0.3-0.2c-0.3,0-0.4-0.2-0.4-0.4c0-0.1,0.1-0.3,0.2-0.4s0.3-0.2,0.6-0.3c0.9-0.3,1.6-0.5,2.1-0.5
		C47.8,47.2,47.9,47.3,47.9,47.4z"/>
</g>
</svg>
