<?xml version="1.0" encoding="utf-8"?>
<!-- Generator: Adobe Illustrator 20.1.0, SVG Export Plug-In . SVG Version: 6.00 Build 0)  -->
<svg version="1.1" id="Layer_1" xmlns="http://www.w3.org/2000/svg" xmlns:xlink="http://www.w3.org/1999/xlink" x="0px" y="0px"
	 viewBox="0 0 141.7 141.7" style="enable-background:new 0 0 141.7 141.7;" xml:space="preserve">
<style type="text/css">
	.st0{fill:#17A087;}
	.st1{fill:#FFFFFF;}
</style>
<circle class="st0" cx="70.9" cy="70.9" r="70.9"/>
<g>
	<path class="st1" d="M50.5,68.8c-9.1-9.4-18.1-18.9-27.8-28.9c31.7,0,62.6,0,94.3,0c-2.6,3-4.9,5.7-7.4,8.3l0,0
		c-4.9,4.9-9.6,9.8-14.6,14.7c-3.6,3.6-7,7.2-10.6,10.8c-2.1,2.1-4.3,4.2-6.4,6.2c-4.9,4.3-11.3,4.3-16.3,0c-1.1-0.9-2.3-2.1-3.4-3
		C55.9,74.3,53.1,71.6,50.5,68.8z"/>
	<path class="st1" d="M41.2,62.7C35,56.5,28.9,50.1,22.7,43.8v54.4c3.4-3.6,7-7,10.4-10.6c5.1-5.3,10.2-10.8,15.7-16.4
		C46.1,68.4,43.7,65.6,41.2,62.7z"/>
	<path class="st1" d="M119.1,42.1c-5.5,5.7-11,11.3-16.6,17c-3.8,4-7.4,7.9-11.3,12.1c6.4,6.8,12.7,13.2,18.9,19.8c3,3,6,6,8.9,9.1
		v-58H119.1z"/>
	<path class="st1" d="M117.4,101.7c-4.3-4.3-8.7-8.7-13-13.2c-4.2-4.2-8.3-8.5-12.7-12.7c-1.1-1.1-2.5-1.9-3.8-2.8
		c-2.5,2.6-4.7,5.3-7.4,7.6c-6,5.7-14.9,5.9-21,0.2c-2.6-2.5-5.1-5.3-7.7-7.9c-1.3,1.1-2.8,2.1-4,3.2c-3.4,3.2-6.6,6.6-9.8,9.8
		c-5.1,5.1-10.2,10.4-15.3,15.5h0.2h94.5V101.7z"/>
</g>
</svg>
