<?xml version="1.0" encoding="utf-8"?>
<!-- Generator: Adobe Illustrator 20.1.0, SVG Export Plug-In . SVG Version: 6.00 Build 0)  -->
<svg version="1.1" id="Layer_1" xmlns="http://www.w3.org/2000/svg" xmlns:xlink="http://www.w3.org/1999/xlink" x="0px" y="0px"
	 viewBox="0 0 75 75" style="enable-background:new 0 0 75 75;" xml:space="preserve">
<style type="text/css">
	.st0{fill:#17A087;}
	.st1{fill:#FFFFFF;}
</style>
<circle class="st0" cx="37.5" cy="37.5" r="37.5"/>
<g>
	<path class="st1" d="M26.7,36.4c-4.8-5-9.6-10-14.7-15.3c16.8,0,33.1,0,49.9,0c-1.4,1.6-2.6,3-3.9,4.4l0,0
		c-2.6,2.6-5.1,5.2-7.7,7.8c-1.9,1.9-3.7,3.8-5.6,5.7c-1.1,1.1-2.3,2.2-3.4,3.3c-2.6,2.3-6,2.3-8.6,0c-0.6-0.5-1.2-1.1-1.8-1.6
		C29.6,39.3,28.1,37.9,26.7,36.4z"/>
	<path class="st1" d="M21.8,33.2c-3.3-3.3-6.5-6.7-9.8-10V52c1.8-1.9,3.7-3.7,5.5-5.6c2.7-2.8,5.4-5.7,8.3-8.7
		C24.4,36.2,23.1,34.7,21.8,33.2z"/>
	<path class="st1" d="M63,22.3c-2.9,3-5.8,6-8.8,9c-2,2.1-3.9,4.2-6,6.4c3.4,3.6,6.7,7,10,10.5c1.6,1.6,3.2,3.2,4.7,4.8V22.3z"/>
	<path class="st1" d="M62.1,53.8c-2.3-2.3-4.6-4.6-6.9-7c-2.2-2.2-4.4-4.5-6.7-6.7c-0.6-0.6-1.3-1-2-1.5c-1.3,1.4-2.5,2.8-3.9,4
		c-3.2,3-7.9,3.1-11.1,0.1c-1.4-1.3-2.7-2.8-4.1-4.2c-0.7,0.6-1.5,1.1-2.1,1.7c-1.8,1.7-3.5,3.5-5.2,5.2c-2.7,2.7-5.4,5.5-8.1,8.2
		c0,0,0.1,0,0.1,0H62.1z"/>
</g>
</svg>
