<?xml version="1.0" encoding="utf-8"?>
<!-- Generator: Adobe Illustrator 20.1.0, SVG Export Plug-In . SVG Version: 6.00 Build 0)  -->
<svg version="1.1" id="Layer_1" xmlns="http://www.w3.org/2000/svg" xmlns:xlink="http://www.w3.org/1999/xlink" x="0px" y="0px"
	 viewBox="0 0 141.7 141.7" style="enable-background:new 0 0 141.7 141.7;" xml:space="preserve">
<style type="text/css">
	.st0{fill:#14A087;}
	.st1{fill:#FFFFFF;}
</style>
<g>
	<circle class="st0" cx="71.2" cy="70.8" r="70.9"/>
	<g>
		<path class="st1" d="M39.7,92.7c-0.8,0.4-1.3,0.8-2.1,0.9c-2.1,0.4-4.2,0.8-6.2,0.6c-3.2-0.2-6.6-0.6-9.8-0.8c-1.1,0-2.3,0-3.6,0
			c0-0.2,0-0.2,0-0.4c2.5-0.2,4.9-0.4,7.6-0.6c-2.8-2.6-4.7-5.9-4.9-10.2c-1.3,0.4-2.5,0.9-3.8,1.3c-0.9,0.2-2.1,0.2-3.2,0.2
			c-0.4,0-0.8-0.4-1.1-0.6c-0.2,0-0.2-0.4-0.2-0.6c-1.5-1.1-1.7-2.3-0.2-4c0.4-0.2,0.2-1.3,0.2-2.1c0-0.9-0.6-2.3,0.6-2.6
			c0.6-0.2,1.3,0.2,2.5,0.4c0.6-0.9,1.1-2.3,2.1-3.6c3-5.1,7.2-8.3,11.5-11.1c4.9-3,10.2-4.5,15.5-6.2c0.8-0.2,1.5-0.9,1.9-1.7
			c1.7-2.8,3.4-5.9,5.1-8.7c0.6-0.9,1.5-1.9,2.5-2.3c4.9-2.6,10-3.8,15.3-4.3c7.4-0.9,14.6,0.4,21.5,2.8c3.2,1.1,6.2,2.8,8.9,5.7
			c3.6,4.2,7.4,8.3,11,12.5c2.1,2.5,3.8,5.1,5.7,7.6c1.1,1.5,2.3,2.8,4,3.6c0.8,0.4,1.5,0.9,1.1,2.5c-0.2,0.4,0.4,1.1,0.8,1.5
			c0.4,0.4,0.9,0.6,1.1,0.9c1.3,1.7,3,3,3.6,5.7c0.2,0.6,0.8,0.8,1.3,1.1c0-2.1-0.2-4-0.2-5.7c0-0.4,0.4-0.9,0.6-0.9
			s0.8,0.4,0.8,0.6c0.2,3,2.1,5.5,1.5,8.7c-0.2,0.8-0.4,1.3-0.8,2.1c0.4-2.6,0.6-4.9-0.8-7.4c-0.4-0.9-0.4-2.3-0.6-3.4
			c-0.2,0-0.2,0-0.4,0c-0.2,0.6-0.4,1.1-0.4,1.7c0.2,1.3,0.4,2.8,0.9,4c0.8,1.9,0.4,3.8-0.2,5.7c-0.2,0.4-0.8,0.9-1.3,0.9
			c-3.8,0.4-7.6,0.8-11-1.3c-1.7-0.9-3.4-1.7-5.1-2.5c-1.1,2.6-2.3,5.3-3.4,8.3c5.1,0,10.4,0,15.7,0c0,0.2,0,0.4,0,0.6
			c0.6,0,0.4,0.2,0.2,0.2c-12.3,0.4-24.4,1.1-36.7,0.8c0,0,0-0.4,0-0.2c-0.9,0.2-1.7,0.4-2.8,0.6c0.8-1.1,1.3-1.3,3.8-1.3
			c1.3,0,2.6,0,4,0c1.3,0,2.5,0.2,3.6,0.2c-1.3-1.9-2.6-3.6-4.2-5.7c-1.5,2.5-3.8,1.5-5.9,1.5C74.6,88,63.7,88,52.7,88
			c-0.9,0-1.9,0-3,0.2c-2.1,0.2-3.6-0.9-5.3-2.5c-1.3-1.1-2.6-2.3-4.2-3.6c-0.2,4.3-1.5,7.7-4,10.4C37.6,92.7,38.7,92.7,39.7,92.7
			L39.7,92.7z M121.1,82.7c-0.2-0.8-0.4-1.5-0.8-2.1c-0.6-1.1-0.9-2.8-1.9-3.4c-0.6-0.4-1.1-0.8-1.7-1.3c-0.9-1.3-1.7-2.6-2.6-4
			c-0.2-0.2-0.4-0.2-0.6-0.2c-0.4-0.2-0.9-0.6-1.3-0.9c-1.5-1.3-2.6-3-4.3-4c-1.9-1.1-4-2.1-6.2-1.7c-0.8,0.2-1.5,0.4-2.5,0.6
			c-2.8,0.2-4.5,2.5-6.2,4.9c-1.3,2.1-2.3,4.3-3.2,6.8c-0.9,2.5-0.6,4.9-1.1,7.2c0.2,0.2,0.4,0.4,0.8,0.6c0.2-0.6,0.4-1.1,0.6-1.7
			c0.6-1.5,1.1-3,1.5-4.7c0.9-4,3-6.8,5.7-8.9c0.6-0.4,1.3-0.8,1.9-0.8c1.1-0.2,2.3,0,3.4,0.2c2.3,0.2,4.3,1.3,6,3.4
			s3.2,4.3,4.9,6.4c1.5,1.9,3,3.4,4.9,4.3c3,1.3,6,0.6,9.1,0.6c0,0,0-0.2,0.2-0.4c-1.5,0-3,0-4.5,0C122.4,83.4,121.9,83,121.1,82.7
			c2.5,0.2,4.7,0.2,7,0.2c0.4,0,0.8-0.8,1.1-1.1c-0.4-0.4-0.8-0.9-1.1-0.9c-1.7-0.2-3.4-0.2-5.1-0.4
			C121.3,80.4,121.3,80.4,121.1,82.7z M85.8,42L85.8,42c-2.3-0.4-4.3-0.6-6.6-0.8c-0.4,0-1.1,0.8-1.1,0.9c0,5.5,0.2,11.1,0.4,16.6
			c0,0.4,0.6,0.9,0.9,0.9c1.5,0.2,3,0,4.7,0c3,0,5.9,0,8.9,0c5.3,0,10.2,2.1,14.9,4.9c0.4,0.2,0.8,0.4,1.1,0.6
			c-0.2-1.3-0.6-2.5-0.6-3.6c0.2-3.6-1.1-6.2-3-8.7c-1.1,1.1-1.9,0.8-2.6-0.8c-0.2-0.6-0.8-0.9-1.1-1.5c-1.1-1.7-2.6-3-3.6-4.9
			c-0.8-1.5-1.7-1.9-2.8-2.5c-0.6-0.2-1.1-1.1-1.7-1.9c-0.9,0.8-1.1,0.8-3.2-0.6c-0.6-0.4-1.1-0.8-1.9-1.3c0.4-0.6,0.2-0.9-0.4-0.9
			c-0.2,0-0.4,0.6-0.6,0.9c0-0.2,0-0.2,0-0.4c-1.1,0-2.3,0.2-3.4,0c-0.9-0.2-1.9-0.6-2.6-0.8c-1.5-0.2-2.8-0.4-4.3-0.6
			c-2.1-0.2-4.3-0.2-6.4,0c-0.9,0-1.9,0.4-2.8,0.4c-3.4,0.6-6.8,0.6-10.2,2.1c-2.8,1.3-5.1,2.8-6.2,6.8c-0.8,2.6-1.9,4.9-3,7.4
			c-0.4,0.8-0.6,1.1-1.3,0.4c-0.8-0.8-1.3-1.1-2.3-0.2c-0.6,0.6-1.5,0.8-2.3,0.9c-1.3,0.4-2.8,0.2-3.8,1.1c-1.1,0.9-2.5,0.9-3.6,1.7
			c-0.8,0.4-1.5,0.9-2.5,1.3c-0.6,0.4-1.3,0.4-2.1,0.8c-1.1,0.6-2.3,1.3-3.4,2.1c-0.4,0.2-0.8,0.9-1.1,1.3c-0.9,0.6-1.9,0.8-2.8,1.7
			c-0.9,1.1-2.3,2.1-3.4,3c0,0.2,0.2,0.4,0.2,0.6c1.5-0.6,3.2-0.9,4.7-1.7c2.5-1.1,4.7-2.8,7.2-3.4c4.7-1.1,9.6-1.9,14.6-2.6
			c1.1-0.2,1.5-0.6,1.5-1.9c0-1.1,0-2.5,0.4-3.6c1.3-3.6,2.8-7,4.3-10.6c0.8-1.9,2.1-3.2,3.8-3.6c3-0.6,5.9-1.1,8.9-1.3
			c5.1-0.2,10.2,0,15.5,0c1.3,0,2.6,0.2,4,0.4C86,41.1,86.1,41.5,85.8,42z M47.4,79.8c0.2,0,0.4,0,0.4,0c0-5.5,0-11,0-16.4
			c0.2,0,0.4,0,0.6,0c0,0.8,0.2,1.5,0.2,2.1c0,5.1-0.2,10.2-0.2,15.3c0,2.6,1.5,4.5,3.6,4.5c6,0,12.1,0,18.1,0c1.9,0,4-0.2,5.9-0.4
			c0.8,0,1.3-0.4,1.3-1.5c0-6.8,0.2-13.8,0.2-20.6c0-1.9,0-2.1-1.7-2.1c-4.5,0.2-9.3,0.4-13.8,0.6c-4.9,0.2-9.6,0.2-14.6,0.4
			c-5.7,0.2-11,1.3-16.4,3.2c-0.4,0.2-0.9,0.4-1.3,0.6c4.9-0.2,9.1,1.5,12.3,6C44,74.4,45.7,77.2,47.4,79.8z M103.3,63.2
			c-0.9-0.4-1.9-0.8-2.8-1.1c-4.2-1.9-8.3-1.5-12.7-1.7c-2.8-0.2-5.5,0.2-8.3,0.2c-1.5,0-1.7,0-1.5,1.9c0,1.9,0.2,3.8,0.2,5.9
			c0,5.3-0.2,10.4-0.4,15.7c0,0.4,0.6,1.1,0.8,1.1c0.9,0.2,2.1,0.2,3,0.2c1.7-0.2,3.6-0.4,5.3-0.4c0.8,0,0.9-0.2,0.9-1.1
			c0-3.8,0.8-7.2,1.9-10.6c1.1-4,3.2-6.8,6.4-8.5C98.6,63.6,100.9,63.4,103.3,63.2z M70.8,57.9c0,0.2,0,0.2,0.2,0.4
			c1.1-0.6,2.5-1.3,3.6-1.5c1.1-0.2,1.3-1.1,1.3-2.5c-0.2-3.2-0.2-6.6-0.4-9.8c0-0.4-0.4-0.8-0.6-0.9c-0.6-0.2-1.1-0.4-1.9-0.2
			c-4.9,0.2-9.6,0.4-14.6,0.8c-2.1,0.2-4,0.6-4.9,3c-0.8,1.9-1.5,4-2.3,5.9c-0.2,0.4-0.2,0.8,0,0.9c0.4,1.1,0.9,2.3,1.5,3.4
			c0.4,0.6,0.9,0.9,1.5,0.9c1.9,0,3.8,0,5.5,0C63.7,58.3,67.2,58.1,70.8,57.9z M48.9,84.9c0,0,0-0.4-0.2-0.6c-1.7-3-3.2-6-5.1-8.9
			c-0.9-1.5-2.1-3-3.2-4.2c-1.5-1.3-3.2-2.1-4.7-3.2c-1.3-0.9-2.6-1.3-4-1.3c-1.5,0.2-3,0.8-4.3,1.5c-1.7,0.9-4,1.1-4.9,3.6
			c0,0.2-0.4,0-0.8,0c-0.8,0.9-0.8,2.8-2.1,3c0.4,2.1-2.3,2.3-1.9,4.5c1.3-0.2,0.9,1.5,1.1,2.6c0.4-0.8,0.6-1.5,0.8-2.1
			c2.5-4.9,5.5-8.9,10.2-9.6c3-0.6,6,0.8,8.3,3c2.1,2.3,3.8,5.1,5.7,7.6c0.8,0.9,1.5,1.9,2.5,2.6C47,84.4,48,84.6,48.9,84.9z
			 M107.9,80.8c0-3.8-2.5-7-5.3-7c-3.4,0-6,3.2-6,7.4c0,4,2.5,7.2,5.5,7.2C105.4,88.3,107.9,85.1,107.9,80.8z M31.2,75.5
			c-3.2,0-5.9,3.2-5.9,7c0,4.2,2.6,7.6,5.9,7.4c3-0.2,5.5-2.6,5.5-7.2C36.6,78.3,34.4,75.5,31.2,75.5z M50.4,53.8
			c-0.2,0-0.2-0.2-0.4-0.2c-0.4,1.1-0.9,2.5-1.3,3.6c-0.6,2.6,0.2,3.6,2.3,3.6c4.9,0,9.6-0.2,14.6-0.4c3.6-0.2,7.2-0.6,10.8-0.8
			c0.9,0,1.1-0.4,1.1-1.5c0-4.9,0-9.6,0-14.6c0-0.6-0.2-1.1-0.2-1.3c0,4.3,0,8.9,0,13.4c0,2.3,0,2.5-1.9,2.8c-0.4,0-0.6,0-0.9,0
			c-3.6,0.2-7.2,0.2-10.8,0.4c-4,0.2-8.1,0.2-12.1,0.2c-1.7,0-2.5-1.5-1.9-3.6C50.1,55.1,50.2,54.5,50.4,53.8z M113.7,64.7
			c-0.2,0.6-0.2,0.9-0.4,1.3c-1.7-1.7-1.7-1.9-2.1-4.3c-0.2-0.6-0.6-1.1-0.9-1.7c-0.4-0.6-0.9-0.9-1.5-1.3
			c-1.5,6.6,7.2,14.7,10.8,13.4C118.3,68.9,115.8,67.2,113.7,64.7z M98.4,44.9c0,0.2-0.2,0.2-0.2,0.4c0.4,0.6,0.6,1.1,0.9,1.7
			c1.3,1.9,2.6,3.8,4.2,5.5c0.4,0.4,1.1,0.6,1.3,0.4c0.6-0.6,0.4-1.3-0.2-2.1c-1.9-1.9-3.6-4-5.5-5.9C98.8,44.9,98.6,44.9,98.4,44.9
			z M51.4,44.7c-0.2-0.2-0.2-0.2-0.4-0.4c-1.5,2.6-3.2,5.5-4.7,8.1c-0.2,0.2,0.2,1.1,0.4,1.1c0.4,0.2,1.1,0,1.1-0.2
			C49.1,50.5,50.2,47.5,51.4,44.7z M126.2,79.3c-1.5-0.4-2.8-0.6-2.8-2.8c0-0.2-0.4-0.4-0.6-0.8c-0.2-0.2-0.4-0.6-0.6-0.8
			c-0.2-0.2-0.6-0.2-0.9-0.2c0,1.1-0.2,2.6,0.2,3.4C122.2,80,124.3,80.4,126.2,79.3z M76.3,41.3c-0.4,0-0.8-0.2-1.1-0.2
			c-3,0-6.2-0.2-9.3,0c-3,0.2-5.9,0.8-8.9,1.3c-0.8,0.2-1.5,0.8-2.3,1.1C62,40.7,69.1,42,76.3,41.3z M13,79.5c0,1.1,0,1.9,0.2,2.6
			c0,0.4,0.2,0.8,0.4,0.9c0.2-0.4,0.6-0.6,0.6-0.9c0-1.5,0-3,0-4.5c0-0.4-0.4-0.6-0.8-0.8c-0.2,0.4-0.6,0.6-0.6,0.9
			C12.8,78.3,13,79.1,13,79.5z M15.3,79.5c1.7-0.2,2.8-3.6,2.1-6C16.6,75.5,15.8,77.4,15.3,79.5z M16.6,80.2L16.6,80.2
			c-0.2,0-0.4,0.2-0.6,0c-0.6-0.2-1.1,0-0.9,0.9c0,0.4,0.8,0.9,1.1,0.9c0.6,0.2,1.1-0.2,1.5-0.4c0.2-0.2,0.4-0.6,0.4-0.9
			c0-0.2-0.4-0.6-0.6-0.8C17.4,80,17,80.2,16.6,80.2z M116.6,72.8c1.1,1.3,2.1,2.5,3.4,3.8C119.2,73,119,72.8,116.6,72.8z
			 M22.3,69.4c-2.1,0.2-2.6,0-2.5,3C20.6,71.3,21.3,70.4,22.3,69.4z M51,55.8c-0.2,0-0.4,0-0.6,0.2c0,0.6,0,1.3,0.2,1.9
			c0,0.2,0.6,0,0.9,0C51.4,57.2,51.2,56.6,51,55.8z M26.8,76.2c0.9-0.6,1.7-1.1,2.5-1.5C28.3,74.7,27.2,74.4,26.8,76.2z"/>
		<path class="st1" d="M47.4,79.8c-1.9-2.6-3.6-5.5-5.5-8.1c-3.2-4.7-7.4-6.4-12.3-6c0.4-0.2,0.9-0.4,1.3-0.6c5.5-1.7,11-3,16.4-3.2
			c4.9-0.2,9.6-0.2,14.6-0.4c4.5-0.2,9.3-0.4,13.8-0.6c1.5,0,1.7,0.2,1.7,2.1c0,6.8-0.2,13.8-0.2,20.6c0,1.1-0.6,1.5-1.3,1.5
			c-1.9,0.2-4,0.4-5.9,0.4c-6,0-12.1,0-18.1,0c-2.1,0-3.6-1.9-3.6-4.5c0-5.1,0.2-10.2,0.2-15.3c0-0.8,0-1.5-0.2-2.1
			c-0.2,0-0.4,0-0.6,0c0,5.5,0,11,0,16.4C47.8,79.8,47.6,79.8,47.4,79.8z"/>
		<path class="st1" d="M85.8,42c0.4-0.6,0.2-1.1-0.6-1.1c-1.3-0.2-2.6-0.4-4-0.4c-5.1,0-10.2-0.2-15.5,0c-3,0.2-5.9,0.8-8.9,1.3
			c-1.7,0.4-3,1.7-3.8,3.6c-1.5,3.6-3,7-4.3,10.6c-0.6,0.9-0.6,2.3-0.6,3.4c0,1.3-0.4,1.7-1.5,1.9c-4.9,0.8-9.6,1.3-14.6,2.6
			c-2.5,0.6-4.7,2.3-7.2,3.4c-1.5,0.8-3.2,1.1-4.7,1.7c0-0.2-0.2-0.4-0.2-0.6c1.1-0.9,2.5-1.9,3.4-3c0.8-0.9,1.9-1.1,2.8-1.7
			c0.4-0.2,0.8-0.9,1.1-1.3c1.1-0.8,2.3-1.5,3.4-2.1c0.6-0.4,1.3-0.4,2.1-0.8c0.8-0.4,1.7-0.8,2.5-1.3c1.1-0.8,2.5-0.8,3.6-1.7
			c0.9-0.9,2.5-0.8,3.8-1.1c0.8-0.2,1.5-0.4,2.3-0.9c0.9-0.8,1.7-0.6,2.3,0.2c0.8,0.8,0.9,0.4,1.3-0.4c0.9-2.5,2.3-4.7,3-7.4
			c1.1-4,3.4-5.5,6.2-6.8c3.4-1.5,6.8-1.5,10.4-1.7c0.9,0,1.9-0.4,2.8-0.4c2.1,0,4.3,0,6.4,0c1.5,0,2.8,0.4,4.3,0.6
			c0.9,0.2,1.9,0.6,2.6,0.8c1.1,0.2,2.3,0,3.4,0c0,0.2,0,0.2,0,0.4c0.2-0.4,0.4-0.9,0.6-0.9c0.6,0,0.8,0.2,0.4,0.9
			c0.6,0.4,1.1,0.9,1.9,1.3c2.1,1.3,2.3,1.3,3.2,0.6c0.6,0.8,0.9,1.5,1.7,1.9c1.1,0.6,2.1,0.9,2.8,2.5c0.9,1.9,2.3,3.4,3.6,4.9
			c0.4,0.6,0.8,0.9,1.1,1.5c0.8,1.5,1.5,1.9,2.6,0.8c1.9,2.5,3.2,5.1,3,8.7c0,1.1,0.4,2.3,0.6,3.6c-0.4-0.2-0.8-0.4-1.1-0.6
			c-4.7-2.8-9.6-4.9-14.9-4.9c-3,0-5.9,0-8.9,0c-1.5,0-3,0-4.7,0c-0.4,0-0.9-0.6-0.9-0.9c-0.2-5.5-0.2-11.1-0.4-16.6
			c0-0.4,0.8-1.1,1.1-0.9C81.4,41.5,83.7,41.9,85.8,42c-1.7-0.2-3.2-0.2-4.9-0.4c-1.1,0-1.5,0.6-1.5,1.9c0,4.2,0,8.1,0,12.3
			c0,1.9,0.4,2.5,1.9,2.5c1.9,0,3.6-0.2,5.5-0.2c4,0,7.7-0.2,11.7-0.2c1.7,0,2.3-1.9,3.4-3c0.2-0.2,0.2-0.8,0-0.9
			c-0.8-1.1-1.3-2.1-2.1-3c-0.6-2.3-2.3-3-3.6-4.5c0,0.2-0.2,0.2-0.2,0.4c1.3,1.5,2.5,2.8,3.8,4.3c0.6,1.1,0.9,2.3,1.5,3.4
			c-0.2,0-0.2,0.2-0.4,0.2c-0.4-0.8-0.6-1.5-1.1-2.3c-2.3-3.2-4.9-6-8.1-7.7C89.7,43.7,87.8,43,85.8,42z M93.1,44.9
			c0-0.2,0.2-0.4,0.2-0.6c-0.9-0.6-1.7-0.9-2.6-1.5c0,0.2-0.2,0.2-0.2,0.4C91.4,43.7,92.2,44.3,93.1,44.9z"/>
		<path class="st1" d="M103.3,63.2c-2.5,0.2-4.7,0.4-7,1.7c-3,1.7-5.3,4.5-6.4,8.5C89,76.8,88,80.4,88,84c0,0.9-0.2,1.1-0.9,1.1
			c-1.7,0-3.6,0.4-5.3,0.4c-0.9,0-2.1,0-3-0.2c-0.4,0-0.8-0.8-0.8-1.1c0-5.3,0.2-10.4,0.4-15.7c0-1.9,0-3.8-0.2-5.9
			c0-2.1,0-1.9,1.5-1.9c2.8,0,5.5-0.4,8.3-0.2c4.2,0.2,8.5-0.2,12.7,1.7C101.5,62.5,102.4,62.8,103.3,63.2z"/>
		<path class="st1" d="M70.8,57.9c-3.6,0.2-7.2,0.4-10.8,0.4c-1.9,0-3.8,0.2-5.5,0c-0.6,0-1.1-0.4-1.5-0.9c-0.6-0.9-1.1-2.3-1.5-3.4
			c-0.2-0.2,0-0.8,0-0.9c0.8-2.1,1.5-4,2.3-5.9c0.9-2.6,3-3,4.9-3c4.9-0.2,9.6-0.6,14.6-0.8c0.6,0,1.3,0,1.9,0.2
			c0.2,0,0.6,0.6,0.6,0.9c0.2,3.2,0.2,6.6,0.4,9.8c0,1.3-0.2,2.1-1.3,2.5c-1.3,0.4-2.5,0.9-3.6,1.5C70.8,58.1,70.8,58.1,70.8,57.9z"
			/>
		<path class="st1" d="M121.1,82.7c0.6,0.4,1.3,0.8,1.9,0.9c1.5,0.2,3,0,4.5,0c0,0.2,0,0.4-0.2,0.4c-3-0.2-6,0.8-9.1-0.6
			c-1.9-0.9-3.6-2.5-4.9-4.3c-1.5-2.1-3.2-4.3-4.9-6.4c-1.7-1.9-3.8-3.2-6-3.4c-1.1,0-2.3-0.2-3.4-0.2c-0.8,0-1.3,0.4-1.9,0.8
			c-2.8,2.1-4.9,4.9-5.7,8.9c-0.4,1.5-0.9,3.2-1.5,4.7c-0.2,0.6-0.4,1.1-0.6,1.7c-0.2-0.2-0.4-0.4-0.8-0.6c0.6-2.3,0.2-4.7,1.1-7.2
			c0.9-2.3,1.7-4.7,3.2-6.8c1.7-2.5,3.4-4.7,6.2-4.9c0.8,0,1.5-0.4,2.5-0.6c2.3-0.4,4.3,0.6,6.2,1.7c1.5,0.9,2.8,2.6,4.3,4
			c0.4,0.4,0.9,0.6,1.3,0.9c0.2,0.2,0.4,0,0.6,0.2c0.9,1.3,1.7,2.6,2.6,4c0.4,0.6,0.9,0.9,1.7,1.3c0.9,0.6,1.3,2.3,1.9,3.4
			C120.7,81.2,120.9,81.9,121.1,82.7L121.1,82.7z"/>
		<path class="st1" d="M48.9,84.9c-0.9-0.4-1.9-0.6-2.6-1.3c-0.9-0.8-1.7-1.7-2.5-2.6c-1.9-2.5-3.6-5.5-5.7-7.6
			c-2.3-2.5-5.1-3.6-8.3-3c-4.7,0.8-7.9,4.5-10.2,9.6c-0.2,0.6-0.6,1.1-0.8,2.1c-0.4-1.1,0.2-2.8-1.1-2.6c-0.4-2.3,2.1-2.5,1.9-4.5
			c1.5-0.2,1.3-2.1,2.1-3c0.4,0,0.6,0.2,0.8,0c1.1-2.5,3.2-2.8,4.9-3.6c1.3-0.8,3-1.3,4.3-1.5c1.3-0.2,2.6,0.2,4,1.3
			c1.5,1.1,3.2,1.9,4.7,3.2c1.3,1.1,2.3,2.6,3.2,4.2c1.7,2.8,3.4,5.9,5.1,8.9C48.9,84.6,48.9,84.9,48.9,84.9z"/>
		<path class="st1" d="M107.9,80.8c0,4.3-2.5,7.6-5.9,7.6c-3,0-5.5-3.2-5.5-7.2c0-4.2,2.6-7.4,6-7.4C105.4,73.8,107.9,77,107.9,80.8
			z M103.9,77.9c-1.5-1.1-3-0.9-4,0.9c-0.9,1.5-0.8,3.6,0.4,4.9c1.1,1.1,3,0.9,4-0.4c0.9-1.3,0.9-2.6,0.2-3.8
			c-0.4,0.9-0.8,1.9-1.1,2.8C102.4,81.2,102.4,81.2,103.9,77.9z"/>
		<path class="st1" d="M31.2,75.5c3.2,0,5.5,3,5.5,7.2c0,4.5-2.6,7-5.5,7.2c-3.2,0.2-5.9-3.2-5.9-7.4C25.3,78.5,27.8,75.5,31.2,75.5
			z M31,86.1c1.9,0,3-1.1,2.8-3.2c0-2.3-0.9-3.6-2.6-3.6c-1.7,0-3,1.5-3,3.8C28.1,84.8,29.3,86.1,31,86.1z"/>
		<path class="st1" d="M50.4,53.8c-0.2,0.6-0.4,1.3-0.6,1.9c-0.6,1.9,0.2,3.6,1.9,3.6c4,0,8.1-0.2,12.1-0.2c3.6,0,7.2-0.2,10.8-0.4
			c0.4,0,0.6,0,0.9,0c1.7-0.4,1.9-0.4,1.9-2.8c0-4.5,0-9.1,0-13.4c0,0.2,0.2,0.8,0.2,1.3c0,4.9,0,9.6,0,14.6c0,1.1-0.2,1.5-1.1,1.5
			c-3.6,0.2-7.2,0.8-10.8,0.8c-4.9,0.2-9.6,0.2-14.6,0.4c-2.1,0-2.8-0.9-2.3-3.6C49.1,56,49.7,54.9,50.4,53.8
			C50.2,53.8,50.4,53.8,50.4,53.8z"/>
		<path class="st1" d="M113.7,64.7c2.1,2.5,4.7,4.2,6,7.4c-3.6,1.3-12.3-6.8-10.8-13.4c0.6,0.4,0.9,0.8,1.5,1.3
			c0.4,0.4,0.8,0.9,0.9,1.7c0.4,2.5,0.4,2.6,2.1,4.3C113.5,65.7,113.5,65.3,113.7,64.7z"/>
		<path class="st1" d="M121.1,82.7c0.2-2.3,0.2-2.3,2.1-2.1c1.7,0,3.4,0.2,5.1,0.4c0.4,0,0.8,0.8,1.1,0.9c-0.4,0.4-0.8,1.1-1.1,1.1
			C125.8,82.9,123.6,82.9,121.1,82.7L121.1,82.7z"/>
		<path class="st1" d="M98.4,44.9c0.2,0,0.6,0,0.6,0.2c1.9,1.9,3.6,4,5.5,5.9c0.6,0.6,0.8,1.5,0.2,2.1c-0.2,0.2-0.9,0-1.3-0.4
			c-1.5-1.7-2.8-3.6-4.2-5.5c-0.4-0.6-0.6-1.1-0.9-1.7C98.2,45.1,98.2,44.9,98.4,44.9z"/>
		<path class="st1" d="M51.4,44.7c-1.1,3-2.5,5.9-3.6,8.9c-0.2,0.2-0.8,0.4-1.1,0.2c-0.2,0-0.4-0.9-0.4-1.1c1.5-2.8,3.2-5.5,4.7-8.1
			C51.2,44.5,51.4,44.5,51.4,44.7z"/>
		<path class="st1" d="M126.2,79.3c-1.9,1.1-4,0.8-4.9-1.1c-0.4-0.9-0.2-2.3-0.2-3.4c0.4,0,0.6,0.2,0.9,0.2c0.2,0.2,0.4,0.6,0.6,0.8
			c0.2,0.2,0.6,0.4,0.6,0.8C123.4,78.7,124.7,78.9,126.2,79.3z"/>
		<path class="st1" d="M76.3,41.3C69.1,42,62,40.7,54.8,43.7c0.8-0.4,1.5-0.9,2.3-1.1c2.8-0.6,5.9-1.1,8.9-1.3c3-0.2,6.2,0,9.3,0
			C75.6,41.1,75.9,41.3,76.3,41.3z"/>
		<path class="st1" d="M13,79.5c0-0.4,0-1.1,0-1.7c0-0.4,0.4-0.6,0.6-0.9c0.2,0.2,0.6,0.4,0.6,0.8c0,1.5,0,3,0,4.5
			c0,0.4-0.4,0.6-0.8,0.9c-0.2-0.4-0.4-0.6-0.4-0.9C13,81.2,13,80.4,13,79.5z"/>
		<path class="st1" d="M15.3,79.5c0.8-2.1,1.3-4,2.1-6C18.1,75.9,17,79.3,15.3,79.5z"/>
		<path class="st1" d="M16.6,80.2c0.4,0,0.8,0,0.9,0c0.2,0,0.6,0.4,0.6,0.8s-0.2,0.9-0.4,0.9c-0.4,0.2-0.9,0.4-1.5,0.4
			c-0.4,0-0.9-0.6-1.1-0.9c-0.2-0.9,0.4-1.1,0.9-1.1C16.2,80.2,16.4,80.2,16.6,80.2L16.6,80.2z"/>
		<path class="st1" d="M116.6,72.8c2.5,0,2.6,0.2,3.4,3.8C118.6,75.3,117.7,74.2,116.6,72.8z"/>
		<path class="st1" d="M22.3,69.4c-0.9,1.1-1.7,1.9-2.5,3C19.8,69.4,20.2,69.6,22.3,69.4z"/>
		<path class="st1" d="M51,55.8c0.2,0.8,0.4,1.3,0.4,2.1c-0.4,0-0.9,0.2-0.9,0c-0.2-0.6-0.2-1.3-0.2-1.9C50.6,56,50.8,55.8,51,55.8z
			"/>
		<path class="st1" d="M26.8,76.2c0.6-1.9,1.5-1.5,2.5-1.5C28.5,75.3,27.8,75.7,26.8,76.2z"/>
		<path class="st1" d="M85.8,42c1.9,0.9,4,1.7,5.9,2.6c3.2,1.7,5.9,4.5,8.1,7.7c0.4,0.6,0.8,1.5,1.1,2.3c0.2,0,0.2-0.2,0.4-0.2
			c-0.6-1.1-0.9-2.3-1.5-3.4l0,0c0.8,0.9,1.5,2.1,2.1,3c0.2,0.2,0.2,0.8,0,0.9c-1.1,1.1-1.7,3-3.4,3c-4,0-7.7,0-11.7,0.2
			c-1.9,0-3.6,0.2-5.5,0.2c-1.5,0-1.9-0.6-1.9-2.5c0-4.2,0-8.1,0-12.3c0-1.3,0.4-2.1,1.5-1.9C82.6,41.9,84.1,42,85.8,42L85.8,42z
			 M89.5,57.7C89.7,57.7,89.7,57.9,89.5,57.7c2.1-0.2,4.3-0.2,6.4-0.8c1.9-0.4,2.3-2.1,1.3-4.2c-0.2-0.4-0.4-0.8-0.6-0.9
			c-4-5.5-8.9-8.5-14.9-8.3c-1.7,0-1.9,0.4-1.9,2.5c0,0.6,0,1.3,0,1.9c0,2.5,0.2,4.9,0.2,7.6c0,2.1,0.2,2.5,1.9,2.3
			C84.6,57.7,87.1,57.7,89.5,57.7z"/>
		<path class="st1" d="M99.6,51.1c-1.3-1.5-2.5-2.8-3.8-4.3c0-0.2,0.2-0.2,0.2-0.4C97.3,48.1,99,48.8,99.6,51.1L99.6,51.1z"/>
		<path class="st1" d="M93.1,44.9c-0.8-0.6-1.7-0.9-2.5-1.5c0-0.2,0.2-0.2,0.2-0.4c0.9,0.6,1.7,0.9,2.6,1.5
			C93.1,44.5,93.1,44.7,93.1,44.9z"/>
		<path class="st1" d="M103.9,77.9c-1.5,3.2-1.5,3.2-0.6,4.3c0.4-0.9,0.8-1.9,1.1-2.8c0.9,1.1,0.8,2.5-0.2,3.8
			c-0.9,1.3-2.8,1.5-4,0.4c-1.1-1.3-1.3-3.4-0.4-4.9C101.1,77.2,102.4,76.8,103.9,77.9z M101.5,82.5c0.8-1.7,0.6-2.8-0.9-3.2
			C100.7,80.4,101.1,81.3,101.5,82.5z"/>
		<path class="st1" d="M31,86.1c-1.7,0-2.6-1.3-2.6-3.2c0-2.1,1.3-3.8,3-3.8c1.7,0,2.6,1.3,2.6,3.6C33.8,84.9,32.9,86.1,31,86.1z
			 M32.5,80.4c-1.1,1.7-1.3,2.5-0.2,3C32.5,82.5,33.6,81.7,32.5,80.4z M30,80.6c-0.8,1.3,0,2.3,0.4,3.6C31.2,82.5,30.6,81.5,30,80.6
			z"/>
		<path class="st1" d="M89.5,57.7c-2.5,0-5.1,0-7.6,0c-1.7,0-1.9-0.2-1.9-2.3c0-2.5-0.2-4.9-0.2-7.6c0-0.6,0-1.3,0-1.9
			c0-2.1,0.4-2.5,1.9-2.5c6-0.2,10.8,2.8,14.9,8.3c0.2,0.4,0.4,0.6,0.6,0.9c0.9,1.9,0.6,3.8-1.3,4.2C93.9,57.5,91.8,57.7,89.5,57.7
			C89.7,57.9,89.7,57.7,89.5,57.7z"/>
		<path class="st1" d="M101.5,82.5c-0.4-1.1-0.8-2.1-0.9-3.2C102,79.6,102.2,80.8,101.5,82.5z"/>
		<path class="st1" d="M32.5,80.4c1.1,1.3,0,2.1-0.2,3C31.2,82.9,31.2,82.1,32.5,80.4z"/>
		<path class="st1" d="M30,80.6c0.6,0.9,1.3,2.1,0.4,3.6C30,82.9,29.3,81.7,30,80.6z"/>
	</g>
</g>
</svg>
