<?xml version="1.0" encoding="utf-8"?>
<!-- Generator: Adobe Illustrator 19.1.1, SVG Export Plug-In . SVG Version: 6.00 Build 0)  -->
<svg version="1.1" id="Layer_1" xmlns="http://www.w3.org/2000/svg" xmlns:xlink="http://www.w3.org/1999/xlink" x="0px" y="0px"
	 viewBox="0 0 301 300.5" style="enable-background:new 0 0 301 300.5;" xml:space="preserve">
<style type="text/css">
	.st0{fill:#169F87;}
	.st1{fill:#F9FCFC;}
	.st2{fill:#F6FBFB;}
	.st3{fill:#EDF7F7;}
	.st4{fill:#F3FAF9;}
	.st5{fill:#F7FCFB;}
</style>
<path class="st0" d="M1,167.3c0-11.3,0-22.7,0-34c0.6-2.3,1.5-4.6,1.8-7C16,43.3,96.5-13.4,178.7,2.7
	C256.6,18,308.3,87.9,300.2,166.9c-6.6,64.3-55.7,118.1-119.2,130.6c-4.6,0.9-9.3,1.9-13.9,2.9c-11,0-22,0-33,0
	c-2.3-0.6-4.6-1.5-7-1.8C65.5,288.8,15.9,241.1,3.9,180.2C3,175.9,2,171.6,1,167.3z M211.8,103.3c-0.4-0.1-0.8-0.2-1.1-0.3
	c-0.1-1.7-0.2-3.4-0.2-5.2c0-8,0.1-16-0.1-24c-0.2-6.9-3.1-9.6-9.9-9.6c-29.3,0-58.7-0.1-88,0.1c-2.2,0-4.9,1.1-6.4,2.6
	c-8.1,7.7-15.8,15.8-23.8,23.5c-2.6,2.5-3.7,5.1-3.6,8.7c0.1,41.8,0.1,83.6,0.1,125.5c0,9.9,2.5,12.5,12.3,12.5c35.3,0,70.6,0,106,0
	c11.3,0,13.5-2.2,13.5-13.4c0-27.3-0.1-54.7,0.1-82c0-3.1,1.1-6.6,2.7-9.3c7.2-11.8,14.7-23.3,22.1-34.9c3.1-4.9,2.4-8.6-2.2-11.6
	c-4.6-3-8.7-2.2-11.8,2.5C218.2,93.4,215,98.4,211.8,103.3z M241.1,88.5c1.1-1.6,2.6-4,4.1-6.3c0.5-0.7,0.9-1.4,1.3-2.1
	c2-4.2,0.9-8.8-2.7-11c-3.9-2.5-8-2-11,1.8c-2.4,3.1-4.3,6.5-5.8,8.7C232.1,82.7,236.5,85.5,241.1,88.5z"/>
<path class="st1" d="M211.8,103.3c3.2-5,6.3-9.9,9.5-14.8c3.1-4.7,7.1-5.5,11.8-2.5c4.6,3,5.3,6.7,2.2,11.6
	c-7.4,11.6-14.9,23.2-22.1,34.9c-1.6,2.7-2.7,6.1-2.7,9.3c-0.2,27.3-0.1,54.7-0.1,82c0,11.2-2.2,13.4-13.5,13.4
	c-35.3,0-70.6,0-106,0c-9.8,0-12.3-2.5-12.3-12.5c0-41.8,0-83.6-0.1-125.5c0-3.6,1-6.2,3.6-8.7c8-7.7,15.7-15.8,23.8-23.5
	c1.6-1.5,4.3-2.6,6.4-2.6c29.3-0.2,58.7-0.1,88-0.1c6.8,0,9.7,2.7,9.9,9.6c0.2,8,0.1,16,0.1,24c0,1.7,0.2,3.4,0.2,5.2
	C211.1,103.1,211.5,103.2,211.8,103.3z M84.2,100.3c-0.2,1.3-0.3,1.9-0.3,2.5c0,41.1,0,82.3-0.1,123.4c0,5,2.8,5.6,6.7,5.6
	c36,0,72,0,108,0c5.9,0,6.5-0.7,6.5-6.7c0-24.8,0-49.6,0-74.5c0-1.2,0-2.5,0-3.7c-0.3-0.1-0.7-0.1-1-0.2
	c-11.7,18.3-23.4,36.7-34.5,54c-5-3-9.4-5.6-14.3-8.5c7.1-11.2,14.7-23.3,22.8-36.1c-2.7,0-4.5,0-6.3,0c-23.8,0-47.6,0-71.5,0
	c-3,0-6.8,0.6-6.9-3.7c0-4.3,3.9-3.6,6.8-3.7c1.3-0.1,2.7,0,4,0c24.7,0,49.3,0,74,0c1.6,0,4,0.1,4.7-0.8c2.9-3.8,5.4-8,8.5-12.7
	c-30.9,0-60.5,0-90.2,0c-1.5,0-3.2,0.4-4.5-0.2c-1.3-0.5-3.3-2.1-3.2-3c0.2-1.4,1.6-3,3-3.8c1.2-0.7,2.9-0.3,4.4-0.3
	c31,0.1,62,0.2,92.9,0.2c0.7,0,1.9-0.1,2.1-0.5c3.3-6.1,9.4-10.8,9.1-18.8c-0.3-11-0.1-22-0.1-33c0-6.6-0.3-6.8-6.7-6.8
	c-26.2,0-52.3,0-78.5,0c-1.6,0-3.2,0-5,0c0,7.3,0.1,13.8,0,20.3c-0.1,7.4-3.3,10.6-10.7,10.7C97.6,100.4,91.1,100.3,84.2,100.3z
	 M86.8,95.2c6.3,0,13.1,0.1,19.9-0.1c1,0,2.6-1.9,2.7-3c0.3-6.6,0.1-13.1,0.1-19.4C101.9,80.2,94.4,87.7,86.8,95.2z"/>
<path class="st2" d="M241.1,88.5c-4.7-3-9.1-5.8-14-8.9c1.4-2.2,3.4-5.7,5.8-8.7c3-3.8,7.1-4.3,11-1.8c3.6,2.3,4.7,6.8,2.7,11
	c-0.4,0.7-0.8,1.4-1.3,2.1C243.7,84.5,242.2,86.9,241.1,88.5z"/>
<path class="st0" d="M84.2,100.3c6.9,0,13.4,0,19.9,0c7.4-0.1,10.6-3.2,10.7-10.7c0.1-6.5,0-13,0-20.3c1.8,0,3.4,0,5,0
	c26.2,0,52.3,0,78.5,0c6.5,0,6.7,0.3,6.7,6.8c0,11-0.2,22,0.1,33c0.2,8-5.8,12.7-9.1,18.8c-0.2,0.4-1.4,0.5-2.1,0.5
	c-31-0.1-62-0.1-92.9-0.2c-1.5,0-3.3-0.4-4.4,0.3c-1.3,0.8-2.8,2.4-3,3.8c-0.1,0.9,1.9,2.4,3.2,3c1.3,0.5,3,0.2,4.5,0.2
	c29.6,0,59.3,0,90.2,0c-3.1,4.7-5.5,8.9-8.5,12.7c-0.7,0.9-3.1,0.8-4.7,0.8c-24.7,0-49.3,0-74,0c-1.3,0-2.7-0.1-4,0
	c-2.9,0.1-6.9-0.7-6.8,3.7c0,4.3,3.9,3.7,6.9,3.7c23.8,0,47.6,0,71.5,0c1.8,0,3.6,0,6.3,0c-8.1,12.8-15.7,24.9-22.8,36.1
	c4.9,2.9,9.2,5.5,14.3,8.5c11.1-17.4,22.8-35.7,34.5-54c0.3,0.1,0.7,0.1,1,0.2c0,1.2,0,2.5,0,3.7c0,24.8,0,49.6,0,74.5
	c0,5.9-0.7,6.7-6.5,6.7c-36,0-72,0-108,0c-4,0-6.7-0.6-6.7-5.6c0.1-41.1,0.1-82.3,0.1-123.4C83.9,102.2,84,101.6,84.2,100.3z
	 M145.5,107.5c-11.5,0-23,0-34.5,0c-4.3,0-8.7-0.4-13,0.2c-1.7,0.2-3.2,2.5-4.8,3.8c1.5,1.2,3,2.5,4.7,3.6c0.5,0.3,1.3,0.1,2,0.1
	c30,0,60,0,90,0c2.9,0,6.3,0.1,6.4-3.8c0.1-4.1-3.3-3.8-6.2-3.8C175.2,107.5,160.4,107.5,145.5,107.5z M126.8,169.5
	c-9.2,0-18.3,0-27.5,0c-2.8,0-5.8,0.1-6,3.7c-0.2,3.6,3,4,5.7,4c18.5,0.1,37,0,55.4,0c2.8,0,5.8-0.4,5.7-4c-0.1-3.6-3.1-3.7-5.9-3.7
	C145.1,169.5,136,169.5,126.8,169.5z M120.4,190.2c-7.2,0-14.3,0-21.5,0c-2.6,0-5.6,0.2-5.4,3.5c0.1,1.3,3.2,3.3,5,3.3
	c14.5,0.3,29,0.3,43.5,0c1.7,0,3.4-2.2,5-3.5c-1.7-1.1-3.4-3.1-5.2-3.2C134.8,190,127.6,190.2,120.4,190.2z M146.2,220.7
	c0.4,0.3,0.8,0.6,1.1,1c4.7-3.8,9.5-7.4,14-11.5c1.8-1.7,4.3-4.4,4-6.3c-0.6-4-4-6.2-8.2-6.7c-2.6-0.3-5.1,0-5.8,3.1
	C149.5,207,147.8,213.8,146.2,220.7z"/>
<path class="st0" d="M86.8,95.2c7.6-7.5,15.1-15,22.7-22.6c0,6.3,0.1,12.9-0.1,19.4c0,1.1-1.7,3-2.7,3
	C99.9,95.3,93.1,95.2,86.8,95.2z"/>
<path class="st3" d="M145.5,107.5c14.8,0,29.7,0,44.5,0c2.9,0,6.3-0.2,6.2,3.8c-0.1,3.9-3.5,3.8-6.4,3.8c-30,0-60,0-90,0
	c-0.7,0-1.5,0.2-2-0.1c-1.6-1.1-3.1-2.4-4.7-3.6c1.6-1.3,3.1-3.6,4.8-3.8c4.3-0.6,8.6-0.2,13-0.2C122.5,107.5,134,107.5,145.5,107.5
	z"/>
<path class="st3" d="M126.8,169.5c9.2,0,18.3,0,27.5,0c2.8,0,5.8,0.1,5.9,3.7c0.1,3.6-3,4-5.7,4c-18.5,0-37,0-55.4,0
	c-2.7,0-5.9-0.4-5.7-4c0.2-3.5,3.2-3.7,6-3.7C108.5,169.5,117.7,169.5,126.8,169.5z"/>
<path class="st4" d="M120.4,190.2c7.2,0,14.3-0.2,21.5,0.2c1.8,0.1,3.5,2.1,5.2,3.2c-1.7,1.2-3.3,3.4-5,3.5c-14.5,0.3-29,0.3-43.5,0
	c-1.8,0-4.9-2-5-3.3c-0.3-3.3,2.7-3.5,5.4-3.5C106.1,190.2,113.3,190.2,120.4,190.2z"/>
<path class="st5" d="M146.2,220.7c1.7-6.8,3.3-13.7,5.1-20.5c0.8-3.1,3.2-3.4,5.8-3.1c4.2,0.5,7.6,2.8,8.2,6.7
	c0.3,1.9-2.1,4.6-4,6.3c-4.5,4-9.3,7.7-14,11.5C146.9,221.3,146.5,221,146.2,220.7z"/>
</svg>
