<?xml version="1.0" encoding="utf-8"?>
<!-- Generator: Adobe Illustrator 19.1.1, SVG Export Plug-In . SVG Version: 6.00 Build 0)  -->
<svg version="1.1" id="Layer_1" xmlns="http://www.w3.org/2000/svg" xmlns:xlink="http://www.w3.org/1999/xlink" x="0px" y="0px"
	 viewBox="0 0 26.6 14.1" style="enable-background:new 0 0 26.6 14.1;" xml:space="preserve">
<style type="text/css">
	.st0{opacity:0.9;fill:#D1D2D3;stroke:#231F20;stroke-width:8.176864e-002;stroke-miterlimit:10;}
</style>
<path class="st0" d="M7.2,9C6.1,10.1,6,11.2,6,11.2c0,0.9,0.2,1,0.2,1c8,3.6,14.5,0,14.5,0c0.2-1.6-0.9-2.8-0.9-2.8
	C18.5,8.3,17.7,8,17.7,8c2.9,1.1,3.1,2,3.1,2c0.6,1.1,0.5,2,0.5,2c3.6-0.3,5-1.1,5-1.1C26.9,9.1,25,8.1,25,8.1l-2.7-1.3l0-0.6
	c0.7-0.5,0.9-1.4,0.9-1.4l0.2-0.4c0-1.7-0.4-2.4-0.4-2.4c-2.6-1.3-4,0.3-4,0.3c-0.3,1.3-0.1,2.2-0.1,2.2L19,4.8
	c0.4,1.4,0.9,1.6,0.9,1.6v0.5l-2.5,1c-1.6-0.9-2.6-0.9-2.6-0.9l-0.1-0.7c1-0.7,1.3-2.1,1.3-2.1c0.4-0.5,0-1,0-1c0.1-1.7-0.2-2-0.2-2
	c-2.7-1.9-4.8-0.3-4.8-0.3c-0.4,0.4-0.5,1.1-0.5,1.1l-0.1,1.1c-0.3,0.3,0,1,0,1c0.5,1.8,1.2,2,1.2,2l0,0.7L9.2,7.9L6.9,7L6.8,6.5
	c0.8-0.6,1-1.7,1-1.7C8,4.5,7.9,4.2,7.9,4.2C8.1,3,7.8,2.4,7.8,2.4C5.8,1,3.9,2.1,3.9,2.1C3.5,2.5,3.4,4,3.4,4c-0.1,0.3,0,0.6,0,0.6
	c0.3,1.3,1,1.8,1,1.8l0,0.7L1.5,8.4c-0.7,0.4-1,1.3-1,1.3c-0.2,0.9,0,1.4,0,1.4c1.8,1,5,1.2,5,1.2C5.5,9.4,7.2,9,7.2,9z"/>
</svg>
