<?xml version="1.0" encoding="utf-8"?>
<!-- Generator: Adobe Illustrator 20.1.0, SVG Export Plug-In . SVG Version: 6.00 Build 0)  -->
<svg version="1.1" id="Layer_1" xmlns="http://www.w3.org/2000/svg" xmlns:xlink="http://www.w3.org/1999/xlink" x="0px" y="0px"
	 viewBox="0 0 142.9 92" style="enable-background:new 0 0 142.9 92;" xml:space="preserve">
<style type="text/css">
	.st0{fill:#E7E7E7;stroke:#BEBEBE;stroke-width:1.161;stroke-miterlimit:10;}
</style>
<g>
	<path class="st0" d="M4.7,0.6c44.9,0,88.6,0,133.2,0c-1.3,1.7-2.1,2.7-3,3.7C118.5,21.1,102.1,38,85.5,54.9
		C76,64.5,66.9,64.6,57.4,55c-16.7-17-33.3-34-49.9-51C6.8,3.1,6.1,2.2,4.7,0.6z"/>
	<path class="st0" d="M137.1,91.4c-43.8,0-87.5,0-131.4,0C7.2,87.5,34.9,58.6,45,50.3c1.1,0.8,2.4,1.6,3.4,2.6
		c2.8,2.7,5.4,5.6,8.2,8.2c8.5,7.8,20.9,7.8,29.5,0.1c3.8-3.5,7.4-7.3,11.7-11.5c13.5,13.7,26.6,27.1,39.8,40.5
		C137.5,90.5,137.3,91,137.1,91.4z"/>
	<path class="st0" d="M1.5,4.9C15,18.8,28,32.2,41.6,46.1C28.2,59.7,15.3,72.9,1.8,86.6c-0.6-1.6-1.2-2.4-1.2-3.1
		c0-25.1,0-50.2,0.1-75.4C0.7,7.4,1,6.7,1.5,4.9z"/>
	<path class="st0" d="M101.3,46.1c13.6-13.9,26.6-27.2,39.5-40.6c0.5,0.2,0.9,0.4,1.4,0.6c0.1,26.5,0.1,52.9-0.7,79.7
		C127.6,73,114.7,59.7,101.3,46.1z"/>
</g>
</svg>
