<?xml version="1.0" encoding="utf-8"?>
<!-- Generator: Adobe Illustrator 20.1.0, SVG Export Plug-In . SVG Version: 6.00 Build 0)  -->
<svg version="1.1" id="Layer_1" xmlns="http://www.w3.org/2000/svg" xmlns:xlink="http://www.w3.org/1999/xlink" x="0px" y="0px"
	 viewBox="0 0 141.7 141.7" style="enable-background:new 0 0 141.7 141.7;" xml:space="preserve">
<style type="text/css">
	.st0{fill:#8B8B8B;}
</style>
<path class="st0" d="M58.7,0c8.4,0,16.8,0,25.2,0c0.9,2.9,0.9,5.9,1.9,8.8c0,2,0,3.9,0.9,4.9c3.7,2,8.4,4.9,13.1,4.9
	c1.9,0,4.7-2,6.5-3.9c2.8-2.9,5.6-3.9,8.4-1c4.7,3.9,8.4,8.8,13.1,12.7c2.8,2.9,2.8,5.9,0.9,7.8c-7.5,4.9-6.5,10.8-2.8,16.6v1
	c0.9,3.9,2.8,4.9,5.6,4.9c3.7,0,6.5,2,10.3,2c0,7.8,0,16.6,0,24.4c-1.9,0-3.7,2-5.6,1c-6.5-1-9.3,2-12.1,8.8
	c-1.9,5.9-1.9,8.8,1.9,12.7c4.7,3.9,3.7,5.9,0,10.8c-3.7,3.9-7.5,7.8-11.2,10.8c-2.8,2.9-5.6,2.9-7.5,0c-4.7-5.9-9.3-5.9-15.9-2.9
	c-4.7,2-6.5,3.9-6.5,9.8s-1.9,7.8-6.5,7.8s-10.3,0-14.9,0c-5.6,0-6.5-2-7.5-7.8c0-2,0-5.9-0.9-6.8c-3.7-2-8.4-4.9-13.1-4.9
	c-1.9,0-4.7,2.9-6.5,4.9c-2.8,2.9-5.6,3.9-8.4,1c-4.7-3.9-8.4-8.8-13.1-12.7c-2.8-2.9-2.8-5.9,0-7.8c5.6-3.9,6.5-8.8,2.8-15.6
	c0-1-0.9-2-0.9-2.9C14.9,86,13.1,85,10.3,85c-3.7,0-6.5-1-10.3-2c0-8.8,0-17.6,0-25.4c2.8,0,6.5-1,9.3-1c1.9,0,4.7,0,4.7-2
	c2.8-3.9,4.7-7.8,5.6-12.7c0-2-2.8-4.9-4.7-6.8c-3.7-2.9-2.8-5.9,0-8.8c3.7-3.9,7.5-7.8,11.2-11.7c3.7-2.9,6.5-3.9,10.3,0
	c3.7,4.9,7.5,4.9,13.1,2c0.9-1,2.8-1,3.7-1c2.8,0,3.7-2.9,3.7-6.8C56.9,5.9,57.8,2.9,58.7,0z M44.8,71.4c0,6.8,2.8,12.7,6.5,17.6
	c10.3,10.8,27,10.8,37.3,1c11.2-10.8,10.3-29.3-0.9-39.1c-9.3-8.8-24.2-7.8-34.5,1C47.6,56.7,44.8,62.6,44.8,71.4z"/>
</svg>
